<svg width="4913" height="1609" xmlns="http://www.w3.org/2000/svg" xmlns:xlink="http://www.w3.org/1999/xlink" overflow="hidden"><defs><clipPath id="clip0"><rect x="0" y="0" width="4913" height="1609"/></clipPath><clipPath id="clip1"><rect x="973" y="-578" width="1135" height="1164"/></clipPath><clipPath id="clip2"><rect x="973" y="-576" width="1135" height="1162"/></clipPath><clipPath id="clip3"><rect x="973" y="-576" width="1135" height="1162"/></clipPath><clipPath id="clip4"><path d="M1342.61 126.797 1579.45 17.8262 1595.18 52.0126 1358.34 160.983Z"/></clipPath><clipPath id="clip5"><path d="M1342.61 126.797 1579.45 17.8262 1595.18 52.0126 1358.34 160.983Z"/></clipPath><clipPath id="clip6"><path d="M1342.61 126.797 1579.45 17.8262 1595.18 52.0126 1358.34 160.983Z"/></clipPath><clipPath id="clip7"><path d="M1089.14 243.803 1325.97 134.818 1341.7 169.004 1104.86 277.989Z"/></clipPath><clipPath id="clip8"><path d="M1089.14 243.803 1325.97 134.818 1341.7 169.004 1104.86 277.989Z"/></clipPath><clipPath id="clip9"><path d="M1089.14 243.803 1325.97 134.818 1341.7 169.004 1104.86 277.989Z"/></clipPath><clipPath id="clip10"><path d="M1089.14 243.803 1325.97 134.818 1341.7 169.004 1104.86 277.989Z"/></clipPath><clipPath id="clip11"><path d="M1089.14 243.803 1325.97 134.818 1341.7 169.004 1104.86 277.989Z"/></clipPath><clipPath id="clip12"><path d="M1715.45 160.324 1477.52 53.7759 1492.89 19.4354 1730.84 125.983Z"/></clipPath><clipPath id="clip13"><path d="M1715.45 160.324 1477.52 53.7759 1492.89 19.4354 1730.84 125.983Z"/></clipPath><clipPath id="clip14"><path d="M1715.45 160.324 1477.52 53.7759 1492.89 19.4354 1730.84 125.983Z"/></clipPath><clipPath id="clip15"><path d="M1970.39 274.126 1732.45 167.578 1747.83 133.223 1985.76 239.785Z"/></clipPath><clipPath id="clip16"><path d="M1970.39 274.126 1732.45 167.578 1747.83 133.223 1985.76 239.785Z"/></clipPath><clipPath id="clip17"><path d="M1970.39 274.126 1732.45 167.578 1747.83 133.223 1985.76 239.785Z"/></clipPath><clipPath id="clip18"><path d="M1970.39 274.126 1732.45 167.578 1747.83 133.223 1985.76 239.785Z"/></clipPath><clipPath id="clip19"><path d="M1970.39 274.126 1732.45 167.578 1747.83 133.223 1985.76 239.785Z"/></clipPath><clipPath id="clip20"><rect x="2805" y="1022" width="1135" height="1165"/></clipPath><clipPath id="clip21"><rect x="2805" y="1022" width="1135" height="1163"/></clipPath><clipPath id="clip22"><rect x="2805" y="1022" width="1135" height="1163"/></clipPath><clipPath id="clip23"><rect x="3318" y="1477" width="108" height="107"/></clipPath></defs><g clip-path="url(#clip0)"><rect x="0" y="0" width="4913" height="1608.94" fill="#44546A"/><g clip-path="url(#clip1)"><g clip-path="url(#clip2)"><g clip-path="url(#clip3)"><g><path d="M635.369 130.453C634.767 135.001 635.258 139.563 636.247 143.759 637.523 149.185 639.774 154.607 643.88 159.029 645.203 160.455 646.869 161.917 648.722 163.333L199.77 364.572 642.49 563.02C638.036 568.328 633.567 575.835 631.883 581.16 630.112 586.765 630.549 591.811 631.782 597.093L181.193 395.097C182.078 394.459 182.935 393.761 183.752 393.001 188.801 388.314 194.334 379.473 196.298 372.822 198.032 366.945 197.588 360.845 196.298 355.37 195.019 349.944 192.202 344.368 188.661 340.1 186.744 337.789 184.529 335.567 182.028 333.682ZM175.524 925.704C169.514 923.93 161.394 923.507 155.757 924.213 150.31 924.898 145.941 926.019 141.577 929.668 141.086 930.08 140.58 930.538 140.068 931.036L140.068 394.717C144.067 397.341 148.479 399.555 152.12 400.637 157.731 402.304 163.25 401.877 168.482 400.637 170.826 400.082 173.212 399.329 175.524 398.312ZM641.06 1163.94C637.548 1168.73 634.373 1174.42 632.972 1178.91 631.012 1185.21 631.635 1191.74 632.972 1197.45 633.122 1198.1 633.287 1198.75 633.466 1199.39L182.358 997.164C183.311 996.598 184.261 995.924 185.207 995.115 190.751 990.377 198.842 979.207 201.025 971.66 201.469 970.119 201.731 968.582 201.849 967.051ZM654.187 624.877C657.251 626.514 660.311 627.829 662.97 628.611 669.026 630.385 674.946 629.901 680.422 628.611 683.561 627.869 686.701 626.808 689.643 625.246L689.643 1156.43C687.808 1155.17 685.833 1154.1 683.694 1153.28 677.605 1150.93 668.188 1150.3 661.881 1151.09 659.078 1151.44 656.563 1151.91 654.187 1152.78ZM1143.88 966.202C1144.06 967.302 1144.29 968.395 1144.55 969.481 1145.81 974.799 1148.08 980.329 1152.19 984.751 1155.58 988.41 1161.09 992.309 1166.45 994.935L704.866 1201.85C705.342 1200.72 705.744 1199.6 706.055 1198.54 707.79 1192.67 707.417 1186.79 706.055 1181.09 704.826 1175.96 702.106 1170.19 698.892 1165.68ZM1168.31 395.721C1171.25 397.401 1174.21 398.774 1176.73 399.548 1182.41 401.29 1187.86 400.788 1193.09 399.548 1196.69 398.692 1200.38 397.38 1203.76 395.352L1203.76 931.388C1200.74 929.266 1197.43 927.482 1194.18 926.396 1187.89 924.285 1179.54 924.378 1173.46 925.303 1171.65 925.579 1169.94 925.872 1168.31 926.285ZM1144.06 364.572 695.946 163.702C700.927 158.953 706.306 150.295 708.238 143.759 709.517 139.423 709.61 134.961 709.055 130.722L1161.88 333.714C1161.74 333.843 1161.6 333.972 1161.46 334.101 1156.41 338.788 1150.88 347.629 1148.91 354.28 1147.18 360.157 1147.75 366.36 1148.91 371.732 1150.03 376.868 1151.62 381.627 1155.46 385.913 1157.79 388.511 1161.41 391.399 1165.31 393.9L708.797 598.552C709.775 593.714 709.313 588.966 708.238 584.432 706.977 579.114 704.479 573.768 700.601 569.163 699.48 567.83 698.179 566.446 696.749 565.084Z" fill="#FFFFFF" transform="matrix(1 0 0 1.00008 868.326 -655.982)"/></g><path d="M637.147 130.69C636.545 135.022 637.021 139.262 637.992 143.35 639.222 148.636 641.257 153.653 645.196 157.81 646.45 159.172 648.005 160.53 649.811 161.91L652.205 163.734 204.15 364.572 645.393 562.357 643.862 564.171C639.49 569.363 635.19 576.563 633.592 581.702 631.857 586.959 632.316 591.531 633.527 596.685L634.355 600.211 177.62 395.459 180.147 393.642C180.989 393.037 181.759 392.41 182.533 391.689 187.432 387.181 192.714 378.745 194.578 372.313 196.28 366.755 195.821 361.118 194.553 355.782 193.349 350.553 190.711 345.343 187.282 341.243 185.422 338.993 183.354 336.914 180.949 335.112L178.52 333.291 637.588 127.497ZM185.397 334.137C187.099 335.649 188.066 336.585 190.041 338.957 193.693 343.393 196.689 349.335 198.043 354.958 198.624 357.452 199.032 360.132 199.154 362.884L645.335 162.888C644.314 162.007 643.956 161.738 642.569 160.247 638.29 155.56 635.824 149.733 634.502 144.171 633.495 139.864 633.23 137.068 633.352 133.324ZM199.147 366.257C199.036 368.618 198.681 371.001 198.018 373.331 195.954 380.2 190.17 389.446 184.97 394.312 184.784 394.484 184.669 394.596 184.598 394.66L629.367 594.047C628.707 589.736 628.367 586.572 630.173 580.619 631.943 575.108 635.609 568.958 639.645 563.708ZM175.015 927.424C169.213 925.683 161.458 925.292 155.979 925.991 150.643 926.654 146.741 927.571 142.727 931.04 142.265 931.431 141.806 931.843 141.319 932.323L138.276 935.283 138.276 391.395 141.05 393.219C144.96 395.792 149.134 397.896 152.628 398.921 157.918 400.551 162.974 400.111 168.07 398.892 170.349 398.355 172.582 397.656 174.804 396.67L177.316 395.56 177.316 928.112ZM173.732 400.949C172.112 401.53 171.302 401.809 168.894 402.383 163.526 403.644 157.545 404.056 151.611 402.354 147.823 401.214 145.185 399.86 141.86 397.928L141.86 926.801C141.86 926.801 139.907 928.729 140.426 928.295 145.142 924.468 149.977 923.142 155.535 922.436 161.329 921.723 167.841 922.085 173.732 923.4ZM642.504 1165.01C639.053 1169.7 636.011 1175.13 634.681 1179.44 632.76 1185.39 633.398 1191.45 634.717 1197.05 634.864 1197.68 635.018 1198.29 635.19 1198.91L636.229 1202.59 178.462 997.383 181.444 995.623C182.336 995.097 183.161 994.513 184.042 993.753 189.443 989.169 197.255 978.433 199.305 971.162 199.724 969.721 199.953 968.363 200.061 966.912L200.251 964.371 643.819 1163.22ZM203.315 969.671C203.168 970.506 203.214 970.517 202.745 972.158 200.43 979.981 192.059 991.585 186.371 996.476 186.181 996.638 186.052 996.749 185.966 996.82L630.707 1196.19C630.707 1196.19 631.381 1198.53 631.227 1197.86 629.869 1192.03 629.263 1185.03 631.263 1178.38 632.735 1173.72 635.273 1169.18 638.34 1164.69ZM655.032 623.296C658.028 624.902 660.917 626.145 663.475 626.891 669.206 628.632 674.667 628.138 680.01 626.865 683.067 626.149 685.995 625.167 688.801 623.662L691.435 622.253 691.435 1159.85 688.629 1157.91C686.873 1156.7 685.084 1155.72 683.049 1154.95 677.222 1152.66 668.238 1152.09 662.103 1152.87 659.354 1153.21 657.036 1153.64 654.799 1154.47L652.395 1155.36 652.395 621.884ZM655.979 1150.36C657.792 1149.89 658.802 1149.67 661.659 1149.32 668.138 1148.52 677.989 1149.2 684.339 1151.6 686.582 1152.48 686.722 1152.62 687.851 1153.24L687.851 628.077C685.547 629.055 684.056 629.589 680.834 630.356 675.226 631.664 668.847 632.137 662.465 630.331 659.705 629.514 658.243 628.858 655.979 627.783ZM1145.65 965.908C1145.82 966.973 1146.04 968.005 1146.3 969.069 1147.51 974.254 1149.56 979.379 1153.5 983.532 1156.76 987.069 1162.01 990.771 1167.24 993.326L1170.68 995.003 701.458 1205.35 703.214 1201.16C703.672 1200.07 704.042 1199.04 704.335 1198.03 706.038 1192.47 705.651 1187.05 704.314 1181.51 703.146 1176.55 700.565 1171.09 697.433 1166.72L696.158 1164.94 1145.27 963.615ZM701.565 1166.45C704.339 1170.79 706.507 1175.37 707.797 1180.68 709.184 1186.52 709.542 1192.86 707.776 1199.05 707.446 1200.16 708.263 1198.37 708.263 1198.37L1162.39 994.792C1157.98 992.237 1154.41 989.75 1150.88 985.969 1146.59 981.278 1144.11 975.344 1142.81 969.893 1142.54 968.786 1142.63 969.144 1142.55 968.761ZM1169.19 394.165C1172.08 395.81 1174.85 397.104 1177.25 397.835 1182.59 399.541 1187.57 399.025 1192.67 397.806 1196.18 396.975 1199.62 395.767 1202.84 393.814L1205.55 392.169 1205.55 934.842 1202.73 932.853C1199.8 930.789 1196.72 929.119 1193.61 928.094 1187.62 926.03 1179.69 926.159 1173.72 927.073 1171.93 927.349 1170.31 927.625 1168.74 928.023L1166.51 928.589 1166.51 395.323 706.317 601.626 707.041 598.197C708.005 593.624 707.55 589.259 706.493 584.844 705.292 579.698 702.981 574.724 699.229 570.317 698.143 569.019 696.907 567.708 695.513 566.382L693.577 564.543 1139.68 364.572 692.768 164.239 694.71 162.404C699.548 157.832 704.687 149.568 706.518 143.25 707.761 139.151 707.826 135.058 707.278 130.955L706.855 127.773 1165.13 333.205 1163.08 335.047C1162.94 335.165 1162.82 335.284 1162.68 335.413 1157.78 339.921 1152.49 348.357 1150.63 354.785 1148.93 360.329 1149.51 366.088 1150.67 371.352 1151.75 376.395 1153.14 380.745 1156.79 384.716 1159.01 387.213 1162.46 389.944 1166.27 392.392L1167.76 393.348ZM1170.1 924.056C1171.11 923.862 1171.36 923.808 1173.19 923.532 1179.39 922.597 1188.17 922.54 1194.75 924.697 1198.14 925.844 1199.62 926.697 1201.97 928.098L1201.97 398.337C1199.19 399.663 1197.2 400.408 1193.51 401.29 1188.15 402.551 1182.23 403.038 1176.2 401.261 1173.57 400.444 1172.24 399.792 1170.1 398.713ZM1146.08 363.515C1145.99 360.297 1146.28 356.979 1147.19 353.775 1149.26 346.902 1158.64 334.223 1158.64 334.223L711.108 133.607C711.273 137.097 711.273 139.695 709.958 144.268 707.926 151.023 703.576 157.982 698.999 163.107ZM1146.19 365.579 699.856 565.654C700.616 566.45 700.816 566.64 701.97 568.009 705.977 572.811 708.661 578.527 709.983 584.02 711.076 588.672 711.313 591.61 711.001 595.599L1161.64 393.578C1158.69 391.471 1156.56 389.808 1154.13 387.109 1150.1 382.508 1148.31 377.341 1147.16 372.112 1146.72 370.069 1146.37 367.866 1146.19 365.579Z" fill="#FFFFFF" transform="matrix(1 0 0 1.00008 868.326 -655.982)"/><path d="M671.915 201.451C673.176 201.44 674.524 201.555 675.778 201.792 677.003 202.035 678.283 202.404 679.465 202.881 680.644 203.358 681.827 203.981 682.88 204.666 683.952 205.368 684.998 206.221 685.891 207.102 686.787 207.991 687.661 209.03 688.374 210.07 689.073 211.116 689.718 212.299 690.22 213.474 690.696 214.628 691.098 215.914 691.356 217.147 691.607 218.391 691.75 219.727 691.757 220.996 691.768 222.268 691.639 223.601 691.402 224.834 691.159 226.081 690.768 227.382 690.309 228.547 689.822 229.718 689.18 230.912 688.5 231.973 687.794 233.019 686.951 234.055 686.066 234.958 685.167 235.854 684.138 236.703 683.088 237.412 682.045 238.118 680.856 238.76 679.698 239.247 678.516 239.742 677.233 240.129 676.011 240.383 674.764 240.638 673.427 240.767 672.169 240.774 670.901 240.781 669.553 240.652 668.31 240.401 667.062 240.157 665.78 239.77 664.615 239.294 663.447 238.806 662.257 238.179 661.196 237.473 660.139 236.771 659.096 235.907 658.2 235.029 657.322 234.133 656.477 233.109 655.763 232.055 655.061 230.998 654.423 229.808 653.929 228.643 653.452 227.472 653.065 226.189 652.803 224.949 652.571 223.712 652.442 222.386 652.434 221.125 652.427 219.853 652.556 218.523 652.793 217.301 653.036 216.069 653.423 214.775 653.886 213.621 654.373 212.446 655.004 211.263 655.692 210.213 656.38 209.185 657.222 208.138 658.111 207.239 658.996 206.361 660.017 205.504 661.074 204.787 662.106 204.107 663.275 203.465 664.436 202.978 665.608 202.48 666.894 202.093 668.12 201.835 669.342 201.598 671.592 201.483 671.592 201.483 671.667 201.473 672.205 205.013 672.28 205.002 672.28 205.002 669.894 205.139 668.815 205.35 667.751 205.569 666.822 205.848 665.837 206.275 664.848 206.683 663.963 207.163 663.063 207.769 662.164 208.367 661.415 208.998 660.648 209.772 659.885 210.525 659.272 211.295 658.673 212.198 658.075 213.105 657.609 213.972 657.201 214.983 656.796 215.983 656.512 216.929 656.308 217.989 656.097 219.036 656 220.018 656.018 221.096 656.014 222.186 656.108 223.189 656.319 224.25 656.538 225.329 656.821 226.264 657.24 227.274 657.666 228.289 658.129 229.156 658.738 230.059 659.344 230.966 659.971 231.722 660.745 232.506 661.522 233.277 662.275 233.9 663.178 234.488 664.074 235.097 664.966 235.567 665.98 235.979 666.973 236.395 667.926 236.681 668.998 236.886 670.051 237.108 671.058 237.208 672.137 237.19 673.23 237.194 674.23 237.101 675.283 236.875 676.355 236.656 677.308 236.373 678.308 235.943 679.304 235.535 680.189 235.058 681.074 234.449 681.985 233.843 682.751 233.209 683.529 232.428 684.296 231.654 684.905 230.901 685.514 229.987 686.116 229.063 686.579 228.203 686.987 227.196 687.396 226.181 687.682 225.228 687.883 224.153 688.095 223.089 688.191 222.107 688.173 221.028 688.181 219.95 688.073 218.946 687.847 217.868 687.632 216.807 687.331 215.85 686.912 214.85 686.489 213.84 686.016 212.976 685.4 212.066 684.798 211.173 684.16 210.421 683.375 209.658 682.619 208.891 681.845 208.26 680.927 207.672 680.024 207.07 679.139 206.604 678.132 206.21 677.132 205.794 676.165 205.515 675.093 205.311 674.025 205.099 673.047 205.017 671.958 205.035Z" fill="#FFFFFF" transform="matrix(1 0 0 1.00008 868.326 -655.982)"/><g clip-path="url(#clip4)"><path d="M482.791 800.189C482.286 799.125 481.895 798.021 481.616 796.885 481.318 795.738 481.153 794.588 481.096 793.412 481.039 792.237 481.11 791.062 481.279 789.901 481.462 788.74 481.741 787.604 482.146 786.5 482.537 785.392 483.042 784.342 483.658 783.335 484.26 782.328 484.959 781.39 485.758 780.522 486.543 779.652 487.41 778.87 488.36 778.168 489.313 777.469 490.32 776.881 491.385 776.376 492.449 775.889 493.556 775.495 494.689 775.215 495.835 774.936 497 774.767 498.175 774.713 499.336 774.67 500.512 774.728 501.673 774.907 502.834 775.09 503.97 775.369 505.074 775.774 506.181 776.183 507.231 776.684 508.238 777.301 509.245 777.903 510.17 778.616 511.037 779.415 511.908 780.2 512.689 781.081 513.377 782.035 514.076 782.97 514.664 783.981 515.169 785.056 515.66 786.12 516.05 787.227 516.316 788.36 516.595 789.506 516.763 790.671 516.806 791.846 516.86 793.022 516.792 794.183 516.609 795.344 516.427 796.509 516.133 797.641 515.728 798.748 515.323 799.852 514.803 800.902 514.201 801.898 513.585 802.905 512.872 803.841 512.076 804.697 511.277 805.564 510.41 806.349 509.457 807.034 508.503 807.722 507.496 808.32 506.418 808.811 505.368 809.302 504.264 809.678 503.128 809.962 501.996 810.241 500.849 810.409 499.688 810.449 498.509 810.506 497.348 810.435 496.201 810.266 495.04 810.087 493.918 809.793 492.814 809.399 491.721 808.994 490.671 808.489 489.679 807.887 488.683 807.285 487.744 806.586 486.891 805.787 486.023 805.005 485.253 804.138 484.554 803.199 483.866 802.246 483.278 801.253 482.791 800.189" fill="#FFFFFF" transform="matrix(1 0 0 1.00008 868.326 -655.982)"/></g><g clip-path="url(#clip5)"><path d="M566.221 761.805C566.726 762.87 567.116 763.977 567.396 765.109 567.675 766.256 567.844 767.406 567.901 768.582 567.955 769.757 567.901 770.933 567.733 772.094 567.55 773.255 567.271 774.391 566.866 775.495 566.471 776.602 565.97 777.652 565.353 778.659 564.751 779.666 564.049 780.605 563.253 781.472 562.469 782.339 561.587 783.124 560.648 783.826 559.698 784.525 558.688 785.127 557.623 785.618 556.563 786.12 555.455 786.514 554.323 786.794 553.173 787.073 552.012 787.242 550.836 787.281 549.661 787.338 548.5 787.27 547.335 787.102 546.174 786.919 545.042 786.625 543.934 786.22 542.83 785.826 541.78 785.31 540.77 784.708 539.763 784.092 538.824 783.389 537.957 782.594 537.104 781.795 536.319 780.927 535.62 779.974 534.932 779.024 534.33 778.014 533.843 776.953 533.352 775.889 532.961 774.781 532.682 773.635 532.399 772.499 532.245 771.338 532.191 770.162 532.148 768.987 532.219 767.826 532.399 766.665 532.581 765.5 532.875 764.368 533.28 763.26 533.689 762.156 534.19 761.107 534.807 760.096 535.423 759.103 536.122 758.164 536.921 757.297 537.72 756.43 538.602 755.659 539.551 754.975 540.505 754.273 541.512 753.685 542.576 753.198 543.64 752.707 544.733 752.316 545.866 752.033 547.002 751.768 548.163 751.599 549.324 751.545 550.485 751.503 551.65 751.56 552.811 751.739 553.957 751.922 555.09 752.201 556.183 752.61 557.276 753 558.326 753.506 559.319 754.122 560.326 754.721 561.25 755.423 562.117 756.208 562.974 756.989 563.755 757.856 564.443 758.809 565.128 759.748 565.715 760.741 566.221 761.805Z" fill="#FFFFFF" transform="matrix(1 0 0 1.00008 868.326 -655.982)"/></g><g clip-path="url(#clip6)"><path d="M617.229 738.329C617.734 739.394 618.125 740.501 618.405 741.648 618.688 742.78 618.853 743.945 618.91 745.12 618.967 746.296 618.91 747.457 618.742 748.618 618.559 749.782 618.279 750.915 617.874 752.022 617.484 753.126 616.978 754.19 616.362 755.197 615.76 756.208 615.061 757.143 614.262 758.01 613.477 758.881 612.596 759.662 611.66 760.35 610.707 761.049 609.7 761.651 608.636 762.156 607.571 762.644 606.464 763.038 605.332 763.318 604.185 763.597 603.02 763.766 601.845 763.823 600.669 763.862 599.508 763.809 598.347 763.626 597.186 763.443 596.05 763.164 594.947 762.759 593.839 762.35 592.789 761.848 591.782 761.232 590.772 760.63 589.836 759.917 588.969 759.132 588.113 758.333 587.331 757.451 586.629 756.512 585.945 755.563 585.342 754.556 584.852 753.491 584.361 752.413 583.97 751.305 583.69 750.173 583.411 749.026 583.257 747.862 583.2 746.686 583.156 745.525 583.228 744.35 583.411 743.189 583.594 742.024 583.888 740.892 584.292 739.788 584.697 738.68 585.203 737.63 585.819 736.638 586.435 735.627 587.134 734.692 587.93 733.835 588.729 732.968 589.611 732.183 590.564 731.499 591.513 730.815 592.524 730.212 593.588 729.721 594.653 729.231 595.742 728.854 596.878 728.575 598.01 728.292 599.172 728.127 600.333 728.084 601.497 728.026 602.658 728.098 603.819 728.267 604.966 728.446 606.088 728.74 607.195 729.134 608.285 729.539 609.335 730.044 610.327 730.646 611.338 731.248 612.262 731.947 613.13 732.732 613.982 733.527 614.767 734.398 615.452 735.333 616.14 736.272 616.728 737.279 617.229 738.329Z" fill="#FFFFFF" transform="matrix(1 0 0 1.00008 868.326 -655.982)"/></g><g clip-path="url(#clip7)"><path d="M229.306 917.186C228.819 916.125 228.425 915.018 228.131 913.871 227.851 912.735 227.683 911.574 227.629 910.399 227.572 909.223 227.629 908.062 227.808 906.897 227.977 905.736 228.271 904.604 228.665 903.497 229.07 902.393 229.572 901.329 230.174 900.318 230.79 899.311 231.492 898.372 232.274 897.505 233.073 896.638 233.94 895.867 234.893 895.168 235.843 894.47 236.839 893.868 237.918 893.377 238.978 892.871 240.071 892.481 241.218 892.201 242.368 891.922 243.515 891.753 244.691 891.71 245.866 891.653 247.041 891.725 248.206 891.893 249.367 892.076 250.5 892.37 251.607 892.775 252.714 893.18 253.761 893.685 254.771 894.287 255.764 894.903 256.703 895.602 257.57 896.401 258.437 897.197 259.222 898.064 259.907 899.017 260.609 899.97 261.197 900.977 261.698 902.042 262.189 903.106 262.569 904.21 262.849 905.36 263.128 906.492 263.297 907.654 263.336 908.829 263.379 910.008 263.322 911.183 263.143 912.33 262.96 913.491 262.666 914.627 262.261 915.731 261.852 916.838 261.336 917.888 260.72 918.895 260.104 919.902 259.405 920.827 258.606 921.694 257.807 922.561 256.925 923.332 255.975 924.02 255.022 924.719 254.015 925.306 252.951 925.797 251.886 926.285 250.794 926.679 249.661 926.958 248.529 927.238 247.378 927.392 246.203 927.449 245.042 927.489 243.881 927.435 242.73 927.252 241.569 927.069 240.451 926.79 239.344 926.385 238.251 925.991 237.201 925.489 236.208 924.873 235.201 924.271 234.277 923.572 233.41 922.787 232.557 921.988 231.786 921.121 231.084 920.182 230.399 919.246 229.812 918.236 229.306 917.186" fill="#FFFFFF" transform="matrix(1 0 0 1.00008 868.326 -655.982)"/></g><g clip-path="url(#clip8)"><path d="M312.738 878.791C313.242 879.852 313.633 880.959 313.928 882.106 314.208 883.242 314.376 884.403 314.431 885.579 314.487 886.754 314.431 887.915 314.249 889.08 314.081 890.241 313.788 891.373 313.395 892.481 312.989 893.584 312.486 894.649 311.884 895.659 311.282 896.666 310.582 897.605 309.784 898.472 308.986 899.34 308.118 900.124 307.18 900.823 306.228 901.508 305.221 902.11 304.157 902.615 303.093 903.106 301.987 903.497 300.839 903.776 299.705 904.056 298.543 904.224 297.368 904.281 296.191 904.324 295.03 904.267 293.868 904.084 292.706 903.902 291.572 903.622 290.466 903.217 289.36 902.812 288.296 902.307 287.303 901.69 286.295 901.088 285.357 900.375 284.489 899.591 283.621 898.795 282.851 897.91 282.151 896.974 281.451 896.021 280.863 895.014 280.373 893.95 279.87 892.871 279.492 891.782 279.212 890.632 278.931 889.485 278.778 888.324 278.721 887.159 278.68 885.984 278.735 884.808 278.917 883.647 279.113 882.486 279.408 881.35 279.813 880.246 280.219 879.153 280.723 878.089 281.339 877.096 281.955 876.089 282.655 875.15 283.453 874.298 284.251 873.427 285.133 872.646 286.085 871.958 287.037 871.273 288.044 870.685 289.108 870.18 290.172 869.693 291.264 869.313 292.398 869.033 293.532 868.754 294.68 868.585 295.856 868.542 297.017 868.489 298.179 868.557 299.327 868.725 300.489 868.908 301.609 869.202 302.715 869.592 303.807 869.997 304.857 870.503 305.851 871.105 306.858 871.707 307.782 872.405 308.636 873.205 309.504 873.989 310.274 874.857 310.974 875.796 311.66 876.731 312.248 877.741 312.738 878.791Z" fill="#FFFFFF" transform="matrix(1 0 0 1.00008 868.326 -655.982)"/></g><g clip-path="url(#clip9)"><path d="M363.748 855.33C364.253 856.394 364.644 857.498 364.938 858.634 365.217 859.78 365.386 860.927 365.443 862.103 365.497 863.278 365.443 864.457 365.26 865.618 365.092 866.779 364.798 867.912 364.407 869.019 363.999 870.126 363.497 871.176 362.895 872.183 362.293 873.19 361.591 874.129 360.795 874.996 359.996 875.864 359.129 876.648 358.176 877.347 357.238 878.05 356.23 878.637 355.167 879.139 354.103 879.644 352.997 880.021 351.849 880.314 350.715 880.594 349.553 880.748 348.377 880.805 347.202 880.863 346.04 880.791 344.878 880.623 343.716 880.443 342.582 880.146 341.476 879.741 340.371 879.35 339.307 878.831 338.312 878.229 337.305 877.612 336.367 876.914 335.499 876.114 334.631 875.319 333.861 874.452 333.161 873.498 332.461 872.545 331.874 871.538 331.384 870.474 330.879 869.41 330.502 868.306 330.221 867.155 329.942 866.023 329.788 864.862 329.732 863.687 329.69 862.511 329.746 861.346 329.928 860.185 330.124 859.024 330.418 857.892 330.824 856.785 331.23 855.677 331.733 854.627 332.349 853.62 332.965 852.613 333.665 851.689 334.463 850.822 335.261 849.954 336.143 849.184 337.095 848.485 338.047 847.797 339.055 847.209 340.119 846.718 341.182 846.231 342.274 845.837 343.408 845.557 344.542 845.278 345.69 845.124 346.866 845.066 348.028 845.013 349.189 845.081 350.337 845.263 351.499 845.432 352.619 845.726 353.725 846.131 354.817 846.525 355.867 847.027 356.86 847.629 357.854 848.245 358.792 848.944 359.645 849.729 360.516 850.513 361.283 851.381 361.985 852.319 362.669 853.269 363.257 854.265 363.748 855.33Z" fill="#FFFFFF" transform="matrix(1 0 0 1.00008 868.326 -655.982)"/></g><g clip-path="url(#clip10)"><path d="M414.742 831.868C415.248 832.932 415.638 834.036 415.918 835.172 416.215 836.319 416.38 837.466 416.437 838.641 416.495 839.82 416.423 840.995 416.255 842.156 416.072 843.318 415.792 844.453 415.387 845.557 414.997 846.665 414.492 847.715 413.89 848.722 413.273 849.729 412.574 850.667 411.79 851.535 410.994 852.402 410.123 853.187 409.174 853.885 408.22 854.588 407.228 855.176 406.149 855.677 405.085 856.183 403.992 856.573 402.845 856.853 401.698 857.136 400.548 857.29 399.372 857.344 398.197 857.401 397.022 857.329 395.861 857.161 394.699 856.982 393.563 856.688 392.46 856.279 391.352 855.889 390.302 855.369 389.295 854.767 388.288 854.154 387.364 853.452 386.497 852.656 385.626 851.857 384.845 850.99 384.157 850.037 383.458 849.087 382.87 848.077 382.365 847.012 381.874 845.948 381.483 844.844 381.218 843.697 380.939 842.561 380.77 841.4 380.727 840.225 380.673 839.049 380.741 837.885 380.924 836.724 381.107 835.563 381.401 834.43 381.806 833.323 382.211 832.216 382.73 831.169 383.332 830.159 383.949 829.152 384.662 828.227 385.457 827.36 386.257 826.493 387.124 825.722 388.077 825.038 389.03 824.335 390.037 823.748 391.116 823.257 392.166 822.769 393.27 822.375 394.406 822.096 395.538 821.83 396.685 821.662 397.849 821.608 399.025 821.565 400.172 821.619 401.333 821.802 402.479 821.984 403.615 822.264 404.708 822.669 405.812 823.063 406.848 823.565 407.855 824.181 408.851 824.783 409.776 825.486 410.643 826.267 411.496 827.052 412.281 827.919 412.965 828.872 413.653 829.811 414.255 830.804 414.742 831.868Z" fill="#FFFFFF" transform="matrix(1 0 0 1.00008 868.326 -655.982)"/></g><g clip-path="url(#clip11)"><path d="M465.726 808.406C466.231 809.471 466.622 810.574 466.901 811.71 467.195 812.857 467.364 814.018 467.421 815.194 467.475 816.358 467.421 817.534 467.238 818.695 467.07 819.856 466.776 820.992 466.371 822.096 465.977 823.203 465.475 824.267 464.873 825.274 464.257 826.267 463.554 827.206 462.773 828.087 461.974 828.955 461.107 829.725 460.154 830.424 459.218 831.126 458.208 831.728 457.143 832.216 456.068 832.721 454.975 833.111 453.829 833.395 452.693 833.674 451.531 833.843 450.356 833.882 449.181 833.939 448.005 833.882 446.841 833.703 445.68 833.52 444.547 833.226 443.44 832.832 442.35 832.427 441.286 831.922 440.275 831.309 439.283 830.693 438.344 829.99 437.477 829.195 436.609 828.41 435.825 827.528 435.14 826.575 434.438 825.64 433.85 824.629 433.348 823.55 432.857 822.49 432.467 821.382 432.198 820.25 431.919 819.1 431.75 817.939 431.711 816.763 431.653 815.588 431.725 814.427 431.904 813.262 432.087 812.101 432.381 810.969 432.789 809.861 433.194 808.757 433.71 807.707 434.327 806.697 434.929 805.704 435.642 804.765 436.441 803.898 437.24 803.045 438.107 802.26 439.061 801.576 440.01 800.874 441.017 800.286 442.096 799.798 443.146 799.307 444.253 798.917 445.386 798.648 446.522 798.369 447.668 798.2 448.829 798.146 450.005 798.103 451.166 798.161 452.316 798.34 453.477 798.523 454.595 798.802 455.688 799.211 456.796 799.601 457.846 800.107 458.838 800.719 459.831 801.321 460.77 802.024 461.623 802.805 462.494 803.604 463.261 804.457 463.949 805.41 464.647 806.349 465.235 807.356 465.726 808.406Z" fill="#FFFFFF" transform="matrix(1 0 0 1.00008 868.326 -655.982)"/></g><g clip-path="url(#clip12)"><path d="M854.685 798.34C854.208 799.419 853.635 800.44 852.965 801.407 852.291 802.371 851.535 803.267 850.682 804.081 849.84 804.891 848.919 805.622 847.922 806.249 846.944 806.88 845.894 807.414 844.801 807.847 843.712 808.266 842.576 808.589 841.415 808.797 840.268 808.994 839.089 809.091 837.914 809.066 836.738 809.037 835.577 808.897 834.43 808.643 833.28 808.392 832.176 808.026 831.097 807.553 830.019 807.077 828.997 806.503 828.044 805.83 827.08 805.145 826.184 804.389 825.371 803.536 824.561 802.694 823.848 801.769 823.217 800.777 822.586 799.784 822.056 798.734 821.633 797.641 821.2 796.548 820.891 795.416 820.698 794.255 820.487 793.104 820.404 791.929 820.429 790.754 820.458 789.578 820.612 788.417 820.863 787.27 821.117 786.12 821.494 785.016 821.97 783.938 822.447 782.859 823.02 781.852 823.694 780.884 824.378 779.92 825.149 779.039 826.002 778.225 826.84 777.426 827.765 776.699 828.761 776.068 829.768 775.455 830.804 774.921 831.911 774.502 833 774.083 834.136 773.774 835.297 773.577 836.444 773.38 837.62 773.298 838.795 773.327 839.974 773.355 841.135 773.509 842.268 773.774 843.414 774.025 844.536 774.405 845.6 774.878 846.679 775.355 847.686 775.928 848.636 776.602 849.603 777.272 850.47 778.028 851.284 778.87 852.094 779.723 852.81 780.633 853.438 781.612 854.054 782.608 854.588 783.644 855.007 784.733 855.426 785.826 855.735 786.948 855.932 788.094 856.14 789.241 856.226 790.402 856.197 791.567 856.168 792.742 856.029 793.889 855.778 795.036 855.509 796.172 855.147 797.276 854.685 798.34" fill="#FFFFFF" transform="matrix(1 0 0 1.00008 868.326 -655.982)"/></g><g clip-path="url(#clip13)"><path d="M770.861 760.813C771.323 759.734 771.897 758.713 772.57 757.745 773.241 756.781 774.011 755.9 774.853 755.086 775.706 754.262 776.616 753.545 777.609 752.904 778.605 752.273 779.641 751.739 780.745 751.32 781.838 750.886 782.956 750.564 784.12 750.37 785.281 750.159 786.442 750.062 787.618 750.087 788.793 750.116 789.958 750.255 791.105 750.51 792.251 750.761 793.373 751.126 794.437 751.599 795.513 752.076 796.534 752.649 797.501 753.323 798.465 753.993 799.351 754.764 800.16 755.616 800.974 756.459 801.701 757.383 802.332 758.376 802.959 759.368 803.493 760.419 803.912 761.511 804.332 762.604 804.654 763.737 804.851 764.898 805.045 766.048 805.145 767.224 805.117 768.399 805.074 769.575 804.934 770.736 804.683 771.886 804.418 773.033 804.052 774.136 803.576 775.215 803.099 776.294 802.526 777.301 801.841 778.268 801.167 779.218 800.401 780.114 799.544 780.927 798.691 781.727 797.767 782.454 796.774 783.085 795.778 783.697 794.742 784.231 793.638 784.651 792.545 785.07 791.413 785.378 790.252 785.575 789.087 785.772 787.926 785.855 786.751 785.826 785.575 785.797 784.414 785.643 783.264 785.392 782.117 785.127 781.01 784.747 779.935 784.274 778.87 783.798 777.86 783.224 776.91 782.551 775.943 781.895 775.061 781.124 774.265 780.282 773.452 779.444 772.739 778.519 772.108 777.541 771.492 776.545 770.961 775.509 770.542 774.42 770.119 773.341 769.811 772.219 769.603 771.058 769.406 769.911 769.324 768.75 769.352 767.586 769.377 766.425 769.517 765.263 769.772 764.127 770.022 762.981 770.388 761.888 770.861 760.813Z" fill="#FFFFFF" transform="matrix(1 0 0 1.00008 868.326 -655.982)"/></g><g clip-path="url(#clip14)"><path d="M719.616 737.867C720.089 736.792 720.651 735.767 721.322 734.803 721.995 733.835 722.766 732.94 723.604 732.13 724.457 731.316 725.367 730.589 726.36 729.958 727.356 729.331 728.392 728.797 729.496 728.363 730.589 727.944 731.71 727.622 732.871 727.41 734.033 727.217 735.194 727.116 736.369 727.145 737.544 727.174 738.709 727.313 739.856 727.564 741.003 727.819 742.124 728.181 743.189 728.657 744.267 729.134 745.289 729.707 746.253 730.377 747.22 731.051 748.102 731.821 748.912 732.66 749.725 733.517 750.453 734.438 751.083 735.434 751.714 736.426 752.244 737.462 752.664 738.569 753.083 739.659 753.405 740.795 753.602 741.942 753.8 743.103 753.896 744.267 753.868 745.443 753.839 746.618 753.685 747.779 753.434 748.926 753.183 750.076 752.803 751.194 752.33 752.259 751.854 753.337 751.28 754.359 750.592 755.323 749.922 756.276 749.152 757.157 748.295 757.971 747.442 758.781 746.518 759.497 745.525 760.125 744.532 760.755 743.497 761.289 742.389 761.709 741.296 762.128 740.164 762.436 739.003 762.63 737.853 762.827 736.677 762.913 735.502 762.884 734.326 762.841 733.165 762.701 732.019 762.436 730.868 762.185 729.765 761.805 728.686 761.329 727.622 760.852 726.615 760.279 725.661 759.609 724.697 758.935 723.812 758.179 723.017 757.34 722.203 756.487 721.49 755.577 720.859 754.595 720.243 753.602 719.713 752.567 719.293 751.474 718.874 750.384 718.566 749.263 718.354 748.116 718.157 746.966 718.075 745.805 718.104 744.644 718.132 743.468 718.272 742.321 718.523 741.185 718.774 740.039 719.139 738.931 719.616 737.867Z" fill="#FFFFFF" transform="matrix(1 0 0 1.00008 868.326 -655.982)"/></g><g clip-path="url(#clip15)"><path d="M1109.61 912.133C1109.13 913.212 1108.57 914.233 1107.9 915.201 1107.23 916.165 1106.46 917.046 1105.62 917.874 1104.77 918.684 1103.85 919.411 1102.86 920.042 1101.87 920.673 1100.83 921.203 1099.73 921.626 1098.63 922.06 1097.52 922.382 1096.35 922.576 1095.19 922.787 1094.03 922.87 1092.85 922.855 1091.68 922.83 1090.52 922.69 1089.37 922.436 1088.22 922.171 1087.1 921.805 1086.02 921.346 1084.96 920.87 1083.94 920.296 1082.97 919.608 1082.01 918.938 1081.12 918.182 1080.31 917.326 1079.5 916.473 1078.77 915.548 1078.14 914.57 1077.51 913.577 1076.99 912.527 1076.56 911.434 1076.14 910.327 1075.83 909.209 1075.62 908.048 1075.43 906.883 1075.34 905.722 1075.37 904.547 1075.4 903.371 1075.54 902.21 1075.79 901.06 1076.05 899.913 1076.42 898.806 1076.9 897.731 1077.37 896.652 1077.96 895.631 1078.63 894.677 1079.3 893.713 1080.07 892.832 1080.93 892.018 1081.78 891.205 1082.7 890.492 1083.7 889.861 1084.69 889.234 1085.74 888.714 1086.83 888.295 1087.94 887.876 1089.06 887.568 1090.22 887.37 1091.38 887.159 1092.54 887.091 1093.72 887.12 1094.9 887.148 1096.06 887.302 1097.21 887.553 1098.35 887.818 1099.46 888.184 1100.54 888.671 1101.6 889.148 1102.61 889.707 1103.58 890.381 1104.53 891.051 1105.41 891.821 1106.22 892.663 1107.02 893.502 1107.73 894.427 1108.36 895.405 1108.99 896.401 1109.51 897.437 1109.93 898.526 1110.35 899.605 1110.67 900.727 1110.87 901.888 1111.06 903.034 1111.15 904.195 1111.12 905.36 1111.09 906.535 1110.95 907.682 1110.7 908.815 1110.45 909.965 1110.09 911.069 1109.61 912.133" fill="#FFFFFF" transform="matrix(1 0 0 1.00008 868.326 -655.982)"/></g><g clip-path="url(#clip16)"><path d="M1025.79 874.606C1026.26 873.527 1026.84 872.506 1027.51 871.538 1028.18 870.574 1028.94 869.678 1029.79 868.865 1030.63 868.051 1031.55 867.324 1032.55 866.697 1033.53 866.066 1034.58 865.532 1035.67 865.099 1036.76 864.679 1037.9 864.357 1039.04 864.149 1040.21 863.952 1041.38 863.855 1042.56 863.88 1043.73 863.909 1044.89 864.049 1046.04 864.303 1047.19 864.554 1048.29 864.916 1049.37 865.392 1050.45 865.869 1051.47 866.442 1052.43 867.116 1053.39 867.786 1054.29 868.557 1055.1 869.395 1055.91 870.252 1056.63 871.176 1057.25 872.169 1057.88 873.162 1058.42 874.197 1058.84 875.305 1059.27 876.398 1059.58 877.53 1059.77 878.677 1059.98 879.841 1060.07 881.002 1060.04 882.178 1060.01 883.353 1059.87 884.514 1059.61 885.665 1059.35 886.811 1058.99 887.93 1058.52 888.994 1058.04 890.073 1057.45 891.094 1056.78 892.061 1056.09 893.011 1055.34 893.893 1054.48 894.706 1053.63 895.52 1052.71 896.233 1051.71 896.863 1050.72 897.491 1049.67 898.024 1048.57 898.444 1047.47 898.863 1046.35 899.171 1045.19 899.368 1044.03 899.562 1042.87 899.648 1041.69 899.619 1040.51 899.576 1039.35 899.436 1038.2 899.171 1037.06 898.92 1035.95 898.541 1034.87 898.064 1033.81 897.591 1032.79 897.014 1031.84 896.344 1030.88 895.674 1030 894.918 1029.19 894.075 1028.39 893.222 1027.67 892.312 1027.05 891.334 1026.42 890.338 1025.9 889.302 1025.48 888.209 1025.04 887.12 1024.74 885.998 1024.54 884.851 1024.35 883.705 1024.25 882.54 1024.27 881.379 1024.3 880.203 1024.44 879.057 1024.71 877.921 1024.96 876.774 1025.32 875.667 1025.79 874.606Z" fill="#FFFFFF" transform="matrix(1 0 0 1.00008 868.326 -655.982)"/></g><g clip-path="url(#clip17)"><path d="M974.538 851.66C975.014 850.581 975.588 849.56 976.261 848.596 976.931 847.629 977.688 846.733 978.54 845.923 979.383 845.109 980.307 844.382 981.3 843.751 982.278 843.11 983.328 842.59 984.421 842.156 985.514 841.723 986.647 841.415 987.808 841.203 988.958 840.995 990.133 840.909 991.309 840.938 992.484 840.952 993.645 841.092 994.796 841.357 995.942 841.612 997.05 841.974 998.125 842.45 999.203 842.913 1000.22 843.486 1001.18 844.17 1002.14 844.844 1003.04 845.6 1003.85 846.453 1004.66 847.306 1005.38 848.231 1006.01 849.227 1006.64 850.205 1007.17 851.255 1007.59 852.348 1008.02 853.452 1008.33 854.574 1008.54 855.735 1008.74 856.896 1008.82 858.057 1008.79 859.236 1008.76 860.411 1008.62 861.572 1008.36 862.719 1008.11 863.866 1007.74 864.973 1007.27 866.052 1006.79 867.13 1006.2 868.152 1005.53 869.101 1004.84 870.069 1004.09 870.951 1003.23 871.764 1002.38 872.574 1001.46 873.287 1000.46 873.918 999.469 874.548 998.419 875.068 997.329 875.487 996.222 875.907 995.104 876.229 993.939 876.423 992.778 876.62 991.617 876.706 990.442 876.663 989.266 876.634 988.102 876.494 986.955 876.229 985.808 875.964 984.701 875.598 983.622 875.107 982.561 874.645 981.536 874.072 980.587 873.402 979.633 872.728 978.752 871.972 977.942 871.119 977.143 870.28 976.43 869.37 975.799 868.374 975.168 867.396 974.652 866.36 974.229 865.267 973.81 864.174 973.488 863.056 973.294 861.909 973.097 860.759 973 859.598 973.025 858.422 973.054 857.261 973.194 856.111 973.462 854.964 973.713 853.832 974.075 852.724 974.538 851.66Z" fill="#FFFFFF" transform="matrix(1 0 0 1.00008 868.326 -655.982)"/></g><g clip-path="url(#clip18)"><path d="M923.317 828.718C923.794 827.639 924.353 826.618 925.027 825.65 925.697 824.686 926.467 823.805 927.31 822.977 928.162 822.167 929.073 821.44 930.065 820.809 931.058 820.178 932.097 819.648 933.201 819.214 934.294 818.791 935.412 818.473 936.577 818.261 937.738 818.064 938.899 817.967 940.074 817.996 941.25 818.025 942.411 818.164 943.561 818.415 944.708 818.666 945.829 819.032 946.89 819.508 947.969 819.981 948.99 820.558 949.958 821.228 950.922 821.902 951.807 822.669 952.617 823.511 953.43 824.364 954.158 825.289 954.788 826.281 955.416 827.277 955.95 828.313 956.369 829.417 956.788 830.51 957.111 831.642 957.308 832.793 957.501 833.954 957.602 835.129 957.573 836.29 957.544 837.466 957.39 838.63 957.139 839.777 956.874 840.924 956.509 842.045 956.032 843.12 955.555 844.185 954.982 845.206 954.297 846.174 953.624 847.127 952.857 848.023 952 848.818 951.148 849.632 950.223 850.359 949.23 850.976 948.234 851.606 947.198 852.137 946.095 852.556 945.002 852.975 943.869 853.283 942.705 853.481 941.544 853.678 940.382 853.76 939.207 853.731 938.032 853.692 936.87 853.552 935.72 853.283 934.573 853.033 933.466 852.656 932.391 852.18 931.327 851.703 930.316 851.13 929.367 850.456 928.399 849.786 927.532 849.03 926.722 848.191 925.908 847.335 925.195 846.424 924.579 845.432 923.948 844.453 923.418 843.414 922.995 842.325 922.576 841.232 922.267 840.114 922.074 838.964 921.862 837.817 921.78 836.656 921.805 835.495 921.834 834.316 921.974 833.169 922.228 832.036 922.479 830.886 922.844 829.782 923.317 828.718Z" fill="#FFFFFF" transform="matrix(1 0 0 1.00008 868.326 -655.982)"/></g><g clip-path="url(#clip19)"><path d="M872.097 805.787C872.56 804.712 873.133 803.69 873.807 802.723 874.477 801.755 875.247 800.859 876.089 800.049 876.942 799.236 877.852 798.508 878.845 797.878 879.841 797.236 880.877 796.702 881.981 796.283 883.074 795.849 884.192 795.541 885.357 795.333 886.518 795.122 887.679 795.036 888.854 795.065 890.03 795.079 891.194 795.219 892.341 795.473 893.488 795.738 894.609 796.1 895.674 796.562 896.749 797.039 897.77 797.612 898.738 798.301 899.702 798.971 900.587 799.727 901.397 800.58 902.21 801.436 902.938 802.357 903.568 803.339 904.195 804.332 904.729 805.382 905.149 806.475 905.568 807.578 905.89 808.7 906.088 809.861 906.281 811.022 906.381 812.187 906.353 813.362 906.31 814.538 906.17 815.699 905.919 816.846 905.654 817.996 905.288 819.1 904.812 820.178 904.335 821.257 903.762 822.278 903.077 823.232 902.404 824.195 901.637 825.077 900.78 825.891 899.927 826.7 899.003 827.417 898.01 828.044 897.014 828.675 895.978 829.195 894.875 829.614 893.782 830.033 892.649 830.341 891.488 830.553 890.323 830.746 889.162 830.832 887.987 830.789 886.811 830.761 885.65 830.621 884.5 830.356 883.353 830.09 882.246 829.725 881.171 829.234 880.107 828.775 879.096 828.198 878.146 827.528 877.179 826.854 876.297 826.098 875.502 825.245 874.688 824.407 873.975 823.497 873.344 822.504 872.728 821.522 872.198 820.487 871.778 819.393 871.355 818.304 871.047 817.182 870.839 816.036 870.642 814.889 870.56 813.724 870.589 812.549 870.614 811.388 870.753 810.241 871.008 809.091 871.259 807.958 871.624 806.851 872.097 805.787Z" fill="#FFFFFF" transform="matrix(1 0 0 1.00008 868.326 -655.982)"/></g><g><path d="M160.281 904.855C130.115 904.855 105.674 929.309 105.674 959.461 105.674 989.599 130.115 1014.04 160.281 1014.04 190.434 1014.04 214.875 989.599 214.875 959.461 214.875 929.309 190.434 904.855 160.281 904.855ZM160.281 986.087C145.611 986.087 133.712 974.204 133.712 959.547 133.712 944.876 145.611 932.993 160.281 932.993 174.938 932.993 186.822 944.876 186.822 959.547 186.822 974.204 174.938 986.087 160.281 986.087Z" fill="#FFFFFF" transform="matrix(1 0 0 1.00008 868.326 -655.982)"/></g><g><path d="M673.054 1132.66C642.902 1132.66 618.462 1157.12 618.462 1187.28 618.462 1217.43 642.902 1241.87 673.054 1241.87 703.207 1241.87 727.65 1217.43 727.65 1187.28 727.65 1157.12 703.207 1132.66 673.054 1132.66ZM673.054 1213.91C658.401 1213.91 646.5 1202.03 646.5 1187.36 646.5 1172.7 658.401 1160.82 673.054 1160.82 687.711 1160.82 699.598 1172.7 699.598 1187.36 699.598 1202.03 687.711 1213.91 673.054 1213.91Z" fill="#FFFFFF" transform="matrix(1 0 0 1.00008 868.326 -655.982)"/></g><g><path d="M1184.08 904.855C1153.93 904.855 1129.47 929.309 1129.47 959.461 1129.47 989.599 1153.93 1014.04 1184.08 1014.04 1214.23 1014.04 1238.67 989.599 1238.67 959.461 1238.67 929.309 1214.23 904.855 1184.08 904.855ZM1184.08 986.087C1169.41 986.087 1157.53 974.204 1157.53 959.547 1157.53 944.876 1169.41 932.993 1184.08 932.993 1198.74 932.993 1210.62 944.876 1210.62 959.547 1210.62 974.204 1198.74 986.087 1184.08 986.087Z" fill="#FFFFFF" transform="matrix(1 0 0 1.00008 868.326 -655.982)"/></g></g></g></g><g clip-path="url(#clip20)"><g clip-path="url(#clip21)"><g clip-path="url(#clip22)"><g><path d="M635.369 130.453C634.767 135.001 635.258 139.563 636.247 143.759 637.523 149.185 639.774 154.607 643.88 159.029 645.203 160.455 646.869 161.917 648.722 163.333L199.77 364.572 642.49 563.02C638.036 568.328 633.567 575.835 631.883 581.16 630.112 586.765 630.549 591.811 631.782 597.093L181.193 395.097C182.078 394.459 182.935 393.761 183.752 393.001 188.801 388.314 194.334 379.473 196.298 372.822 198.032 366.945 197.588 360.845 196.298 355.37 195.019 349.944 192.202 344.368 188.661 340.1 186.744 337.789 184.529 335.567 182.028 333.682ZM175.524 925.704C169.514 923.93 161.394 923.507 155.757 924.213 150.31 924.898 145.941 926.019 141.577 929.668 141.086 930.08 140.58 930.538 140.068 931.036L140.068 394.717C144.067 397.341 148.479 399.555 152.12 400.637 157.731 402.304 163.25 401.877 168.482 400.637 170.826 400.082 173.212 399.329 175.524 398.312ZM641.06 1163.94C637.548 1168.73 634.373 1174.42 632.972 1178.91 631.012 1185.21 631.635 1191.74 632.972 1197.45 633.122 1198.1 633.287 1198.75 633.466 1199.39L182.358 997.164C183.311 996.598 184.261 995.924 185.207 995.115 190.751 990.377 198.842 979.207 201.025 971.66 201.469 970.119 201.731 968.582 201.849 967.051ZM654.187 624.877C657.251 626.514 660.311 627.829 662.97 628.611 669.026 630.385 674.946 629.901 680.422 628.611 683.561 627.869 686.701 626.808 689.643 625.246L689.643 1156.43C687.808 1155.17 685.833 1154.1 683.694 1153.28 677.605 1150.93 668.188 1150.3 661.881 1151.09 659.078 1151.44 656.563 1151.91 654.187 1152.78ZM1143.88 966.202C1144.06 967.302 1144.29 968.395 1144.55 969.481 1145.81 974.799 1148.08 980.329 1152.19 984.751 1155.58 988.41 1161.09 992.309 1166.45 994.935L704.866 1201.85C705.342 1200.72 705.744 1199.6 706.055 1198.54 707.79 1192.67 707.417 1186.79 706.055 1181.09 704.826 1175.96 702.106 1170.19 698.892 1165.68ZM1168.31 395.721C1171.25 397.401 1174.21 398.774 1176.73 399.548 1182.41 401.29 1187.86 400.788 1193.09 399.548 1196.69 398.692 1200.38 397.38 1203.76 395.352L1203.76 931.388C1200.74 929.266 1197.43 927.482 1194.18 926.396 1187.89 924.285 1179.54 924.378 1173.46 925.303 1171.65 925.579 1169.94 925.872 1168.31 926.285ZM1144.06 364.572 695.946 163.702C700.927 158.953 706.306 150.295 708.238 143.759 709.517 139.423 709.61 134.961 709.055 130.722L1161.88 333.714C1161.74 333.843 1161.6 333.972 1161.46 334.101 1156.41 338.788 1150.88 347.629 1148.91 354.28 1147.18 360.157 1147.75 366.36 1148.91 371.732 1150.03 376.868 1151.62 381.627 1155.46 385.913 1157.79 388.511 1161.41 391.399 1165.31 393.9L708.797 598.552C709.775 593.714 709.313 588.966 708.238 584.432 706.977 579.114 704.479 573.768 700.601 569.163 699.48 567.83 698.179 566.446 696.749 565.084Z" fill="#FFFFFF" transform="matrix(1 0 0 1.00012 2700.33 942.055)"/></g><path d="M637.147 130.69C636.545 135.022 637.021 139.262 637.992 143.35 639.222 148.636 641.257 153.653 645.196 157.81 646.45 159.172 648.005 160.53 649.811 161.91L652.205 163.734 204.15 364.572 645.393 562.357 643.862 564.171C639.49 569.363 635.19 576.563 633.592 581.702 631.857 586.959 632.316 591.531 633.527 596.685L634.355 600.211 177.62 395.459 180.147 393.642C180.989 393.037 181.759 392.41 182.533 391.689 187.432 387.181 192.714 378.745 194.578 372.313 196.28 366.755 195.821 361.118 194.553 355.782 193.349 350.553 190.711 345.343 187.282 341.243 185.422 338.993 183.354 336.914 180.949 335.112L178.52 333.291 637.588 127.497ZM185.397 334.137C187.099 335.649 188.066 336.585 190.041 338.957 193.693 343.393 196.689 349.335 198.043 354.958 198.624 357.452 199.032 360.132 199.154 362.884L645.335 162.888C644.314 162.007 643.956 161.738 642.569 160.247 638.29 155.56 635.824 149.733 634.502 144.171 633.495 139.864 633.23 137.068 633.352 133.324ZM199.147 366.257C199.036 368.618 198.681 371.001 198.018 373.331 195.954 380.2 190.17 389.446 184.97 394.312 184.784 394.484 184.669 394.596 184.598 394.66L629.367 594.047C628.707 589.736 628.367 586.572 630.173 580.619 631.943 575.108 635.609 568.958 639.645 563.708ZM175.015 927.424C169.213 925.683 161.458 925.292 155.979 925.991 150.643 926.654 146.741 927.571 142.727 931.04 142.265 931.431 141.806 931.843 141.319 932.323L138.276 935.283 138.276 391.395 141.05 393.219C144.96 395.792 149.134 397.896 152.628 398.921 157.918 400.551 162.974 400.111 168.07 398.892 170.349 398.355 172.582 397.656 174.804 396.67L177.316 395.56 177.316 928.112ZM173.732 400.949C172.112 401.53 171.302 401.809 168.894 402.383 163.526 403.644 157.545 404.056 151.611 402.354 147.823 401.214 145.185 399.86 141.86 397.928L141.86 926.801C141.86 926.801 139.907 928.729 140.426 928.295 145.142 924.468 149.977 923.142 155.535 922.436 161.329 921.723 167.841 922.085 173.732 923.4ZM642.504 1165.01C639.053 1169.7 636.011 1175.13 634.681 1179.44 632.76 1185.39 633.398 1191.45 634.717 1197.05 634.864 1197.68 635.018 1198.29 635.19 1198.91L636.229 1202.59 178.462 997.383 181.444 995.623C182.336 995.097 183.161 994.513 184.042 993.753 189.443 989.169 197.255 978.433 199.305 971.162 199.724 969.721 199.953 968.363 200.061 966.912L200.251 964.371 643.819 1163.22ZM203.315 969.671C203.168 970.506 203.214 970.517 202.745 972.158 200.43 979.981 192.059 991.585 186.371 996.476 186.181 996.638 186.052 996.749 185.966 996.82L630.707 1196.19C630.707 1196.19 631.381 1198.53 631.227 1197.86 629.869 1192.03 629.263 1185.03 631.263 1178.38 632.735 1173.72 635.273 1169.18 638.34 1164.69ZM655.032 623.296C658.028 624.902 660.917 626.145 663.475 626.891 669.206 628.632 674.667 628.138 680.01 626.865 683.067 626.149 685.995 625.167 688.801 623.662L691.435 622.253 691.435 1159.85 688.629 1157.91C686.873 1156.7 685.084 1155.72 683.049 1154.95 677.222 1152.66 668.238 1152.09 662.103 1152.87 659.354 1153.21 657.036 1153.64 654.799 1154.47L652.395 1155.36 652.395 621.884ZM655.979 1150.36C657.792 1149.89 658.802 1149.67 661.659 1149.32 668.138 1148.52 677.989 1149.2 684.339 1151.6 686.582 1152.48 686.722 1152.62 687.851 1153.24L687.851 628.077C685.547 629.055 684.056 629.589 680.834 630.356 675.226 631.664 668.847 632.137 662.465 630.331 659.705 629.514 658.243 628.858 655.979 627.783ZM1145.65 965.908C1145.82 966.973 1146.04 968.005 1146.3 969.069 1147.51 974.254 1149.56 979.379 1153.5 983.532 1156.76 987.069 1162.01 990.771 1167.24 993.326L1170.68 995.003 701.458 1205.35 703.214 1201.16C703.672 1200.07 704.042 1199.04 704.335 1198.03 706.038 1192.47 705.651 1187.05 704.314 1181.51 703.146 1176.55 700.565 1171.09 697.433 1166.72L696.158 1164.94 1145.27 963.615ZM701.565 1166.45C704.339 1170.79 706.507 1175.37 707.797 1180.68 709.184 1186.52 709.542 1192.86 707.776 1199.05 707.446 1200.16 708.263 1198.37 708.263 1198.37L1162.39 994.792C1157.98 992.237 1154.41 989.75 1150.88 985.969 1146.59 981.278 1144.11 975.344 1142.81 969.893 1142.54 968.786 1142.63 969.144 1142.55 968.761ZM1169.19 394.165C1172.08 395.81 1174.85 397.104 1177.25 397.835 1182.59 399.541 1187.57 399.025 1192.67 397.806 1196.18 396.975 1199.62 395.767 1202.84 393.814L1205.55 392.169 1205.55 934.842 1202.73 932.853C1199.8 930.789 1196.72 929.119 1193.61 928.094 1187.62 926.03 1179.69 926.159 1173.72 927.073 1171.93 927.349 1170.31 927.625 1168.74 928.023L1166.51 928.589 1166.51 395.323 706.317 601.626 707.041 598.197C708.005 593.624 707.55 589.259 706.493 584.844 705.292 579.698 702.981 574.724 699.229 570.317 698.143 569.019 696.907 567.708 695.513 566.382L693.577 564.543 1139.68 364.572 692.768 164.239 694.71 162.404C699.548 157.832 704.687 149.568 706.518 143.25 707.761 139.151 707.826 135.058 707.278 130.955L706.855 127.773 1165.13 333.205 1163.08 335.047C1162.94 335.165 1162.82 335.284 1162.68 335.413 1157.78 339.921 1152.49 348.357 1150.63 354.785 1148.93 360.329 1149.51 366.088 1150.67 371.352 1151.75 376.395 1153.14 380.745 1156.79 384.716 1159.01 387.213 1162.46 389.944 1166.27 392.392L1167.76 393.348ZM1170.1 924.056C1171.11 923.862 1171.36 923.808 1173.19 923.532 1179.39 922.597 1188.17 922.54 1194.75 924.697 1198.14 925.844 1199.62 926.697 1201.97 928.098L1201.97 398.337C1199.19 399.663 1197.2 400.408 1193.51 401.29 1188.15 402.551 1182.23 403.038 1176.2 401.261 1173.57 400.444 1172.24 399.792 1170.1 398.713ZM1146.08 363.515C1145.99 360.297 1146.28 356.979 1147.19 353.775 1149.26 346.902 1158.64 334.223 1158.64 334.223L711.108 133.607C711.273 137.097 711.273 139.695 709.958 144.268 707.926 151.023 703.576 157.982 698.999 163.107ZM1146.19 365.579 699.856 565.654C700.616 566.45 700.816 566.64 701.97 568.009 705.977 572.811 708.661 578.527 709.983 584.02 711.076 588.672 711.313 591.61 711.001 595.599L1161.64 393.578C1158.69 391.471 1156.56 389.808 1154.13 387.109 1150.1 382.508 1148.31 377.341 1147.16 372.112 1146.72 370.069 1146.37 367.866 1146.19 365.579Z" fill="#FFFFFF" transform="matrix(1 0 0 1.00012 2700.33 942.055)"/><g><path d="M671.936 203.242C673.112 203.228 674.273 203.326 675.434 203.55 676.584 203.774 677.702 204.096 678.795 204.544 679.888 204.978 680.924 205.524 681.902 206.168 682.895 206.812 683.805 207.554 684.633 208.38 685.471 209.206 686.228 210.102 686.887 211.067 687.543 212.047 688.105 213.069 688.568 214.161 689.016 215.239 689.363 216.359 689.603 217.507 689.84 218.668 689.965 219.831 689.965 221.006 689.98 222.182 689.868 223.344 689.643 224.492 689.42 225.654 689.084 226.773 688.65 227.865 688.202 228.957 687.657 229.979 687.012 230.973 686.353 231.953 685.626 232.849 684.801 233.689 683.959 234.529 683.063 235.27 682.085 235.928 681.117 236.586 680.082 237.146 679.007 237.594 677.914 238.056 676.792 238.392 675.645 238.63 674.498 238.868 673.337 238.98 672.158 238.98 670.983 238.994 669.808 238.882 668.661 238.644 667.5 238.42 666.378 238.084 665.299 237.636 664.21 237.188 663.174 236.643 662.192 235.985 661.214 235.341 660.318 234.599 659.476 233.773 658.652 232.933 657.91 232.037 657.251 231.057 656.595 230.077 656.047 229.055 655.584 227.964 655.136 226.872 654.803 225.766 654.563 224.604 654.341 223.456 654.226 222.294 654.226 221.118 654.215 219.942 654.326 218.781 654.549 217.647 654.774 216.499 655.111 215.379 655.545 214.301 655.993 213.209 656.538 212.187 657.183 211.207 657.824 210.242 658.555 209.332 659.379 208.506 660.204 207.68 661.089 206.938 662.067 206.28 663.035 205.636 664.056 205.076 665.131 204.628 666.21 204.166 667.317 203.83 668.464 203.592 669.61 203.368 670.761 203.242 671.936 203.242" fill="#FFFFFF" transform="matrix(1 0 0 1.00012 2700.33 942.055)"/></g><path d="M671.915 201.451C673.176 201.44 674.524 201.555 675.778 201.792 677.003 202.035 678.283 202.404 679.465 202.881 680.644 203.358 681.827 203.981 682.88 204.666 683.952 205.368 684.998 206.221 685.891 207.102 686.787 207.991 687.661 209.03 688.374 210.07 689.073 211.116 689.718 212.299 690.22 213.474 690.696 214.628 691.098 215.914 691.356 217.147 691.607 218.391 691.75 219.727 691.757 220.996 691.768 222.268 691.639 223.601 691.402 224.834 691.159 226.081 690.768 227.382 690.309 228.547 689.822 229.718 689.18 230.912 688.5 231.973 687.794 233.019 686.951 234.055 686.066 234.958 685.167 235.854 684.138 236.703 683.088 237.412 682.045 238.118 680.856 238.76 679.698 239.247 678.516 239.742 677.233 240.129 676.011 240.383 674.764 240.638 673.427 240.767 672.169 240.774 670.901 240.781 669.553 240.652 668.31 240.401 667.062 240.157 665.78 239.77 664.615 239.294 663.447 238.806 662.257 238.179 661.196 237.473 660.139 236.771 659.096 235.907 658.2 235.029 657.322 234.133 656.477 233.109 655.763 232.055 655.061 230.998 654.423 229.808 653.929 228.643 653.452 227.472 653.065 226.189 652.803 224.949 652.571 223.712 652.442 222.386 652.434 221.125 652.427 219.853 652.556 218.523 652.793 217.301 653.036 216.069 653.423 214.775 653.886 213.621 654.373 212.446 655.004 211.263 655.692 210.213 656.38 209.185 657.222 208.138 658.111 207.239 658.996 206.361 660.017 205.504 661.074 204.787 662.106 204.107 663.275 203.465 664.436 202.978 665.608 202.48 666.894 202.093 668.12 201.835 669.342 201.598 671.592 201.483 671.592 201.483 671.667 201.473 672.205 205.013 672.28 205.002 672.28 205.002 669.894 205.139 668.815 205.35 667.751 205.569 666.822 205.848 665.837 206.275 664.848 206.683 663.963 207.163 663.063 207.769 662.164 208.367 661.415 208.998 660.648 209.772 659.885 210.525 659.272 211.295 658.673 212.198 658.075 213.105 657.609 213.972 657.201 214.983 656.796 215.983 656.512 216.929 656.308 217.989 656.097 219.036 656 220.018 656.018 221.096 656.014 222.186 656.108 223.189 656.319 224.25 656.538 225.329 656.821 226.264 657.24 227.274 657.666 228.289 658.129 229.156 658.738 230.059 659.344 230.966 659.971 231.722 660.745 232.506 661.522 233.277 662.275 233.9 663.178 234.488 664.074 235.097 664.966 235.567 665.98 235.979 666.973 236.395 667.926 236.681 668.998 236.886 670.051 237.108 671.058 237.208 672.137 237.19 673.23 237.194 674.23 237.101 675.283 236.875 676.355 236.656 677.308 236.373 678.308 235.943 679.304 235.535 680.189 235.058 681.074 234.449 681.985 233.843 682.751 233.209 683.529 232.428 684.296 231.654 684.905 230.901 685.514 229.987 686.116 229.063 686.579 228.203 686.987 227.196 687.396 226.181 687.682 225.228 687.883 224.153 688.095 223.089 688.191 222.107 688.173 221.028 688.181 219.95 688.073 218.946 687.847 217.868 687.632 216.807 687.331 215.85 686.912 214.85 686.489 213.84 686.016 212.976 685.4 212.066 684.798 211.173 684.16 210.421 683.375 209.658 682.619 208.891 681.845 208.26 680.927 207.672 680.024 207.07 679.139 206.604 678.132 206.21 677.132 205.794 676.165 205.515 675.093 205.311 674.025 205.099 673.047 205.017 671.958 205.035Z" fill="#FFFFFF" transform="matrix(1 0 0 1.00012 2700.33 942.055)"/><g><path d="M671.936 295.072C670.761 295.086 669.6 294.988 668.435 294.764 667.274 294.554 666.156 294.218 665.063 293.784 663.97 293.336 662.934 292.79 661.956 292.146 660.974 291.502 660.064 290.774 659.225 289.948 658.387 289.122 657.645 288.227 656.971 287.246 656.315 286.281 655.753 285.245 655.29 284.167 654.842 283.075 654.495 281.969 654.255 280.807 654.018 279.66 653.893 278.497 653.893 277.322 653.879 276.146 653.99 274.984 654.215 273.822 654.438 272.674 654.76 271.554 655.208 270.463 655.656 269.371 656.201 268.335 656.846 267.355 657.505 266.375 658.233 265.465 659.057 264.625 659.885 263.799 660.795 263.043 661.759 262.386 662.741 261.728 663.776 261.182 664.851 260.72 665.944 260.272 667.066 259.922 668.213 259.684 669.36 259.46 670.521 259.334 671.7 259.334 672.875 259.334 674.05 259.446 675.197 259.67 676.344 259.894 677.48 260.23 678.559 260.678 679.648 261.126 680.684 261.671 681.666 262.329 682.644 262.973 683.54 263.715 684.382 264.541 685.206 265.381 685.948 266.277 686.607 267.257 687.263 268.237 687.812 269.273 688.27 270.351 688.722 271.442 689.055 272.562 689.295 273.71 689.517 274.858 689.628 276.034 689.628 277.21 689.643 278.372 689.532 279.533 689.309 280.681 689.084 281.829 688.747 282.935 688.313 284.013 687.865 285.105 687.335 286.127 686.69 287.107 686.045 288.072 685.303 288.982 684.479 289.808 683.665 290.634 682.769 291.376 681.805 292.034 680.838 292.692 679.802 293.238 678.738 293.686 677.663 294.148 676.541 294.484 675.409 294.722 674.258 294.946 673.097 295.072 671.936 295.072Z" fill="#FFFFFF" transform="matrix(1 0 0 1.00012 2700.33 942.055)"/></g><g><path d="M671.936 351.233C670.761 351.233 669.6 351.135 668.435 350.911 667.274 350.701 666.156 350.365 665.063 349.931 663.97 349.483 662.934 348.951 661.956 348.293 660.974 347.65 660.064 346.922 659.225 346.096 658.387 345.27 657.645 344.374 656.971 343.394 656.315 342.428 655.753 341.392 655.29 340.314 654.842 339.237 654.495 338.117 654.255 336.969 654.018 335.807 653.893 334.645 653.893 333.469 653.879 332.293 653.99 331.131 654.215 329.97 654.438 328.822 654.76 327.702 655.208 326.61 655.656 325.518 656.201 324.482 656.846 323.502 657.505 322.522 658.233 321.613 659.057 320.773 659.885 319.947 660.795 319.191 661.759 318.533 662.741 317.889 663.776 317.329 664.851 316.867 665.944 316.419 667.066 316.069 668.213 315.845 669.36 315.607 670.521 315.481 671.7 315.481 672.875 315.481 674.05 315.593 675.197 315.817 676.344 316.041 677.48 316.377 678.559 316.825 679.648 317.273 680.684 317.819 681.666 318.477 682.644 319.121 683.54 319.863 684.382 320.703 685.206 321.529 685.948 322.425 686.607 323.404 687.263 324.384 687.812 325.42 688.27 326.498 688.722 327.59 689.055 328.71 689.295 329.858 689.517 331.02 689.628 332.181 689.628 333.357 689.643 334.519 689.532 335.681 689.309 336.829 689.084 337.977 688.747 339.083 688.313 340.174 687.865 341.252 687.335 342.274 686.69 343.254 686.045 344.22 685.303 345.13 684.479 345.956 683.665 346.782 682.769 347.524 681.805 348.182 680.838 348.84 679.802 349.385 678.738 349.847 677.663 350.295 676.541 350.631 675.409 350.869 674.258 351.107 673.097 351.219 671.936 351.233Z" fill="#FFFFFF" transform="matrix(1 0 0 1.00012 2700.33 942.055)"/></g><g><path d="M671.936 407.353C670.761 407.367 669.6 407.267 668.435 407.045 667.274 406.819 666.156 406.5 665.063 406.052 663.97 405.619 662.934 405.07 661.956 404.425 660.974 403.784 660.064 403.042 659.225 402.229 658.387 401.404 657.645 400.494 656.971 399.527 656.315 398.548 655.753 397.527 655.29 396.448 654.842 395.355 654.495 394.237 654.255 393.087 654.018 391.94 653.893 390.779 653.893 389.604 653.879 388.428 653.99 387.264 654.215 386.102 654.438 384.956 654.76 383.82 655.208 382.745 655.656 381.652 656.201 380.616 656.846 379.638 657.505 378.656 658.233 377.746 659.057 376.907 659.885 376.065 660.795 375.323 661.759 374.667 662.741 374.008 663.776 373.449 664.851 373.001 665.944 372.553 667.066 372.202 668.213 371.965 669.36 371.739 670.521 371.614 671.7 371.614 672.875 371.614 674.05 371.714 675.197 371.951 676.344 372.173 677.48 372.51 678.559 372.958 679.648 373.406 680.684 373.954 681.666 374.61 682.644 375.255 683.54 375.997 684.382 376.821 685.206 377.663 685.948 378.559 686.607 379.537 687.263 380.519 687.812 381.541 688.27 382.63 688.722 383.723 689.055 384.845 689.295 385.991 689.517 387.138 689.628 388.299 689.628 389.478 689.643 390.654 689.532 391.815 689.309 392.947 689.084 394.097 688.747 395.216 688.313 396.294 687.865 397.373 687.321 398.408 686.676 399.372 686.034 400.354 685.303 401.25 684.479 402.089 683.665 402.917 682.769 403.658 681.805 404.314 680.823 404.959 679.802 405.518 678.724 405.966 677.663 406.414 676.541 406.765 675.409 407.002 674.258 407.228 673.097 407.353 671.936 407.353Z" fill="#FFFFFF" transform="matrix(1 0 0 1.00012 2700.33 942.055)"/></g><g><path d="M671.936 463.472C670.761 463.486 669.6 463.39 668.435 463.164 667.274 462.956 666.156 462.619 665.063 462.186 663.97 461.738 662.934 461.189 661.956 460.548 660.974 459.903 660.064 459.175 659.225 458.347 658.387 457.523 657.645 456.627 656.971 455.645 656.315 454.681 655.753 453.646 655.29 452.567 654.842 451.474 654.495 450.37 654.255 449.209 654.018 448.059 653.893 446.898 653.893 445.723 653.879 444.547 653.99 443.386 654.215 442.221 654.438 441.075 654.76 439.957 655.208 438.864 655.656 437.771 656.201 436.735 656.846 435.757 657.505 434.775 658.233 433.864 659.057 433.026 659.885 432.198 660.795 431.445 661.759 430.786 662.741 430.127 663.776 429.582 664.851 429.12 665.944 428.672 667.066 428.321 668.213 428.084 669.36 427.862 670.521 427.733 671.7 427.733 672.875 427.733 674.05 427.848 675.197 428.07 676.344 428.296 677.48 428.629 678.559 429.077 679.648 429.525 680.684 430.073 681.666 430.729 682.644 431.374 683.54 432.116 684.382 432.94 685.206 433.782 685.948 434.678 686.607 435.656 687.263 436.638 687.812 437.674 688.27 438.752 688.722 439.842 689.055 440.964 689.295 442.11 689.517 443.257 689.628 444.436 689.628 445.611 689.643 446.772 689.532 447.934 689.309 449.08 689.084 450.231 688.747 451.334 688.313 452.413 687.865 453.506 687.335 454.527 686.69 455.506 686.045 456.473 685.303 457.384 684.479 458.208 683.665 459.035 682.769 459.777 681.805 460.433 680.838 461.092 679.802 461.637 678.738 462.085 677.663 462.547 676.541 462.884 675.409 463.121 674.258 463.347 673.097 463.472 671.936 463.472Z" fill="#FFFFFF" transform="matrix(1 0 0 1.00012 2700.33 942.055)"/></g><g><path d="M671.488 372.187C672.664 372.173 673.839 372.288 674.986 372.496 676.15 372.721 677.269 373.058 678.362 373.492 679.455 373.94 680.49 374.47 681.469 375.115 682.45 375.771 683.357 376.498 684.199 377.326 685.038 378.15 685.78 379.046 686.453 380.028 687.109 380.992 687.672 382.028 688.12 383.107 688.578 384.185 688.93 385.307 689.166 386.454 689.406 387.615 689.517 388.776 689.532 389.951 689.532 391.13 689.435 392.291 689.209 393.452 688.987 394.599 688.65 395.721 688.202 396.81 687.768 397.903 687.224 398.939 686.564 399.921 685.919 400.899 685.178 401.809 684.353 402.634 683.526 403.476 682.63 404.217 681.651 404.873 680.669 405.533 679.648 406.092 678.559 406.54 677.48 407.002 676.358 407.339 675.212 407.575 674.05 407.815 672.889 407.926 671.71 407.926 670.535 407.941 669.374 407.83 668.227 407.604 667.066 407.367 665.944 407.031 664.851 406.583 663.776 406.135 662.741 405.59 661.759 404.945 660.781 404.286 659.87 403.544 659.042 402.72 658.204 401.892 657.462 400.985 656.817 400.003 656.161 399.039 655.599 398 655.151 396.911 654.703 395.832 654.37 394.714 654.129 393.549 653.907 392.402 653.782 391.241 653.782 390.066 653.782 388.89 653.893 387.74 654.115 386.593 654.341 385.447 654.663 384.325 655.111 383.246 655.545 382.171 656.09 381.132 656.735 380.168 657.376 379.186 658.118 378.29 658.931 377.452 659.756 376.627 660.651 375.886 661.619 375.226 662.597 374.581 663.622 374.022 664.697 373.574 665.762 373.126 666.883 372.775 668.03 372.553 669.162 372.316 670.327 372.187 671.488 372.187" fill="#FFFFFF" transform="matrix(1 0 0 1.00012 2700.33 942.055)"/></g><g><path d="M671.488 464.031C670.313 464.031 669.152 463.934 668.001 463.708 666.84 463.501 665.722 463.164 664.629 462.73 663.536 462.282 662.501 461.752 661.522 461.092 660.54 460.447 659.63 459.72 658.792 458.896 657.953 458.068 657.197 457.172 656.538 456.194 655.878 455.226 655.319 454.191 654.857 453.112 654.395 452.037 654.061 450.915 653.821 449.768 653.585 448.607 653.459 447.443 653.445 446.267 653.445 445.092 653.556 443.931 653.767 442.77 653.99 441.619 654.326 440.501 654.774 439.408 655.222 438.315 655.767 437.28 656.412 436.301 657.057 435.323 657.799 434.413 658.623 433.585 659.451 432.746 660.347 432.005 661.325 431.345 662.304 430.689 663.328 430.127 664.418 429.664 665.497 429.217 666.618 428.869 667.779 428.643 668.926 428.407 670.087 428.281 671.262 428.281 672.442 428.281 673.603 428.392 674.764 428.615 675.91 428.84 677.032 429.177 678.121 429.625 679.214 430.073 680.236 430.618 681.218 431.277 682.196 431.919 683.106 432.66 683.934 433.503 684.773 434.327 685.514 435.237 686.174 436.205 686.83 437.183 687.374 438.219 687.826 439.297 688.284 440.39 688.621 441.508 688.847 442.655 689.084 443.82 689.195 444.981 689.195 446.156 689.195 447.317 689.098 448.478 688.872 449.629 688.65 450.775 688.313 451.883 687.88 452.972 687.432 454.051 686.887 455.072 686.242 456.054 685.597 457.018 684.869 457.928 684.045 458.756 683.217 459.58 682.321 460.322 681.357 460.981 680.39 461.637 679.369 462.186 678.29 462.648 677.215 463.096 676.107 463.429 674.961 463.669 673.81 463.906 672.664 464.017 671.488 464.031Z" fill="#FFFFFF" transform="matrix(1 0 0 1.00012 2700.33 942.055)"/></g><g><path d="M671.488 520.179C670.313 520.193 669.152 520.082 668.001 519.87 666.84 519.648 665.722 519.311 664.629 518.878 663.536 518.444 662.501 517.899 661.522 517.254 660.54 516.609 659.63 515.868 658.792 515.043 657.953 514.216 657.197 513.32 656.538 512.356 655.878 511.374 655.319 510.352 654.857 509.259 654.395 508.184 654.061 507.063 653.821 505.916 653.585 504.755 653.459 503.59 653.445 502.415 653.445 501.239 653.556 500.078 653.767 498.932 653.99 497.767 654.326 496.649 654.774 495.556 655.222 494.463 655.767 493.427 656.412 492.449 657.057 491.471 657.799 490.56 658.623 489.733 659.451 488.894 660.347 488.152 661.325 487.493 662.304 486.837 663.328 486.274 664.418 485.826 665.497 485.364 666.618 485.031 667.779 484.791 668.926 484.554 670.087 484.443 671.262 484.429 672.442 484.429 673.603 484.54 674.764 484.762 675.91 484.988 677.032 485.325 678.121 485.773 679.214 486.221 680.236 486.78 681.218 487.425 682.196 488.08 683.106 488.822 683.934 489.65 684.773 490.474 685.514 491.385 686.174 492.352 686.83 493.33 687.374 494.366 687.826 495.459 688.284 496.538 688.621 497.656 688.847 498.803 689.084 499.967 689.195 501.128 689.195 502.304 689.195 503.479 689.098 504.626 688.872 505.776 688.65 506.923 688.313 508.045 687.88 509.12 687.432 510.198 686.887 511.22 686.242 512.202 685.597 513.18 684.869 514.076 684.045 514.904 683.217 515.742 682.321 516.484 681.357 517.129 680.39 517.785 679.369 518.333 678.29 518.795 677.215 519.243 676.107 519.591 674.961 519.817 673.81 520.053 672.664 520.164 671.488 520.179Z" fill="#FFFFFF" transform="matrix(1 0 0 1.00012 2700.33 942.055)"/></g><g><path d="M160.281 308.58C130.115 308.58 105.674 333.035 105.674 363.189 105.674 393.341 130.115 417.781 160.281 417.781 190.434 417.781 214.875 393.341 214.875 363.189 214.875 333.035 190.434 308.58 160.281 308.58ZM160.281 389.826C145.611 389.826 133.712 377.943 133.712 363.271 133.712 348.615 145.611 336.731 160.281 336.731 174.938 336.731 186.822 348.615 186.822 363.271 186.822 377.943 174.938 389.826 160.281 389.826Z" fill="#FFFFFF" transform="matrix(1 0 0 1.00012 2700.33 942.055)"/></g><g><path d="M671.922 80.9105C642.386 80.9105 618.462 104.862 618.462 134.384 618.462 163.893 642.386 187.83 671.922 187.83 701.443 187.83 725.367 163.893 725.367 134.384 725.367 104.862 701.443 80.9105 671.922 80.9105ZM671.922 160.449C657.559 160.449 645.912 148.817 645.912 134.468 645.912 120.106 657.559 108.473 671.922 108.473 686.271 108.473 697.903 120.106 697.903 134.468 697.903 148.817 686.271 160.449 671.922 160.449Z" fill="#FFFFFF" transform="matrix(1 0 0 1.00012 2700.33 942.055)"/></g><g clip-path="url(#clip23)"><path d="M671.922 534.961C642.386 534.961 618.462 558.914 618.462 588.435 618.462 617.946 642.386 641.881 671.922 641.881 701.443 641.881 725.367 617.946 725.367 588.435 725.367 558.914 701.443 534.961 671.922 534.961ZM671.922 614.502C657.559 614.502 645.912 602.866 645.912 588.521 645.912 574.158 657.559 562.526 671.922 562.526 686.271 562.526 697.903 574.158 697.903 588.521 697.903 602.866 686.271 614.502 671.922 614.502Z" fill="#FFFFFF" transform="matrix(1 0 0 1.00012 2700.33 942.055)"/></g><g><path d="M1184.08 308.58C1153.93 308.58 1129.47 333.035 1129.47 363.189 1129.47 393.341 1153.93 417.781 1184.08 417.781 1214.23 417.781 1238.67 393.341 1238.67 363.189 1238.67 333.035 1214.23 308.58 1184.08 308.58ZM1184.08 389.826C1169.41 389.826 1157.53 377.943 1157.53 363.271 1157.53 348.615 1169.41 336.731 1184.08 336.731 1198.74 336.731 1210.62 348.615 1210.62 363.271 1210.62 377.943 1198.74 389.826 1184.08 389.826Z" fill="#FFFFFF" transform="matrix(1 0 0 1.00012 2700.33 942.055)"/></g></g></g></g><text fill="#FFFFFF" font-family="Corbel,Corbel_MSFontService,sans-serif" font-weight="700" font-size="196" transform="matrix(1 0 0 0.999964 2104.79 866)">I</text><text fill="#FFFFFF" font-family="Corbel,Corbel_MSFontService,sans-serif" font-weight="700" font-size="157" transform="matrix(1 0 0 0.999964 2158.78 866)">NSIGHTS</text></g></svg>