<svg xmlns="http://www.w3.org/2000/svg" width="421.552" height="431.953" preserveAspectRatio="none" viewBox="29.488 22.578 316.164 323.965">
  <defs>
    <clipPath id="a">
      <path d="M39.086 32H336v307.477H39.086Zm0 0"/>
    </clipPath>
    <clipPath id="b">
      <path d="M182.422 56.594h10.5V67h-10.5Zm0 0"/>
    </clipPath>
    <clipPath id="c">
      <path d="M182.422 72h10.5v11h-10.5Zm0 0"/>
    </clipPath>
    <clipPath id="d">
      <path d="M182.422 88h10.5v11h-10.5Zm0 0"/>
    </clipPath>
    <clipPath id="e">
      <path d="M182.422 103h10.5v11h-10.5Zm0 0"/>
    </clipPath>
    <clipPath id="f">
      <path d="M182.422 119h10.5v10.344h-10.5Zm0 0"/>
    </clipPath>
    <clipPath id="g">
      <path d="M182.3 103.742h10.5V114h-10.5Zm0 0"/>
    </clipPath>
    <clipPath id="h">
      <path d="M182.3 119h10.5v11h-10.5Zm0 0"/>
    </clipPath>
    <clipPath id="i">
      <path d="M182.3 135h10.5v11h-10.5Zm0 0"/>
    </clipPath>
    <clipPath id="j">
      <path d="m132.348 218.418 66.09-30.406 4.39 9.539-66.09 30.406Zm0 0"/>
    </clipPath>
    <clipPath id="k">
      <path d="m132.348 218.418 66.09-30.406 4.39 9.539-66.09 30.406Zm0 0"/>
    </clipPath>
    <clipPath id="l">
      <path d="m132.348 218.418 66.09-30.406 4.39 9.539-66.09 30.406Zm0 0"/>
    </clipPath>
    <clipPath id="m">
      <path d="m61.617 251.066 66.09-30.41 4.387 9.54-66.09 30.41Zm0 0"/>
    </clipPath>
    <clipPath id="n">
      <path d="m61.617 251.066 66.09-30.41 4.387 9.54-66.09 30.41Zm0 0"/>
    </clipPath>
    <clipPath id="o">
      <path d="m61.617 251.066 66.09-30.41 4.387 9.54-66.09 30.41Zm0 0"/>
    </clipPath>
    <clipPath id="p">
      <path d="m61.617 251.066 66.09-30.41 4.387 9.54-66.09 30.41Zm0 0"/>
    </clipPath>
    <clipPath id="q">
      <path d="m61.617 251.066 66.09-30.41 4.387 9.54-66.09 30.41Zm0 0"/>
    </clipPath>
    <clipPath id="r">
      <path d="m236.39 227.773-66.394-29.73 4.29-9.582 66.398 29.73Zm0 0"/>
    </clipPath>
    <clipPath id="s">
      <path d="m236.39 227.773-66.394-29.73 4.29-9.582 66.398 29.73Zm0 0"/>
    </clipPath>
    <clipPath id="t">
      <path d="m236.39 227.773-66.394-29.73 4.29-9.582 66.398 29.73Zm0 0"/>
    </clipPath>
    <clipPath id="u">
      <path d="m307.531 259.527-66.398-29.73 4.293-9.586 66.394 29.734Zm0 0"/>
    </clipPath>
    <clipPath id="v">
      <path d="m307.531 259.527-66.398-29.73 4.293-9.586 66.394 29.734Zm0 0"/>
    </clipPath>
    <clipPath id="w">
      <path d="m307.531 259.527-66.398-29.73 4.293-9.586 66.394 29.734Zm0 0"/>
    </clipPath>
    <clipPath id="x">
      <path d="m307.531 259.527-66.398-29.73 4.293-9.586 66.394 29.734Zm0 0"/>
    </clipPath>
    <clipPath id="y">
      <path d="m307.531 259.527-66.398-29.73 4.293-9.586 66.394 29.734Zm0 0"/>
    </clipPath>
    <clipPath id="z">
      <path d="M29.488 86.113H59.93v30.442H29.488Zm0 0"/>
    </clipPath>
    <clipPath id="A">
      <path d="M172.582 22.582h29.805v29.805h-29.805Zm0 0"/>
    </clipPath>
    <clipPath id="B">
      <path d="M172.582 149.285h29.805v29.805h-29.805Zm0 0"/>
    </clipPath>
    <clipPath id="C">
      <path d="M315.18 86.113h30.441v30.442H315.18Zm0 0"/>
    </clipPath>
    <clipPath id="D">
      <path d="M29.488 252.5H59.93v30.441H29.488Zm0 0"/>
    </clipPath>
    <clipPath id="E">
      <path d="M172.582 316.074h30.441v30.442h-30.441Zm0 0"/>
    </clipPath>
    <clipPath id="F">
      <path d="M315.18 252.5h30.441v30.441H315.18Zm0 0"/>
    </clipPath>
  </defs>
  <path d="M177.3 36.403c-.168 1.269-.031 2.542.245 3.713.356 1.514.984 3.027 2.13 4.261.369.398.834.806 1.351 1.201l-125.28 56.156 123.541 55.377c-1.243 1.481-2.49 3.576-2.96 5.062-.494 1.564-.372 2.972-.028 4.446L50.562 110.252c.247-.178.486-.373.714-.585 1.409-1.308 2.953-3.775 3.501-5.631.484-1.64.36-3.342 0-4.87-.357-1.514-1.143-3.07-2.131-4.261a11.156 11.156 0 0 0-1.851-1.791ZM48.98 258.318c-1.677-.495-3.943-.613-5.516-.416-1.52.191-2.739.504-3.957 1.522a7.836 7.836 0 0 0-.421.382v-149.66c1.116.732 2.347 1.35 3.363 1.652 1.566.465 3.106.346 4.566 0 .654-.155 1.32-.365 1.965-.649Zm129.908 66.481c-.98 1.335-1.866 2.924-2.257 4.176-.547 1.758-.373 3.58 0 5.175.042.181.088.362.138.54L50.887 278.259c.266-.158.531-.346.795-.572 1.547-1.322 3.805-4.439 4.414-6.545.124-.43.197-.859.23-1.286Zm3.663-150.427c.855.457 1.709.824 2.451 1.042 1.69.495 3.342.36 4.87 0 .876-.207 1.752-.503 2.573-.939v148.228a8.003 8.003 0 0 0-1.66-.881c-1.699-.654-4.327-.83-6.087-.609-.782.098-1.484.229-2.147.471ZM319.2 269.619c.051.307.115.612.187.915.352 1.484.984 3.027 2.131 4.261.948 1.021 2.485 2.109 3.98 2.842l-128.805 57.741c.133-.318.245-.629.332-.924.484-1.64.38-3.281 0-4.87-.343-1.433-1.102-3.043-1.999-4.3Zm6.816-159.193c.823.469 1.647.852 2.35 1.068 1.587.486 3.106.346 4.566 0 1.004-.239 2.034-.605 2.978-1.171v149.581c-.843-.592-1.768-1.09-2.673-1.393-1.755-.589-4.086-.563-5.784-.305-.505.077-.981.159-1.437.274Zm-6.766-8.692L194.204 45.681c1.39-1.325 2.891-3.741 3.43-5.565.357-1.21.383-2.455.228-3.638l126.361 56.645-.118.108c-1.409 1.308-2.953 3.775-3.5 5.631-.484 1.64-.326 3.371 0 4.87.311 1.433.755 2.761 1.826 3.957.65.725 1.662 1.531 2.748 2.229L197.79 167.026c.273-1.35.144-2.675-.156-3.94a10.331 10.331 0 0 0-2.131-4.261 14.322 14.322 0 0 0-1.075-1.138Z" clip-path="url(#a)" style="fill:#fff"/>
  <path d="M177.796 36.469c-.168 1.209-.035 2.392.236 3.533.343 1.475.911 2.875 2.01 4.035.35.38.784.759 1.288 1.144l.668.509-125.03 56.044 123.129 55.192-.427.506c-1.22 1.449-2.42 3.458-2.866 4.892-.484 1.467-.356 2.743-.018 4.181l.231.984-127.452-57.136.705-.507c.235-.169.45-.344.666-.545 1.367-1.258 2.841-3.612 3.361-5.407.475-1.551.347-3.124-.007-4.613a9.98 9.98 0 0 0-2.029-4.057 10.35 10.35 0 0 0-1.767-1.711l-.678-.508 128.103-57.427ZM51.735 93.241c.475.422.745.683 1.296 1.345 1.019 1.238 1.855 2.896 2.233 4.465.162.696.276 1.444.31 2.212l124.507-55.809c-.285-.246-.385-.321-.772-.737-1.194-1.308-1.882-2.934-2.251-4.486-.281-1.202-.355-1.982-.321-3.027Zm3.837 8.963a8.706 8.706 0 0 1-.315 1.974c-.576 1.917-2.19 4.497-3.641 5.855l-.104.097 124.113 55.639c-.184-1.203-.279-2.086.225-3.747.494-1.538 1.517-3.254 2.643-4.719Zm-6.734 156.594c-1.619-.486-3.783-.595-5.312-.4-1.489.185-2.578.441-3.698 1.409a6.838 6.838 0 0 0-.393.358l-.849.826V109.219l.774.509c1.091.718 2.256 1.305 3.231 1.591 1.476.455 2.887.332 4.309-.008a10.57 10.57 0 0 0 1.879-.62l.701-.31V258.99Zm-.358-146.913c-.452.162-.678.24-1.35.4-1.498.352-3.167.467-4.823-.008-1.057-.318-1.793-.696-2.721-1.235v147.582s-.545.538-.4.417c1.316-1.068 2.665-1.438 4.216-1.635 1.617-.199 3.434-.098 5.078.269Zm130.811 213.21c-.963 1.309-1.812 2.824-2.183 4.029-.536 1.66-.358 3.351.01 4.913.041.176.084.346.132.518l.29 1.028L49.8 278.32l.832-.491c.249-.147.479-.31.725-.522 1.507-1.279 3.687-4.275 4.259-6.304.117-.402.181-.781.211-1.186l.053-.709 123.778 55.488ZM56.735 270.587c-.041.233-.028.236-.159.694-.646 2.183-2.982 5.421-4.569 6.786l-.113.096 124.105 55.634s.188.652.145.466c-.379-1.628-.548-3.58.01-5.437.411-1.299 1.119-2.567 1.975-3.819Zm126.052-96.656c.836.448 1.642.795 2.356 1.003 1.599.486 3.123.348 4.614-.007.853-.2 1.67-.474 2.453-.894l.735-.393v150.016l-.783-.541a7.202 7.202 0 0 0-1.557-.826c-1.626-.638-4.133-.799-5.845-.58-.767.096-1.414.214-2.038.445l-.671.249V173.537Zm.264 147.077c.506-.132.788-.191 1.585-.291 1.808-.222 4.557-.032 6.329.638.626.244.665.285.98.457V175.265c-.643.273-1.059.422-1.958.636-1.565.365-3.345.497-5.126-.007-.77-.228-1.178-.411-1.81-.711Zm136.642-51.471c.049.297.11.585.181.882.34 1.447.912 2.877 2.01 4.036.91.987 2.374 2.02 3.834 2.733l.96.468-130.936 58.696.49-1.167c.128-.306.231-.592.313-.873.475-1.553.367-3.065-.006-4.612-.326-1.384-1.046-2.907-1.92-4.126l-.356-.496 125.324-56.181Zm-123.921 55.961c.774 1.212 1.379 2.488 1.739 3.97.387 1.631.487 3.401-.006 5.128-.092.308.136-.191.136-.191l126.725-56.808c-1.23-.713-2.228-1.407-3.214-2.462-1.195-1.309-1.888-2.965-2.251-4.486-.074-.309-.049-.209-.072-.316Zm130.492-215.506c.804.459 1.578.82 2.249 1.024 1.49.476 2.878.332 4.303-.008.979-.232 1.938-.569 2.837-1.114l.757-.459v151.433l-.787-.555c-.818-.576-1.679-1.042-2.545-1.328-1.673-.576-3.886-.54-5.55-.285-.5.077-.952.154-1.39.265l-.622.158V110.315l-128.418 57.569.202-.957c.269-1.276.142-2.494-.153-3.726a9.526 9.526 0 0 0-2.027-4.054 13.329 13.329 0 0 0-1.037-1.098l-.54-.513 124.485-55.802-124.711-55.903.542-.512c1.35-1.276 2.784-3.582 3.295-5.345.347-1.144.365-2.286.212-3.431l-.118-.888 127.881 57.326-.572.514a8.776 8.776 0 0 0-.112.102c-1.367 1.258-2.841 3.612-3.36 5.406-.475 1.547-.313 3.154.009 4.623.303 1.407.689 2.621 1.709 3.729.62.697 1.581 1.459 2.646 2.142l.416.267Zm.252 147.866c.282-.054.352-.069.862-.146 1.732-.261 4.181-.277 6.018.325.944.32 1.359.558 2.014.949v-147.83c-.776.37-1.332.578-2.362.824-1.495.352-3.145.488-4.828-.008-.735-.228-1.107-.41-1.704-.711Zm-6.702-156.419c-.025-.898.057-1.824.311-2.718.575-1.918 3.193-5.456 3.193-5.456L198.435 37.283c.046.974.046 1.699-.321 2.975-.567 1.885-1.781 3.827-3.058 5.257Zm.031.576-124.55 55.831c.212.222.268.275.59.657a11.14 11.14 0 0 1 2.236 4.468c.305 1.298.371 2.118.284 3.231l125.752-56.374c-.823-.588-1.418-1.052-2.098-1.805-1.122-1.284-1.624-2.726-1.943-4.185a13.618 13.618 0 0 1-.271-1.823Z" style="fill:#fff"/>
  <path d="M187.504 56.715a4.962 4.962 0 0 1 1.914.363c.305.121.594.274.867.453.278.18.531.387.762.617a5 5 0 0 1 .629.75c.183.274.34.559.469.864.125.3.222.613.289.933.066.325.101.649.101.977a4.77 4.77 0 0 1-.09.973 5.213 5.213 0 0 1-.277.94c-.125.306-.277.59-.457.868a5.23 5.23 0 0 1-.617.758 5.035 5.035 0 0 1-2.555 1.379c-.32.066-.644.097-.973.097a4.549 4.549 0 0 1-.976-.093 4.807 4.807 0 0 1-.938-.281 4.984 4.984 0 0 1-1.625-1.078 5.1 5.1 0 0 1-1.086-1.621 5.196 5.196 0 0 1-.285-.938 5.067 5.067 0 0 1-.094-.973 4.707 4.707 0 0 1 .09-.969c.063-.32.157-.632.278-.933a4.928 4.928 0 0 1 1.82-2.238 5.01 5.01 0 0 1 1.785-.75c.32-.063.64-.098.969-.098" clip-path="url(#b)" style="fill:#fff"/>
  <path d="M187.498 56.215c.352-.003.728.029 1.078.095a5.85 5.85 0 0 1 1.029.304c.329.133.659.307.953.498a5.55 5.55 0 0 1 2.048 2.458c.133.322.245.681.317 1.025a5.544 5.544 0 0 1-.292 3.181c-.136.327-.315.66-.505.956a6.025 6.025 0 0 1-.679.833 5.612 5.612 0 0 1-1.777 1.197c-.33.138-.688.246-1.029.317a5.626 5.626 0 0 1-1.072.109 5.408 5.408 0 0 1-1.077-.104 5.62 5.62 0 0 1-1.031-.309 5.744 5.744 0 0 1-.954-.508 5.855 5.855 0 0 1-.836-.682 6.058 6.058 0 0 1-.68-.83 5.978 5.978 0 0 1-.512-.952 6.164 6.164 0 0 1-.314-1.031 6.055 6.055 0 0 1-.103-1.067 5.56 5.56 0 0 1 .1-1.067c.068-.344.176-.705.305-1.027.136-.328.312-.658.504-.951.192-.287.427-.579.675-.83.247-.245.532-.484.827-.684.288-.19.614-.369.938-.505a5.656 5.656 0 0 1 1.028-.319c.341-.066.969-.098.969-.098.021-.003.171.985.192.982 0 0-.666.038-.967.097a4.088 4.088 0 0 0-.831.258 4.286 4.286 0 0 0-.774.417c-.251.167-.46.343-.674.559-.213.21-.384.425-.551.677a4.374 4.374 0 0 0-.66 1.616 3.927 3.927 0 0 0-.081.867 4.4 4.4 0 0 0 .759 2.501c.169.253.344.464.56.683.217.215.427.389.679.553.25.17.499.301.782.416.277.116.543.196.842.253.294.062.575.09.876.085.305.001.584-.025.878-.088.299-.061.565-.14.844-.26.278-.114.525-.247.772-.417a4.384 4.384 0 0 0 1.239-1.245 4.432 4.432 0 0 0 .661-1.628 4 4 0 0 0 .081-.872 4.065 4.065 0 0 0-.091-.882 4.366 4.366 0 0 0-.261-.842 4.296 4.296 0 0 0-.422-.777 4.142 4.142 0 0 0-.565-.672 3.85 3.85 0 0 0-.683-.554 3.996 3.996 0 0 0-.78-.408 4.2 4.2 0 0 0-.848-.251 4.013 4.013 0 0 0-.875-.077Z" style="fill:#fff"/>
  <path d="M187.504 82.34a4.83 4.83 0 0 1-.977-.086 4.905 4.905 0 0 1-1.808-.73 4.989 4.989 0 0 1-1.86-2.227 5.207 5.207 0 0 1-.289-.938 4.78 4.78 0 0 1-.101-.972 4.962 4.962 0 0 1 1.441-3.543c.23-.23.485-.442.754-.625.274-.184.563-.336.863-.465.305-.125.618-.223.938-.29a5.07 5.07 0 0 1 1.95-.003c.32.062.636.156.937.281a4.984 4.984 0 0 1 1.625 1.078c.23.235.437.485.62.758.184.274.337.563.465.863.125.305.22.618.286.938.062.32.093.648.093.976.004.325-.027.649-.09.97a5.094 5.094 0 0 1-.73 1.792c-.18.27-.387.524-.617.754a4.888 4.888 0 0 1-1.602 1.082c-.3.129-.613.223-.93.29-.32.062-.644.097-.968.097Zm0 0" clip-path="url(#c)" style="fill:#fff"/>
  <path d="M187.504 98.012a5.133 5.133 0 0 1-1.918-.364 4.836 4.836 0 0 1-.867-.457 4.989 4.989 0 0 1-1.86-2.226 5.168 5.168 0 0 1-.289-.934 4.848 4.848 0 0 1-.101-.976 4.962 4.962 0 0 1 1.441-3.543c.23-.23.485-.442.754-.625.274-.18.563-.336.863-.465.305-.125.618-.223.938-.285a4.78 4.78 0 0 1 .972-.102c.329 0 .657.031.977.094.32.062.637.156.938.281.304.125.593.278.867.461a5.02 5.02 0 0 1 1.844 2.238c.124.305.218.618.285.938.062.324.093.648.093.976.004.325-.027.649-.09.97-.062.32-.156.628-.277.933-.125.3-.273.586-.453.86-.18.269-.387.523-.617.753a4.958 4.958 0 0 1-1.602 1.086 5.067 5.067 0 0 1-1.898.387Zm0 0" clip-path="url(#d)" style="fill:#fff"/>
  <path d="M187.504 113.672a4.916 4.916 0 0 1-1.918-.363 4.818 4.818 0 0 1-.867-.454 5.237 5.237 0 0 1-.762-.613 5.277 5.277 0 0 1-.629-.754 5.239 5.239 0 0 1-.469-.86 5.306 5.306 0 0 1-.289-.937 4.78 4.78 0 0 1-.101-.972 4.834 4.834 0 0 1 .09-.977c.062-.32.152-.637.277-.937a5.1 5.1 0 0 1 .457-.868 5.005 5.005 0 0 1 2.234-1.852c.305-.124.618-.222.938-.288a5.07 5.07 0 0 1 1.95-.004c.32.062.636.156.937.281a4.984 4.984 0 0 1 1.625 1.078 5.1 5.1 0 0 1 1.086 1.621c.124.305.218.618.285.938.062.32.093.644.093.973.004.328-.027.652-.09.968-.062.32-.156.633-.277.934a5.028 5.028 0 0 1-1.07 1.617c-.227.23-.477.438-.746.621a5.198 5.198 0 0 1-1.785.75c-.32.063-.645.098-.97.098Zm0 0" clip-path="url(#e)" style="fill:#fff"/>
  <path d="M187.504 129.332a4.83 4.83 0 0 1-.977-.086 4.905 4.905 0 0 1-1.808-.73 4.989 4.989 0 0 1-1.86-2.227 5.207 5.207 0 0 1-.289-.937 4.78 4.78 0 0 1-.101-.973 4.962 4.962 0 0 1 1.441-3.543c.23-.23.485-.441.754-.625.274-.184.563-.336.863-.465.305-.125.618-.223.938-.289a5.07 5.07 0 0 1 1.95-.004c.32.063.636.156.937.281a4.984 4.984 0 0 1 1.625 1.078c.23.235.437.485.62.758.184.274.337.563.465.864.125.304.22.617.286.937.062.32.093.649.093.977.004.324-.027.648-.09.968a5.094 5.094 0 0 1-.73 1.793c-.18.27-.387.524-.617.754a4.888 4.888 0 0 1-1.602 1.082c-.3.13-.613.223-.93.29-.32.062-.644.097-.968.097Zm0 0" clip-path="url(#f)" style="fill:#fff"/>
  <path d="M187.379 103.86c.328-.005.656.027.976.085a5.082 5.082 0 0 1 1.809.73 5.07 5.07 0 0 1 1.39 1.371c.184.27.34.56.466.86a4.886 4.886 0 0 1 .394 1.91 4.974 4.974 0 0 1-.371 1.914 4.598 4.598 0 0 1-.457.868 4.8 4.8 0 0 1-.617.757c-.23.235-.48.442-.754.625-.274.184-.559.34-.863.465a4.874 4.874 0 0 1-1.91.387 4.77 4.77 0 0 1-.973-.09 5.235 5.235 0 0 1-.942-.285c-.3-.125-.59-.277-.863-.457a5.052 5.052 0 0 1-.758-.621 4.615 4.615 0 0 1-.62-.758 4.707 4.707 0 0 1-.466-.863 5.07 5.07 0 0 1-.383-1.91 5.027 5.027 0 0 1 .372-1.903c.12-.3.273-.59.453-.86.18-.272.386-.522.613-.757.23-.23.48-.437.75-.621.273-.18.559-.336.86-.46.296-.126.609-.224.93-.286.315-.066.64-.102.964-.102" clip-path="url(#g)" style="fill:#fff"/>
  <path d="M187.379 129.488c-.328 0-.652-.027-.973-.09a4.905 4.905 0 0 1-1.808-.73 4.989 4.989 0 0 1-1.86-2.227 5.152 5.152 0 0 1-.395-1.91c0-.328.032-.652.09-.976a5.1 5.1 0 0 1 .738-1.805 4.8 4.8 0 0 1 .618-.758c.23-.234.48-.441.754-.625a4.817 4.817 0 0 1 1.8-.754 4.78 4.78 0 0 1 .973-.101 4.974 4.974 0 0 1 2.777.836c.274.18.528.386.759.62.234.231.441.485.625.755.183.273.335.562.46.863.13.305.223.617.286.937a5.052 5.052 0 0 1 .008 1.945c-.063.321-.157.63-.278.934-.125.301-.277.586-.457.86a4.928 4.928 0 0 1-1.363 1.375 5.03 5.03 0 0 1-.856.465 5.034 5.034 0 0 1-1.898.387Zm0 0" clip-path="url(#h)" style="fill:#fff"/>
  <path d="M187.379 145.156a5.06 5.06 0 0 1-.973-.086 5.213 5.213 0 0 1-.941-.277 4.818 4.818 0 0 1-.867-.453 5.014 5.014 0 0 1-.762-.617 5 5 0 0 1-.629-.75 5.12 5.12 0 0 1-.469-.864 5.152 5.152 0 0 1-.395-1.91 4.927 4.927 0 0 1 .371-1.914 5.1 5.1 0 0 1 .458-.867 4.8 4.8 0 0 1 .617-.758c.23-.234.48-.441.754-.625.273-.183.559-.34.863-.465a5.074 5.074 0 0 1 1.91-.39 4.974 4.974 0 0 1 2.777.836 5.052 5.052 0 0 1 1.384 1.375c.183.273.335.562.46.867.13.3.223.613.286.933.066.325.097.649.097.977a5.024 5.024 0 0 1-.367 1.902c-.125.301-.277.586-.457.86-.18.273-.383.523-.613.754a5.03 5.03 0 0 1-1.605 1.086 5.034 5.034 0 0 1-1.898.387Zm0 0" clip-path="url(#i)" style="fill:#fff"/>
  <path d="M134.723 223.293a4.89 4.89 0 0 1-.328-.922 4.797 4.797 0 0 1-.145-.969 4.978 4.978 0 0 1 .715-2.813c.168-.28.363-.542.586-.784.219-.243.46-.461.726-.657.266-.195.547-.359.844-.5.297-.136.606-.246.922-.324.32-.078.644-.125.973-.14a5.122 5.122 0 0 1 1.925.296 4.965 4.965 0 0 1 1.664 1.016c.243.219.461.465.653.73a4.863 4.863 0 0 1 .82 1.766c.078.32.125.645.137.973a4.987 4.987 0 0 1-.727 2.805 4.844 4.844 0 0 1-.593.78 4.962 4.962 0 0 1-1.578 1.148 5.01 5.01 0 0 1-2.852.407 5.246 5.246 0 0 1-.945-.242 5.156 5.156 0 0 1-.875-.422 4.714 4.714 0 0 1-.778-.586 4.98 4.98 0 0 1-.652-.722 5.027 5.027 0 0 1-.492-.84" clip-path="url(#j)" style="fill:#fff"/>
  <path d="M158.004 212.582c.14.297.25.606.328.922a5.084 5.084 0 0 1 .094 1.95 4.978 4.978 0 0 1-.664 1.831 5.037 5.037 0 0 1-1.313 1.441 4.846 4.846 0 0 1-.844.5 4.89 4.89 0 0 1-1.894.465 5.102 5.102 0 0 1-.977-.05 4.988 4.988 0 0 1-.949-.246 4.948 4.948 0 0 1-2.32-1.743 5.082 5.082 0 0 1-.82-1.77 5.035 5.035 0 0 1-.137-.968 5.106 5.106 0 0 1 .304-1.926 4.965 4.965 0 0 1 1.016-1.664c.223-.242.469-.457.734-.648a5.127 5.127 0 0 1 1.762-.82c.317-.075.64-.122.965-.137a4.901 4.901 0 0 1 2.79.719 4.789 4.789 0 0 1 1.43 1.309c.19.26.354.538.495.835Zm0 0" clip-path="url(#k)" style="fill:#fff"/>
  <path d="M172.238 206.031a5.04 5.04 0 0 1 .422 2.871c-.05.325-.129.641-.242.95-.11.308-.25.605-.422.886a4.774 4.774 0 0 1-.586.785c-.219.243-.465.461-.726.653a5.124 5.124 0 0 1-.844.504 5.166 5.166 0 0 1-.922.324c-.32.078-.645.125-.973.14a5.104 5.104 0 0 1-1.925-.296 4.965 4.965 0 0 1-.883-.426 5.006 5.006 0 0 1-.785-.586 5.517 5.517 0 0 1-.653-.73 5.082 5.082 0 0 1-.82-1.77 5.118 5.118 0 0 1-.137-.973 5.125 5.125 0 0 1 .305-1.925c.113-.31.254-.602.426-.88.172-.28.367-.542.59-.78a5.082 5.082 0 0 1 1.578-1.148c.297-.138.601-.243.918-.321a5.078 5.078 0 0 1 1.938-.086c.32.05.632.132.94.242a5.156 5.156 0 0 1 1.657 1.004c.238.222.457.465.648.726.192.262.356.543.496.836Zm0 0" clip-path="url(#l)" style="fill:#fff"/>
  <path d="M63.988 255.941a5.46 5.46 0 0 1-.328-.925 5.01 5.01 0 0 1 1.156-4.567c.223-.242.465-.457.731-.652.265-.195.543-.363.844-.5a4.825 4.825 0 0 1 1.89-.465c.328-.016.656.004.981.051.324.051.64.133.949.246.309.113.601.254.883.422.277.172.539.367.781.59a5.026 5.026 0 0 1 1.152 1.574 5.046 5.046 0 0 1 .403 2.871 5.015 5.015 0 0 1-.246.949 5.004 5.004 0 0 1-1.02 1.664 4.914 4.914 0 0 1-.734.649 4.874 4.874 0 0 1-.844.496 5.189 5.189 0 0 1-.918.324 5.033 5.033 0 0 1-.965.137 5.07 5.07 0 0 1-1.914-.297 4.638 4.638 0 0 1-.875-.422 4.938 4.938 0 0 1-.781-.582 5.535 5.535 0 0 1-.649-.727 5.32 5.32 0 0 1-.496-.836" clip-path="url(#m)" style="fill:#fff"/>
  <path d="M87.27 245.227c.14.296.25.605.332.925a5.04 5.04 0 0 1 .09 1.946 4.968 4.968 0 0 1-1.973 3.277 5.39 5.39 0 0 1-.844.5 5.099 5.099 0 0 1-1.895.465 5.104 5.104 0 0 1-1.925-.297 4.839 4.839 0 0 1-.883-.426 5.006 5.006 0 0 1-.785-.586 5.254 5.254 0 0 1-.653-.73 4.825 4.825 0 0 1-.496-.844c-.14-.3-.246-.605-.324-.926a5.122 5.122 0 0 1-.137-.969 5.145 5.145 0 0 1 .055-.98c.055-.324.137-.64.25-.95a4.93 4.93 0 0 1 .426-.878c.172-.281.367-.543.59-.781.222-.243.468-.461.734-.653.266-.191.547-.355.844-.496.297-.137.601-.242.918-.32a5.021 5.021 0 0 1 1.934-.086c.324.05.636.133.945.242.304.113.597.254.875.422.28.168.539.363.777.586.242.219.457.46.652.723.192.261.356.543.493.836Zm0 0" clip-path="url(#n)" style="fill:#fff"/>
  <path d="M101.504 238.68c.14.297.25.605.332.922.078.32.125.64.14.968.016.328 0 .657-.05.98-.047.325-.13.641-.239.95a5.231 5.231 0 0 1-.421.883 4.774 4.774 0 0 1-.586.785 5.067 5.067 0 0 1-1.57 1.156c-.297.14-.606.246-.926.328a5.034 5.034 0 0 1-2.895-.16 4.823 4.823 0 0 1-.883-.422 5.03 5.03 0 0 1-1.437-1.32 4.826 4.826 0 0 1-.496-.844 5.034 5.034 0 0 1-.406-2.871c.054-.324.136-.64.25-.95a4.965 4.965 0 0 1 2.593-2.808c.297-.136.602-.246.918-.324a4.995 4.995 0 0 1 1.934-.082c.324.047.636.129.945.242a4.86 4.86 0 0 1 1.652 1.004c.243.219.457.461.653.723.191.265.355.543.492.84Zm0 0" clip-path="url(#o)" style="fill:#fff"/>
  <path d="M115.734 232.133c.141.297.25.605.329.922.082.32.128.64.144.968a4.977 4.977 0 0 1-.293 1.93 4.93 4.93 0 0 1-1.734 2.324c-.266.196-.543.36-.844.5-.297.141-.602.25-.922.328a5.078 5.078 0 0 1-1.95.086 4.987 4.987 0 0 1-.948-.246 4.948 4.948 0 0 1-.883-.422 4.998 4.998 0 0 1-1.434-1.32 4.806 4.806 0 0 1-.82-1.77 4.747 4.747 0 0 1-.137-.968 4.988 4.988 0 0 1 2.898-4.734c.294-.137.602-.247.919-.325.316-.074.636-.12.96-.136a4.901 4.901 0 0 1 1.914.297c.31.109.598.25.88.421.277.168.535.364.777.582.238.22.457.461.648.727.192.262.36.539.496.836Zm0 0" clip-path="url(#p)" style="fill:#fff"/>
  <path d="M129.96 225.586c.142.297.25.605.33.922.081.32.128.644.144.972.015.325 0 .653-.051.977-.047.324-.13.64-.242.95-.11.308-.25.605-.418.886-.172.277-.368.539-.586.785a5.04 5.04 0 0 1-.73.652 4.673 4.673 0 0 1-.84.5 4.927 4.927 0 0 1-1.895.465c-.328.016-.656 0-.98-.05a5.287 5.287 0 0 1-.95-.243 5.098 5.098 0 0 1-.883-.425 5.188 5.188 0 0 1-.78-.59 4.64 4.64 0 0 1-.653-.73 4.863 4.863 0 0 1-.82-1.766 4.823 4.823 0 0 1-.137-.973 4.988 4.988 0 0 1 3.816-5.055c.317-.078.637-.125.961-.14a5.046 5.046 0 0 1 1.914.297c.309.109.602.25.88.421a4.919 4.919 0 0 1 1.92 2.145Zm0 0" clip-path="url(#q)" style="fill:#fff"/>
  <path d="M238.5 222.777a5.107 5.107 0 0 1-1.117 1.602 5.082 5.082 0 0 1-1.64 1.05 5.221 5.221 0 0 1-.946.266c-.32.055-.649.082-.977.075a5.091 5.091 0 0 1-.972-.118 4.922 4.922 0 0 1-1.781-.785 5.084 5.084 0 0 1-.747-.64 4.966 4.966 0 0 1-1.305-2.59 4.798 4.798 0 0 1-.074-.977c.008-.328.051-.652.121-.972a5.071 5.071 0 0 1 .79-1.781 5.079 5.079 0 0 1 1.414-1.345c.28-.171.57-.32.879-.437a5.092 5.092 0 0 1 1.922-.328c.328.008.652.05.968.125.32.07.633.176.93.308.3.133.582.293.847.48a4.971 4.971 0 0 1 1.34 1.4 4.905 4.905 0 0 1 .695 1.809c.06.32.083.644.075.968a5.051 5.051 0 0 1-.117.968 5.424 5.424 0 0 1-.305.922" clip-path="url(#r)" style="fill:#fff"/>
  <path d="M215.11 212.305a4.827 4.827 0 0 1 1.113-1.598 4.835 4.835 0 0 1 1.645-1.05 4.62 4.62 0 0 1 .94-.266c.325-.059.649-.086.977-.078.328.007.653.046.973.117.32.07.633.172.93.304.3.133.585.293.855.48.27.188.516.403.742.641a4.966 4.966 0 0 1 1.309 2.59c.054.32.082.649.074.977-.012.328-.05.652-.121.973a5.19 5.19 0 0 1-.309.93 5.021 5.021 0 0 1-1.898 2.195c-.278.171-.567.32-.875.437a4.903 4.903 0 0 1-.945.258 5.115 5.115 0 0 1-.977.07 5.096 5.096 0 0 1-.973-.12 5.001 5.001 0 0 1-1.773-.793 4.945 4.945 0 0 1-1.34-1.398 5.045 5.045 0 0 1-.7-1.809 5.034 5.034 0 0 1 .048-1.935c.07-.32.172-.625.304-.925Zm0 0" clip-path="url(#s)" style="fill:#fff"/>
  <path d="M200.809 205.902c.132-.3.289-.586.476-.855a5 5 0 0 1 5.172-2.02c.32.07.633.172.93.305a5.027 5.027 0 0 1 2.203 1.89c.176.278.324.567.441.876a4.954 4.954 0 0 1 .336 1.918c-.008.328-.05.652-.12.972-.071.32-.177.633-.31.93a4.865 4.865 0 0 1-1.125 1.594 5.007 5.007 0 0 1-.773.601 4.835 4.835 0 0 1-1.82.7c-.32.054-.649.078-.977.07a5.101 5.101 0 0 1-1.902-.434 5.001 5.001 0 0 1-.844-.48 4.78 4.78 0 0 1-.738-.633 5.138 5.138 0 0 1-.602-.766 5.192 5.192 0 0 1-.437-.87 5.22 5.22 0 0 1-.262-.938 5.034 5.034 0 0 1 .047-1.934c.07-.32.172-.629.305-.926Zm0 0" clip-path="url(#t)" style="fill:#fff"/>
  <path d="M309.637 254.531c-.133.301-.29.586-.477.856s-.402.515-.637.746a5 5 0 0 1-.77.605 4.835 4.835 0 0 1-.874.442 4.62 4.62 0 0 1-.942.265 5.121 5.121 0 0 1-.976.078 5.091 5.091 0 0 1-.973-.117 5.549 5.549 0 0 1-.933-.304 4.976 4.976 0 0 1-.852-.485 4.804 4.804 0 0 1-.742-.637 5.196 5.196 0 0 1-.606-.77 5.248 5.248 0 0 1-.44-.874 5.3 5.3 0 0 1-.263-.945 5.115 5.115 0 0 1 .047-1.95 4.94 4.94 0 0 1 .793-1.781 5.007 5.007 0 0 1 2.29-1.781 4.98 4.98 0 0 1 .945-.258c.324-.059.648-.078.976-.07a4.91 4.91 0 0 1 1.902.434c.297.132.579.288.848.476.266.187.512.402.738.637a4.913 4.913 0 0 1 1.035 1.637c.118.3.208.613.262.937a5.034 5.034 0 0 1-.047 1.933 4.76 4.76 0 0 1-.304.926" clip-path="url(#u)" style="fill:#fff"/>
  <path d="M286.246 244.059a5.107 5.107 0 0 1 1.117-1.602 5.082 5.082 0 0 1 1.64-1.05c.306-.118.622-.208.942-.266.325-.055.653-.082.98-.075.329.008.653.047.973.118a4.922 4.922 0 0 1 1.781.785c.27.187.52.402.747.636.226.239.426.497.601.774.176.277.325.566.442.875.12.305.207.621.261.941.06.325.082.649.075.977a4.802 4.802 0 0 1-.121.973c-.07.32-.172.632-.305.93-.133.3-.297.585-.484.855a5.007 5.007 0 0 1-4.21 2.11 5.101 5.101 0 0 1-1.904-.435 5.036 5.036 0 0 1-1.586-1.113 4.913 4.913 0 0 1-1.035-1.637 5.037 5.037 0 0 1-.336-1.906c.008-.328.047-.648.121-.965.07-.32.172-.629.301-.925Zm0 0" clip-path="url(#v)" style="fill:#fff"/>
  <path d="M271.945 237.656a5.107 5.107 0 0 1 1.118-1.601 4.82 4.82 0 0 1 .769-.606 4.922 4.922 0 0 1 2.793-.785c.328.004.652.043.973.117.32.07.629.172.93.305.3.129.585.289.85.48a4.833 4.833 0 0 1 1.349 1.41 5.003 5.003 0 0 1 .707 1.816c.054.325.078.65.07.978a4.802 4.802 0 0 1-.121.972 4.885 4.885 0 0 1-.79 1.781c-.19.27-.402.516-.64.743a5.007 5.007 0 0 1-2.594 1.3 4.814 4.814 0 0 1-.976.067 4.91 4.91 0 0 1-1.902-.434 4.76 4.76 0 0 1-.848-.476 4.965 4.965 0 0 1-2.035-3.207 5.053 5.053 0 0 1-.075-.973c.008-.324.047-.645.122-.965.07-.316.171-.625.3-.922Zm0 0" clip-path="url(#w)" style="fill:#fff"/>
  <path d="M257.652 231.254c.133-.3.29-.586.477-.856s.402-.515.637-.746a5 5 0 0 1 4.535-1.273c.32.07.633.172.93.305a5.027 5.027 0 0 1 2.203 1.89 4.954 4.954 0 0 1 .777 2.793 5.096 5.096 0 0 1-.43 1.906 4.976 4.976 0 0 1-1.898 2.192 4.835 4.835 0 0 1-1.82.7 5.115 5.115 0 0 1-.977.07 5.101 5.101 0 0 1-1.902-.434 5.001 5.001 0 0 1-.844-.48 4.971 4.971 0 0 1-.738-.633 4.725 4.725 0 0 1-.598-.77 4.766 4.766 0 0 1-.7-1.805 4.974 4.974 0 0 1 .348-2.86Zm0 0" clip-path="url(#x)" style="fill:#fff"/>
  <path d="M243.36 224.855c.128-.3.288-.585.476-.855a5 5 0 0 1 6.102-1.719c.3.133.585.293.855.485.27.187.516.398.742.636a4.966 4.966 0 0 1 1.309 2.59c.054.324.082.649.074.977-.012.328-.05.652-.121.972a5.19 5.19 0 0 1-.309.93c-.133.3-.293.586-.484.852a5.007 5.007 0 0 1-3.234 2.043 4.814 4.814 0 0 1-.977.066 4.91 4.91 0 0 1-1.902-.434 4.727 4.727 0 0 1-.844-.476 4.6 4.6 0 0 1-.738-.637 4.766 4.766 0 0 1-.602-.765 5.011 5.011 0 0 1-.7-1.805 5.052 5.052 0 0 1 .048-1.938c.07-.316.172-.625.304-.922Zm0 0" clip-path="url(#y)" style="fill:#fff"/>
  <path d="M44.727 86.11c-8.418 0-15.239 6.824-15.239 15.238s6.82 15.234 15.239 15.234c8.414 0 15.234-6.82 15.234-15.234s-6.82-15.239-15.234-15.239Zm0 22.671a7.412 7.412 0 0 1-7.414-7.41c0-4.09 3.32-7.406 7.414-7.406a7.407 7.407 0 0 1 7.406 7.406 7.408 7.408 0 0 1-7.406 7.41Zm0 0" clip-path="url(#z)" style="fill:#fff"/>
  <path d="M187.5 22.578c-8.242 0-14.918 6.684-14.918 14.922 0 8.234 6.676 14.914 14.918 14.914 8.238 0 14.914-6.68 14.914-14.914 0-8.238-6.676-14.922-14.914-14.922Zm0 22.195c-4.008 0-7.258-3.246-7.258-7.25a7.255 7.255 0 0 1 7.258-7.253 7.251 7.251 0 0 1 7.25 7.253 7.25 7.25 0 0 1-7.25 7.25Zm0 0" clip-path="url(#A)" style="fill:#fff"/>
  <path d="M187.5 149.281c-8.242 0-14.918 6.684-14.918 14.922 0 8.234 6.676 14.914 14.918 14.914 8.238 0 14.914-6.68 14.914-14.914 0-8.238-6.676-14.922-14.914-14.922Zm0 22.196c-4.008 0-7.258-3.247-7.258-7.25a7.255 7.255 0 0 1 7.258-7.254 7.251 7.251 0 0 1 7.25 7.254 7.25 7.25 0 0 1-7.25 7.25Zm0 0" clip-path="url(#B)" style="fill:#fff"/>
  <path d="M330.418 86.11c-8.414 0-15.238 6.824-15.238 15.238s6.824 15.234 15.238 15.234 15.234-6.82 15.234-15.234-6.82-15.239-15.234-15.239Zm0 22.671a7.409 7.409 0 1 1-.003-14.817 7.409 7.409 0 0 1 .003 14.817Zm0 0" clip-path="url(#C)" style="fill:#fff"/>
  <path d="M44.727 252.5c-8.418 0-15.239 6.824-15.239 15.238 0 8.41 6.82 15.23 15.239 15.23 8.414 0 15.234-6.82 15.234-15.23 0-8.414-6.82-15.238-15.234-15.238Zm0 22.668c-4.094 0-7.414-3.316-7.414-7.406 0-4.094 3.32-7.41 7.414-7.41a7.408 7.408 0 0 1 7.406 7.41 7.407 7.407 0 0 1-7.406 7.406Zm0 0" clip-path="url(#D)" style="fill:#fff"/>
  <path d="M187.816 316.07c-8.414 0-15.234 6.825-15.234 15.243 0 8.41 6.82 15.23 15.234 15.23s15.235-6.82 15.235-15.23c0-8.418-6.82-15.243-15.235-15.243Zm0 22.672a7.411 7.411 0 0 1-7.41-7.41 7.41 7.41 0 0 1 7.41-7.406 7.407 7.407 0 0 1 7.407 7.406 7.408 7.408 0 0 1-7.407 7.41Zm0 0" clip-path="url(#E)" style="fill:#fff"/>
  <path d="M330.418 252.5c-8.414 0-15.238 6.824-15.238 15.238 0 8.41 6.824 15.23 15.238 15.23s15.234-6.82 15.234-15.23c0-8.414-6.82-15.238-15.234-15.238Zm0 22.668a7.408 7.408 0 1 1 0-14.816 7.408 7.408 0 0 1 7.406 7.41 7.407 7.407 0 0 1-7.406 7.406Zm0 0" clip-path="url(#F)" style="fill:#fff"/>
</svg>
