<?xml version="1.0" encoding="utf-8"?>
<svg viewBox="29.4883 22.5781 316.1641 323.9648" width="421.552px" height="431.953px" preserveAspectRatio="none" xmlns="http://www.w3.org/2000/svg"><defs><clipPath id="8d7486564d"><path d="M 39.085938 32 L 336 32 L 336 339.476562 L 39.085938 339.476562 Z M 39.085938 32 " clip-rule="nonzero"/></clipPath><clipPath id="0d8d53636b"><path d="M 182.421875 56.59375 L 192.921875 56.59375 L 192.921875 67 L 182.421875 67 Z M 182.421875 56.59375 " clip-rule="nonzero"/></clipPath><clipPath id="eb8eaa6ad3"><path d="M 182.421875 72 L 192.921875 72 L 192.921875 83 L 182.421875 83 Z M 182.421875 72 " clip-rule="nonzero"/></clipPath><clipPath id="f1d2f15027"><path d="M 182.421875 88 L 192.921875 88 L 192.921875 99 L 182.421875 99 Z M 182.421875 88 " clip-rule="nonzero"/></clipPath><clipPath id="0c75d726f0"><path d="M 182.421875 103 L 192.921875 103 L 192.921875 114 L 182.421875 114 Z M 182.421875 103 " clip-rule="nonzero"/></clipPath><clipPath id="3410599854"><path d="M 182.421875 119 L 192.921875 119 L 192.921875 129.34375 L 182.421875 129.34375 Z M 182.421875 119 " clip-rule="nonzero"/></clipPath><clipPath id="71efd71b20"><path d="M 182.300781 103.742188 L 192.800781 103.742188 L 192.800781 114 L 182.300781 114 Z M 182.300781 103.742188 " clip-rule="nonzero"/></clipPath><clipPath id="162bf1f6df"><path d="M 182.300781 119 L 192.800781 119 L 192.800781 130 L 182.300781 130 Z M 182.300781 119 " clip-rule="nonzero"/></clipPath><clipPath id="75e7ffeecc"><path d="M 182.300781 135 L 192.800781 135 L 192.800781 146 L 182.300781 146 Z M 182.300781 135 " clip-rule="nonzero"/></clipPath><clipPath id="e7d715b675"><path d="M 132.347656 218.417969 L 198.4375 188.011719 L 202.828125 197.550781 L 136.738281 227.957031 Z M 132.347656 218.417969 " clip-rule="nonzero"/></clipPath><clipPath id="7b5ad5ce81"><path d="M 132.347656 218.417969 L 198.4375 188.011719 L 202.828125 197.550781 L 136.738281 227.957031 Z M 132.347656 218.417969 " clip-rule="nonzero"/></clipPath><clipPath id="1b4b77d4ac"><path d="M 132.347656 218.417969 L 198.4375 188.011719 L 202.828125 197.550781 L 136.738281 227.957031 Z M 132.347656 218.417969 " clip-rule="nonzero"/></clipPath><clipPath id="716a532f33"><path d="M 61.617188 251.066406 L 127.707031 220.65625 L 132.09375 230.195312 L 66.003906 260.605469 Z M 61.617188 251.066406 " clip-rule="nonzero"/></clipPath><clipPath id="402ee0d73a"><path d="M 61.617188 251.066406 L 127.707031 220.65625 L 132.09375 230.195312 L 66.003906 260.605469 Z M 61.617188 251.066406 " clip-rule="nonzero"/></clipPath><clipPath id="825b62191c"><path d="M 61.617188 251.066406 L 127.707031 220.65625 L 132.09375 230.195312 L 66.003906 260.605469 Z M 61.617188 251.066406 " clip-rule="nonzero"/></clipPath><clipPath id="a150e640c0"><path d="M 61.617188 251.066406 L 127.707031 220.65625 L 132.09375 230.195312 L 66.003906 260.605469 Z M 61.617188 251.066406 " clip-rule="nonzero"/></clipPath><clipPath id="85ed1fb761"><path d="M 61.617188 251.066406 L 127.707031 220.65625 L 132.09375 230.195312 L 66.003906 260.605469 Z M 61.617188 251.066406 " clip-rule="nonzero"/></clipPath><clipPath id="c86f16038f"><path d="M 236.390625 227.773438 L 169.996094 198.042969 L 174.285156 188.460938 L 240.683594 218.191406 Z M 236.390625 227.773438 " clip-rule="nonzero"/></clipPath><clipPath id="0673d1194b"><path d="M 236.390625 227.773438 L 169.996094 198.042969 L 174.285156 188.460938 L 240.683594 218.191406 Z M 236.390625 227.773438 " clip-rule="nonzero"/></clipPath><clipPath id="a040188290"><path d="M 236.390625 227.773438 L 169.996094 198.042969 L 174.285156 188.460938 L 240.683594 218.191406 Z M 236.390625 227.773438 " clip-rule="nonzero"/></clipPath><clipPath id="e56f3f0df0"><path d="M 307.53125 259.527344 L 241.132812 229.796875 L 245.425781 220.210938 L 311.820312 249.945312 Z M 307.53125 259.527344 " clip-rule="nonzero"/></clipPath><clipPath id="1c38687e91"><path d="M 307.53125 259.527344 L 241.132812 229.796875 L 245.425781 220.210938 L 311.820312 249.945312 Z M 307.53125 259.527344 " clip-rule="nonzero"/></clipPath><clipPath id="931dd4f06a"><path d="M 307.53125 259.527344 L 241.132812 229.796875 L 245.425781 220.210938 L 311.820312 249.945312 Z M 307.53125 259.527344 " clip-rule="nonzero"/></clipPath><clipPath id="ff2ee930ab"><path d="M 307.53125 259.527344 L 241.132812 229.796875 L 245.425781 220.210938 L 311.820312 249.945312 Z M 307.53125 259.527344 " clip-rule="nonzero"/></clipPath><clipPath id="986214cbf3"><path d="M 307.53125 259.527344 L 241.132812 229.796875 L 245.425781 220.210938 L 311.820312 249.945312 Z M 307.53125 259.527344 " clip-rule="nonzero"/></clipPath><clipPath id="8ff5e7a2e9"><path d="M 29.488281 86.113281 L 59.929688 86.113281 L 59.929688 116.554688 L 29.488281 116.554688 Z M 29.488281 86.113281 " clip-rule="nonzero"/></clipPath><clipPath id="f75d9249ac"><path d="M 172.582031 22.582031 L 202.386719 22.582031 L 202.386719 52.386719 L 172.582031 52.386719 Z M 172.582031 22.582031 " clip-rule="nonzero"/></clipPath><clipPath id="27679e8efc"><path d="M 172.582031 149.285156 L 202.386719 149.285156 L 202.386719 179.089844 L 172.582031 179.089844 Z M 172.582031 149.285156 " clip-rule="nonzero"/></clipPath><clipPath id="e5f93e8c86"><path d="M 315.179688 86.113281 L 345.621094 86.113281 L 345.621094 116.554688 L 315.179688 116.554688 Z M 315.179688 86.113281 " clip-rule="nonzero"/></clipPath><clipPath id="67d6f23fff"><path d="M 29.488281 252.5 L 59.929688 252.5 L 59.929688 282.941406 L 29.488281 282.941406 Z M 29.488281 252.5 " clip-rule="nonzero"/></clipPath><clipPath id="b53a5a1f6c"><path d="M 172.582031 316.074219 L 203.023438 316.074219 L 203.023438 346.515625 L 172.582031 346.515625 Z M 172.582031 316.074219 " clip-rule="nonzero"/></clipPath><clipPath id="1c7486db8d"><path d="M 315.179688 252.5 L 345.621094 252.5 L 345.621094 282.941406 L 315.179688 282.941406 Z M 315.179688 252.5 " clip-rule="nonzero"/></clipPath></defs><g id="object-0" transform="matrix(1, 0, 0, 1, 7.105427357601002e-15, 4.440892098500626e-16)"><g><path d="M 177.3 36.403 C 177.132 37.672 177.269 38.945 177.545 40.116 C 177.901 41.63 178.529 43.143 179.675 44.377 C 180.044 44.775 180.509 45.183 181.026 45.578 L 55.746 101.734 L 179.287 157.111 C 178.044 158.592 176.797 160.687 176.327 162.173 C 175.833 163.737 175.955 165.145 176.299 166.619 L 50.562 110.252 C 50.809 110.074 51.048 109.879 51.276 109.667 C 52.685 108.359 54.229 105.892 54.777 104.036 C 55.261 102.396 55.137 100.694 54.777 99.166 C 54.42 97.652 53.634 96.096 52.646 94.905 C 52.111 94.26 51.493 93.64 50.795 93.114 Z M 48.98 258.318 C 47.303 257.823 45.037 257.705 43.464 257.902 C 41.944 258.093 40.725 258.406 39.507 259.424 C 39.37 259.539 39.229 259.667 39.086 259.806 L 39.086 110.146 C 40.202 110.878 41.433 111.496 42.449 111.798 C 44.015 112.263 45.555 112.144 47.015 111.798 C 47.669 111.643 48.335 111.433 48.98 111.149 Z M 178.888 324.799 C 177.908 326.134 177.022 327.723 176.631 328.975 C 176.084 330.733 176.258 332.555 176.631 334.15 C 176.673 334.331 176.719 334.512 176.769 334.69 L 50.887 278.259 C 51.153 278.101 51.418 277.913 51.682 277.687 C 53.229 276.365 55.487 273.248 56.096 271.142 C 56.22 270.712 56.293 270.283 56.326 269.856 Z M 182.551 174.372 C 183.406 174.829 184.26 175.196 185.002 175.414 C 186.692 175.909 188.344 175.774 189.872 175.414 C 190.748 175.207 191.624 174.911 192.445 174.475 L 192.445 322.703 C 191.933 322.351 191.382 322.052 190.785 321.822 C 189.086 321.168 186.458 320.992 184.698 321.213 C 183.916 321.311 183.214 321.442 182.551 321.684 Z M 319.2 269.619 C 319.251 269.926 319.315 270.231 319.387 270.534 C 319.739 272.018 320.371 273.561 321.518 274.795 C 322.466 275.816 324.003 276.904 325.498 277.637 L 196.693 335.378 C 196.826 335.06 196.938 334.749 197.025 334.454 C 197.509 332.814 197.405 331.173 197.025 329.584 C 196.682 328.151 195.923 326.541 195.026 325.284 Z M 326.016 110.426 C 326.839 110.895 327.663 111.278 328.366 111.494 C 329.953 111.98 331.472 111.84 332.932 111.494 C 333.936 111.255 334.966 110.889 335.91 110.323 L 335.91 259.904 C 335.067 259.312 334.142 258.814 333.237 258.511 C 331.482 257.922 329.151 257.948 327.453 258.206 C 326.948 258.283 326.472 258.365 326.016 258.48 Z M 319.25 101.734 L 194.204 45.681 C 195.594 44.356 197.095 41.94 197.634 40.116 C 197.991 38.906 198.017 37.661 197.862 36.478 L 324.223 93.123 C 324.183 93.159 324.144 93.195 324.105 93.231 C 322.696 94.539 321.152 97.006 320.605 98.862 C 320.121 100.502 320.279 102.233 320.605 103.732 C 320.916 105.165 321.36 106.493 322.431 107.689 C 323.081 108.414 324.093 109.22 325.179 109.918 L 197.79 167.026 C 198.063 165.676 197.934 164.351 197.634 163.086 C 197.282 161.602 196.585 160.11 195.503 158.825 C 195.19 158.453 194.827 158.067 194.428 157.687 Z" fill-opacity="1" fill-rule="nonzero" style="fill: rgb(68, 84, 106);" clip-path="url(#8d7486564d)"/></g><g><path d="M 177.796 36.469 C 177.628 37.678 177.761 38.861 178.032 40.002 C 178.375 41.477 178.943 42.877 180.042 44.037 C 180.392 44.417 180.826 44.796 181.33 45.181 L 181.998 45.69 L 56.968 101.734 L 180.097 156.926 L 179.67 157.432 C 178.45 158.881 177.25 160.89 176.804 162.324 C 176.32 163.791 176.448 165.067 176.786 166.505 L 177.017 167.489 L 49.565 110.353 L 50.27 109.846 C 50.505 109.677 50.72 109.502 50.936 109.301 C 52.303 108.043 53.777 105.689 54.297 103.894 C 54.772 102.343 54.644 100.77 54.29 99.281 C 53.954 97.822 53.218 96.368 52.261 95.224 C 51.742 94.596 51.165 94.016 50.494 93.513 L 49.816 93.005 L 177.919 35.578 Z M 51.735 93.241 C 52.21 93.663 52.48 93.924 53.031 94.586 C 54.05 95.824 54.886 97.482 55.264 99.051 C 55.426 99.747 55.54 100.495 55.574 101.263 L 180.081 45.454 C 179.796 45.208 179.696 45.133 179.309 44.717 C 178.115 43.409 177.427 41.783 177.058 40.231 C 176.777 39.029 176.703 38.249 176.737 37.204 Z M 55.572 102.204 C 55.541 102.863 55.442 103.528 55.257 104.178 C 54.681 106.095 53.067 108.675 51.616 110.033 C 51.564 110.081 51.532 110.112 51.512 110.13 L 175.625 165.769 C 175.441 164.566 175.346 163.683 175.85 162.022 C 176.344 160.484 177.367 158.768 178.493 157.303 Z M 48.838 258.798 C 47.219 258.312 45.055 258.203 43.526 258.398 C 42.037 258.583 40.948 258.839 39.828 259.807 C 39.699 259.916 39.571 260.031 39.435 260.165 L 38.586 260.991 L 38.586 109.219 L 39.36 109.728 C 40.451 110.446 41.616 111.033 42.591 111.319 C 44.067 111.774 45.478 111.651 46.9 111.311 C 47.536 111.161 48.159 110.966 48.779 110.691 L 49.48 110.381 L 49.48 258.99 Z M 48.48 111.885 C 48.028 112.047 47.802 112.125 47.13 112.285 C 45.632 112.637 43.963 112.752 42.307 112.277 C 41.25 111.959 40.514 111.581 39.586 111.042 L 39.586 258.624 C 39.586 258.624 39.041 259.162 39.186 259.041 C 40.502 257.973 41.851 257.603 43.402 257.406 C 45.019 257.207 46.836 257.308 48.48 257.675 Z M 179.291 325.095 C 178.328 326.404 177.479 327.919 177.108 329.124 C 176.572 330.784 176.75 332.475 177.118 334.037 C 177.159 334.213 177.202 334.383 177.25 334.555 L 177.54 335.583 L 49.8 278.32 L 50.632 277.829 C 50.881 277.682 51.111 277.519 51.357 277.307 C 52.864 276.028 55.044 273.032 55.616 271.003 C 55.733 270.601 55.797 270.222 55.827 269.817 L 55.88 269.108 L 179.658 324.596 Z M 56.735 270.587 C 56.694 270.82 56.707 270.823 56.576 271.281 C 55.93 273.464 53.594 276.702 52.007 278.067 C 51.954 278.112 51.918 278.143 51.894 278.163 L 175.999 333.797 C 175.999 333.797 176.187 334.449 176.144 334.263 C 175.765 332.635 175.596 330.683 176.154 328.826 C 176.565 327.527 177.273 326.259 178.129 325.007 Z M 182.787 173.931 C 183.623 174.379 184.429 174.726 185.143 174.934 C 186.742 175.42 188.266 175.282 189.757 174.927 C 190.61 174.727 191.427 174.453 192.21 174.033 L 192.945 173.64 L 192.945 323.656 L 192.162 323.115 C 191.672 322.777 191.173 322.505 190.605 322.289 C 188.979 321.651 186.472 321.49 184.76 321.709 C 183.993 321.805 183.346 321.923 182.722 322.154 L 182.051 322.403 L 182.051 173.537 Z M 183.051 321.008 C 183.557 320.876 183.839 320.817 184.636 320.717 C 186.444 320.495 189.193 320.685 190.965 321.355 C 191.591 321.599 191.63 321.64 191.945 321.812 L 191.945 175.265 C 191.302 175.538 190.886 175.687 189.987 175.901 C 188.422 176.266 186.642 176.398 184.861 175.894 C 184.091 175.666 183.683 175.483 183.051 175.183 Z M 319.693 269.537 C 319.742 269.834 319.803 270.122 319.874 270.419 C 320.214 271.866 320.786 273.296 321.884 274.455 C 322.794 275.442 324.258 276.475 325.718 277.188 L 326.678 277.656 L 195.742 336.352 L 196.232 335.185 C 196.36 334.879 196.463 334.593 196.545 334.312 C 197.02 332.759 196.912 331.247 196.539 329.7 C 196.213 328.316 195.493 326.793 194.619 325.574 L 194.263 325.078 L 319.587 268.897 Z M 195.772 325.498 C 196.546 326.71 197.151 327.986 197.511 329.468 C 197.898 331.099 197.998 332.869 197.505 334.596 C 197.413 334.904 197.641 334.405 197.641 334.405 L 324.366 277.597 C 323.136 276.884 322.138 276.19 321.152 275.135 C 319.957 273.826 319.264 272.17 318.901 270.649 C 318.827 270.34 318.852 270.44 318.829 270.333 Z M 326.264 109.992 C 327.068 110.451 327.842 110.812 328.513 111.016 C 330.003 111.492 331.391 111.348 332.816 111.008 C 333.795 110.776 334.754 110.439 335.653 109.894 L 336.41 109.435 L 336.41 260.868 L 335.623 260.313 C 334.805 259.737 333.944 259.271 333.078 258.985 C 331.405 258.409 329.192 258.445 327.528 258.7 C 327.028 258.777 326.576 258.854 326.138 258.965 L 325.516 259.123 L 325.516 110.315 L 197.098 167.884 L 197.3 166.927 C 197.569 165.651 197.442 164.433 197.147 163.201 C 196.812 161.765 196.167 160.377 195.12 159.147 C 194.817 158.785 194.472 158.419 194.083 158.049 L 193.543 157.536 L 318.028 101.734 L 193.317 45.831 L 193.859 45.319 C 195.209 44.043 196.643 41.737 197.154 39.974 C 197.501 38.83 197.519 37.688 197.366 36.543 L 197.248 35.655 L 325.129 92.981 L 324.557 93.495 C 324.52 93.528 324.484 93.561 324.445 93.597 C 323.078 94.855 321.604 97.209 321.085 99.003 C 320.61 100.55 320.772 102.157 321.094 103.626 C 321.397 105.033 321.783 106.247 322.803 107.355 C 323.423 108.052 324.384 108.814 325.449 109.497 L 325.865 109.764 Z M 326.516 257.858 C 326.798 257.804 326.868 257.789 327.378 257.712 C 329.11 257.451 331.559 257.435 333.396 258.037 C 334.34 258.357 334.755 258.595 335.41 258.986 L 335.41 111.156 C 334.634 111.526 334.078 111.734 333.048 111.98 C 331.553 112.332 329.903 112.468 328.22 111.972 C 327.485 111.744 327.113 111.562 326.516 111.261 Z M 319.814 101.439 C 319.789 100.541 319.871 99.615 320.125 98.721 C 320.7 96.803 323.318 93.265 323.318 93.265 L 198.435 37.283 C 198.481 38.257 198.481 38.982 198.114 40.258 C 197.547 42.143 196.333 44.085 195.056 45.515 Z M 319.845 102.015 L 195.295 157.846 C 195.507 158.068 195.563 158.121 195.885 158.503 C 197.003 159.843 197.752 161.438 198.121 162.971 C 198.426 164.269 198.492 165.089 198.405 166.202 L 324.157 109.828 C 323.334 109.24 322.739 108.776 322.059 108.023 C 320.937 106.739 320.435 105.297 320.116 103.838 C 319.993 103.268 319.894 102.653 319.845 102.015 Z" style="fill: none;"/><path d="M 187.503906 56.714844 C 187.832031 56.710938 188.15625 56.738281 188.480469 56.800781 C 188.800781 56.863281 189.113281 56.953125 189.417969 57.078125 C 189.722656 57.199219 190.011719 57.351562 190.285156 57.53125 C 190.5625 57.710938 190.816406 57.917969 191.046875 58.148438 C 191.28125 58.378906 191.492188 58.628906 191.675781 58.898438 C 191.859375 59.171875 192.015625 59.457031 192.144531 59.761719 C 192.269531 60.0625 192.367188 60.375 192.433594 60.695312 C 192.5 61.019531 192.535156 61.34375 192.535156 61.671875 C 192.539062 62 192.507812 62.324219 192.445312 62.644531 C 192.382812 62.96875 192.289062 63.28125 192.167969 63.585938 C 192.042969 63.890625 191.890625 64.175781 191.710938 64.453125 C 191.527344 64.726562 191.324219 64.976562 191.09375 65.210938 C 190.859375 65.445312 190.609375 65.652344 190.335938 65.835938 C 190.066406 66.019531 189.777344 66.175781 189.476562 66.300781 C 189.171875 66.429688 188.859375 66.523438 188.539062 66.589844 C 188.21875 66.65625 187.894531 66.6875 187.566406 66.6875 C 187.238281 66.691406 186.910156 66.660156 186.589844 66.59375 C 186.265625 66.53125 185.953125 66.4375 185.652344 66.3125 C 185.347656 66.1875 185.058594 66.035156 184.785156 65.851562 C 184.511719 65.671875 184.261719 65.464844 184.027344 65.234375 C 183.796875 65 183.589844 64.75 183.40625 64.476562 C 183.222656 64.203125 183.070312 63.917969 182.941406 63.613281 C 182.816406 63.308594 182.722656 63 182.65625 62.675781 C 182.59375 62.355469 182.5625 62.03125 182.5625 61.703125 C 182.558594 61.375 182.589844 61.050781 182.652344 60.734375 C 182.714844 60.414062 182.808594 60.101562 182.929688 59.800781 C 183.054688 59.496094 183.207031 59.210938 183.386719 58.9375 C 183.566406 58.667969 183.769531 58.414062 184 58.183594 C 184.230469 57.953125 184.476562 57.746094 184.75 57.5625 C 185.019531 57.382812 185.304688 57.226562 185.605469 57.101562 C 185.90625 56.972656 186.214844 56.878906 186.535156 56.8125 C 186.855469 56.75 187.175781 56.714844 187.503906 56.714844 " fill-opacity="1" fill-rule="nonzero" style="fill: rgb(68, 84, 106);" clip-path="url(#0d8d53636b)"/><path d="M 187.498 56.215 C 187.85 56.212 188.226 56.244 188.576 56.31 C 188.918 56.378 189.275 56.481 189.605 56.614 C 189.934 56.747 190.264 56.921 190.558 57.112 C 190.857 57.308 191.149 57.546 191.398 57.792 C 191.648 58.04 191.892 58.33 192.091 58.62 C 192.286 58.912 192.466 59.242 192.606 59.57 C 192.739 59.892 192.851 60.251 192.923 60.595 C 192.993 60.942 193.033 61.315 193.035 61.669 C 193.038 62.024 193.002 62.396 192.936 62.74 C 192.868 63.088 192.759 63.451 192.631 63.776 C 192.495 64.103 192.316 64.436 192.126 64.732 C 191.929 65.024 191.694 65.313 191.447 65.565 C 191.196 65.815 190.909 66.052 190.616 66.25 C 190.325 66.447 189.993 66.626 189.67 66.762 C 189.34 66.9 188.982 67.008 188.641 67.079 C 188.293 67.15 187.92 67.186 187.569 67.188 C 187.215 67.19 186.839 67.154 186.492 67.084 C 186.144 67.016 185.786 66.908 185.461 66.775 C 185.135 66.639 184.803 66.464 184.507 66.267 C 184.212 66.071 183.921 65.83 183.671 65.585 C 183.426 65.335 183.19 65.049 182.991 64.755 C 182.795 64.46 182.617 64.128 182.479 63.803 C 182.346 63.476 182.238 63.118 182.165 62.772 C 182.1 62.427 182.064 62.057 182.062 61.705 C 182.06 61.35 182.096 60.979 182.162 60.638 C 182.23 60.294 182.338 59.933 182.467 59.611 C 182.603 59.283 182.779 58.953 182.971 58.66 C 183.163 58.373 183.398 58.081 183.646 57.83 C 183.893 57.585 184.178 57.346 184.473 57.146 C 184.761 56.956 185.087 56.777 185.411 56.641 C 185.738 56.502 186.097 56.394 186.439 56.322 C 186.78 56.256 187.408 56.224 187.408 56.224 C 187.429 56.221 187.579 57.209 187.6 57.206 C 187.6 57.206 186.934 57.244 186.633 57.303 C 186.336 57.364 186.077 57.442 185.802 57.561 C 185.526 57.675 185.279 57.809 185.028 57.978 C 184.777 58.145 184.568 58.321 184.354 58.537 C 184.141 58.747 183.97 58.962 183.803 59.214 C 183.636 59.467 183.506 59.709 183.392 59.991 C 183.279 60.27 183.2 60.534 183.143 60.83 C 183.084 61.122 183.057 61.396 183.062 61.697 C 183.061 62.001 183.087 62.281 183.146 62.577 C 183.207 62.878 183.286 63.139 183.403 63.421 C 183.522 63.704 183.651 63.946 183.821 64.198 C 183.99 64.451 184.165 64.662 184.381 64.881 C 184.598 65.096 184.808 65.27 185.06 65.434 C 185.31 65.604 185.559 65.735 185.842 65.85 C 186.119 65.966 186.385 66.046 186.684 66.103 C 186.978 66.165 187.259 66.193 187.56 66.188 C 187.865 66.189 188.144 66.163 188.438 66.1 C 188.737 66.039 189.003 65.96 189.282 65.84 C 189.56 65.726 189.807 65.593 190.054 65.423 C 190.308 65.254 190.522 65.077 190.739 64.859 C 190.953 64.643 191.123 64.433 191.293 64.178 C 191.461 63.92 191.59 63.68 191.704 63.399 C 191.818 63.116 191.898 62.85 191.954 62.55 C 192.013 62.253 192.04 61.979 192.035 61.678 C 192.037 61.377 192.007 61.097 191.944 60.796 C 191.884 60.5 191.8 60.233 191.683 59.954 C 191.565 59.672 191.433 59.431 191.261 59.177 C 191.093 58.928 190.915 58.718 190.696 58.505 C 190.485 58.291 190.269 58.115 190.013 57.951 C 189.761 57.783 189.514 57.653 189.233 57.543 C 188.954 57.427 188.684 57.349 188.385 57.292 C 188.087 57.233 187.814 57.21 187.51 57.215 Z" style="fill: none;"/><path d="M 187.503906 82.339844 C 187.175781 82.34375 186.851562 82.316406 186.527344 82.253906 C 186.203125 82.195312 185.890625 82.101562 185.585938 81.980469 C 185.28125 81.855469 184.992188 81.703125 184.71875 81.523438 C 184.445312 81.34375 184.191406 81.140625 183.957031 80.910156 C 183.722656 80.679688 183.515625 80.429688 183.328125 80.15625 C 183.144531 79.886719 182.988281 79.597656 182.859375 79.296875 C 182.734375 78.992188 182.636719 78.683594 182.570312 78.359375 C 182.503906 78.039062 182.46875 77.714844 182.46875 77.386719 C 182.464844 77.058594 182.496094 76.734375 182.558594 76.410156 C 182.621094 76.089844 182.710938 75.777344 182.835938 75.472656 C 182.960938 75.167969 183.113281 74.878906 183.292969 74.605469 C 183.476562 74.332031 183.679688 74.078125 183.910156 73.84375 C 184.140625 73.613281 184.394531 73.402344 184.664062 73.21875 C 184.9375 73.035156 185.226562 72.882812 185.527344 72.753906 C 185.832031 72.628906 186.144531 72.53125 186.464844 72.464844 C 186.785156 72.402344 187.109375 72.367188 187.4375 72.367188 C 187.765625 72.367188 188.09375 72.398438 188.414062 72.460938 C 188.734375 72.523438 189.050781 72.617188 189.351562 72.742188 C 189.65625 72.867188 189.945312 73.019531 190.21875 73.203125 C 190.492188 73.382812 190.742188 73.589844 190.976562 73.820312 C 191.207031 74.054688 191.414062 74.304688 191.597656 74.578125 C 191.78125 74.851562 191.933594 75.140625 192.0625 75.441406 C 192.1875 75.746094 192.28125 76.058594 192.347656 76.378906 C 192.410156 76.699219 192.441406 77.027344 192.441406 77.355469 C 192.445312 77.679688 192.414062 78.003906 192.351562 78.324219 C 192.289062 78.644531 192.195312 78.953125 192.074219 79.253906 C 191.949219 79.558594 191.800781 79.84375 191.621094 80.117188 C 191.441406 80.386719 191.234375 80.640625 191.003906 80.871094 C 190.777344 81.101562 190.527344 81.308594 190.257812 81.492188 C 189.988281 81.675781 189.699219 81.828125 189.402344 81.953125 C 189.101562 82.082031 188.789062 82.175781 188.472656 82.242188 C 188.152344 82.304688 187.828125 82.339844 187.503906 82.339844 Z M 187.503906 82.339844 " fill-opacity="1" fill-rule="nonzero" style="fill: rgb(68, 84, 106);" clip-path="url(#eb8eaa6ad3)"/><path d="M 187.503906 98.011719 C 187.175781 98.011719 186.851562 97.984375 186.527344 97.921875 C 186.203125 97.863281 185.890625 97.769531 185.585938 97.648438 C 185.28125 97.523438 184.992188 97.375 184.71875 97.191406 C 184.445312 97.011719 184.191406 96.808594 183.957031 96.578125 C 183.722656 96.347656 183.515625 96.097656 183.328125 95.824219 C 183.144531 95.554688 182.988281 95.265625 182.859375 94.964844 C 182.734375 94.664062 182.636719 94.351562 182.570312 94.03125 C 182.503906 93.707031 182.46875 93.382812 182.46875 93.054688 C 182.464844 92.726562 182.496094 92.402344 182.558594 92.078125 C 182.621094 91.757812 182.710938 91.445312 182.835938 91.140625 C 182.960938 90.835938 183.113281 90.546875 183.292969 90.273438 C 183.476562 90 183.679688 89.746094 183.910156 89.511719 C 184.140625 89.28125 184.394531 89.070312 184.664062 88.886719 C 184.9375 88.707031 185.226562 88.550781 185.527344 88.421875 C 185.832031 88.296875 186.144531 88.199219 186.464844 88.136719 C 186.785156 88.070312 187.109375 88.035156 187.4375 88.035156 C 187.765625 88.035156 188.09375 88.066406 188.414062 88.128906 C 188.734375 88.191406 189.050781 88.285156 189.351562 88.410156 C 189.65625 88.535156 189.945312 88.6875 190.21875 88.871094 C 190.492188 89.050781 190.742188 89.257812 190.976562 89.492188 C 191.207031 89.722656 191.414062 89.972656 191.597656 90.246094 C 191.78125 90.519531 191.933594 90.808594 192.0625 91.109375 C 192.1875 91.414062 192.28125 91.726562 192.347656 92.046875 C 192.410156 92.371094 192.441406 92.695312 192.441406 93.023438 C 192.445312 93.347656 192.414062 93.671875 192.351562 93.992188 C 192.289062 94.3125 192.195312 94.621094 192.074219 94.925781 C 191.949219 95.226562 191.800781 95.511719 191.621094 95.785156 C 191.441406 96.054688 191.234375 96.308594 191.003906 96.539062 C 190.777344 96.769531 190.527344 96.976562 190.257812 97.160156 C 189.988281 97.34375 189.699219 97.496094 189.402344 97.625 C 189.101562 97.75 188.789062 97.84375 188.472656 97.910156 C 188.152344 97.976562 187.828125 98.007812 187.503906 98.011719 Z M 187.503906 98.011719 " fill-opacity="1" fill-rule="nonzero" style="fill: rgb(68, 84, 106);" clip-path="url(#f1d2f15027)"/><path d="M 187.503906 113.671875 C 187.175781 113.675781 186.851562 113.648438 186.527344 113.585938 C 186.203125 113.523438 185.890625 113.433594 185.585938 113.308594 C 185.28125 113.1875 184.992188 113.035156 184.71875 112.855469 C 184.445312 112.675781 184.191406 112.46875 183.957031 112.242188 C 183.722656 112.011719 183.515625 111.757812 183.328125 111.488281 C 183.144531 111.214844 182.988281 110.929688 182.859375 110.628906 C 182.734375 110.324219 182.636719 110.011719 182.570312 109.691406 C 182.503906 109.371094 182.46875 109.046875 182.46875 108.71875 C 182.464844 108.390625 182.496094 108.066406 182.558594 107.742188 C 182.621094 107.421875 182.710938 107.105469 182.835938 106.804688 C 182.960938 106.5 183.113281 106.210938 183.292969 105.9375 C 183.476562 105.664062 183.679688 105.410156 183.910156 105.175781 C 184.140625 104.941406 184.394531 104.734375 184.664062 104.550781 C 184.9375 104.367188 185.226562 104.210938 185.527344 104.085938 C 185.832031 103.960938 186.144531 103.863281 186.464844 103.796875 C 186.785156 103.734375 187.109375 103.699219 187.4375 103.699219 C 187.765625 103.699219 188.09375 103.726562 188.414062 103.792969 C 188.734375 103.855469 189.050781 103.949219 189.351562 104.074219 C 189.65625 104.199219 189.945312 104.351562 190.21875 104.535156 C 190.492188 104.714844 190.742188 104.921875 190.976562 105.152344 C 191.207031 105.386719 191.414062 105.636719 191.597656 105.910156 C 191.78125 106.183594 191.933594 106.46875 192.0625 106.773438 C 192.1875 107.078125 192.28125 107.390625 192.347656 107.710938 C 192.410156 108.03125 192.441406 108.355469 192.441406 108.683594 C 192.445312 109.011719 192.414062 109.335938 192.351562 109.652344 C 192.289062 109.972656 192.195312 110.285156 192.074219 110.585938 C 191.949219 110.886719 191.796875 111.175781 191.617188 111.445312 C 191.4375 111.71875 191.234375 111.96875 191.003906 112.203125 C 190.777344 112.433594 190.527344 112.640625 190.257812 112.824219 C 189.984375 113.003906 189.699219 113.160156 189.398438 113.285156 C 189.101562 113.410156 188.789062 113.507812 188.472656 113.574219 C 188.152344 113.636719 187.828125 113.671875 187.503906 113.671875 Z M 187.503906 113.671875 " fill-opacity="1" fill-rule="nonzero" style="fill: rgb(68, 84, 106);" clip-path="url(#0c75d726f0)"/><path d="M 187.503906 129.332031 C 187.175781 129.335938 186.851562 129.308594 186.527344 129.246094 C 186.203125 129.1875 185.890625 129.09375 185.585938 128.972656 C 185.28125 128.847656 184.992188 128.695312 184.71875 128.515625 C 184.445312 128.335938 184.191406 128.132812 183.957031 127.902344 C 183.722656 127.671875 183.515625 127.421875 183.328125 127.148438 C 183.144531 126.878906 182.988281 126.589844 182.859375 126.289062 C 182.734375 125.984375 182.636719 125.675781 182.570312 125.351562 C 182.503906 125.03125 182.46875 124.707031 182.46875 124.378906 C 182.464844 124.050781 182.496094 123.726562 182.558594 123.402344 C 182.621094 123.082031 182.710938 122.769531 182.835938 122.464844 C 182.960938 122.160156 183.113281 121.871094 183.292969 121.597656 C 183.476562 121.324219 183.679688 121.070312 183.910156 120.835938 C 184.140625 120.605469 184.394531 120.394531 184.664062 120.210938 C 184.9375 120.027344 185.226562 119.875 185.527344 119.746094 C 185.832031 119.621094 186.144531 119.523438 186.464844 119.457031 C 186.785156 119.394531 187.109375 119.359375 187.4375 119.359375 C 187.765625 119.359375 188.09375 119.390625 188.414062 119.453125 C 188.734375 119.515625 189.050781 119.609375 189.351562 119.734375 C 189.65625 119.859375 189.945312 120.011719 190.21875 120.195312 C 190.492188 120.375 190.742188 120.582031 190.976562 120.8125 C 191.207031 121.046875 191.414062 121.296875 191.597656 121.570312 C 191.78125 121.84375 191.933594 122.132812 192.0625 122.433594 C 192.1875 122.738281 192.28125 123.050781 192.347656 123.371094 C 192.410156 123.691406 192.441406 124.019531 192.441406 124.347656 C 192.445312 124.671875 192.414062 124.996094 192.351562 125.316406 C 192.289062 125.636719 192.195312 125.945312 192.074219 126.246094 C 191.949219 126.550781 191.800781 126.835938 191.621094 127.109375 C 191.441406 127.378906 191.234375 127.632812 191.003906 127.863281 C 190.777344 128.09375 190.527344 128.300781 190.257812 128.484375 C 189.988281 128.667969 189.699219 128.820312 189.402344 128.945312 C 189.101562 129.074219 188.789062 129.167969 188.472656 129.234375 C 188.152344 129.296875 187.828125 129.332031 187.503906 129.332031 Z M 187.503906 129.332031 " fill-opacity="1" fill-rule="nonzero" style="fill: rgb(68, 84, 106);" clip-path="url(#3410599854)"/><path d="M 187.378906 103.859375 C 187.707031 103.855469 188.035156 103.886719 188.355469 103.945312 C 188.679688 104.007812 188.992188 104.101562 189.296875 104.222656 C 189.601562 104.347656 189.890625 104.496094 190.164062 104.675781 C 190.4375 104.859375 190.691406 105.0625 190.925781 105.292969 C 191.160156 105.523438 191.367188 105.773438 191.554688 106.046875 C 191.738281 106.316406 191.894531 106.605469 192.019531 106.90625 C 192.148438 107.207031 192.246094 107.519531 192.3125 107.839844 C 192.378906 108.164062 192.410156 108.488281 192.414062 108.816406 C 192.414062 109.144531 192.386719 109.46875 192.324219 109.792969 C 192.261719 110.113281 192.167969 110.425781 192.042969 110.730469 C 191.921875 111.035156 191.769531 111.324219 191.585938 111.597656 C 191.40625 111.871094 191.199219 112.125 190.96875 112.355469 C 190.738281 112.589844 190.488281 112.796875 190.214844 112.980469 C 189.941406 113.164062 189.65625 113.320312 189.351562 113.445312 C 189.050781 113.574219 188.738281 113.667969 188.417969 113.734375 C 188.09375 113.800781 187.769531 113.832031 187.441406 113.832031 C 187.113281 113.835938 186.789062 113.804688 186.46875 113.742188 C 186.144531 113.675781 185.832031 113.582031 185.527344 113.457031 C 185.226562 113.332031 184.9375 113.179688 184.664062 113 C 184.390625 112.816406 184.136719 112.609375 183.90625 112.378906 C 183.671875 112.148438 183.464844 111.894531 183.285156 111.621094 C 183.101562 111.351562 182.945312 111.0625 182.820312 110.757812 C 182.695312 110.457031 182.601562 110.144531 182.535156 109.820312 C 182.472656 109.5 182.4375 109.175781 182.4375 108.847656 C 182.4375 108.519531 182.46875 108.199219 182.53125 107.878906 C 182.59375 107.558594 182.683594 107.246094 182.808594 106.945312 C 182.929688 106.644531 183.082031 106.355469 183.261719 106.085938 C 183.441406 105.8125 183.648438 105.5625 183.875 105.328125 C 184.105469 105.097656 184.355469 104.890625 184.625 104.707031 C 184.898438 104.527344 185.183594 104.371094 185.484375 104.246094 C 185.78125 104.121094 186.09375 104.023438 186.414062 103.960938 C 186.730469 103.894531 187.054688 103.859375 187.378906 103.859375 " fill-opacity="1" fill-rule="nonzero" style="fill: rgb(68, 84, 106);" clip-path="url(#71efd71b20)"/><path d="M 187.378906 129.488281 C 187.050781 129.488281 186.726562 129.460938 186.40625 129.398438 C 186.082031 129.339844 185.769531 129.246094 185.464844 129.125 C 185.160156 129 184.871094 128.851562 184.597656 128.667969 C 184.324219 128.488281 184.070312 128.285156 183.835938 128.054688 C 183.601562 127.824219 183.390625 127.574219 183.207031 127.300781 C 183.023438 127.03125 182.867188 126.742188 182.738281 126.441406 C 182.609375 126.140625 182.515625 125.828125 182.449219 125.507812 C 182.382812 125.183594 182.347656 124.859375 182.34375 124.53125 C 182.34375 124.203125 182.375 123.878906 182.433594 123.554688 C 182.496094 123.234375 182.589844 122.921875 182.714844 122.617188 C 182.839844 122.3125 182.992188 122.023438 183.171875 121.75 C 183.351562 121.476562 183.558594 121.222656 183.789062 120.992188 C 184.019531 120.757812 184.269531 120.550781 184.542969 120.367188 C 184.816406 120.183594 185.101562 120.027344 185.40625 119.898438 C 185.707031 119.773438 186.019531 119.675781 186.34375 119.613281 C 186.664062 119.546875 186.988281 119.511719 187.316406 119.511719 C 187.644531 119.511719 187.96875 119.542969 188.292969 119.605469 C 188.613281 119.667969 188.925781 119.761719 189.230469 119.886719 C 189.535156 120.011719 189.820312 120.164062 190.09375 120.347656 C 190.367188 120.527344 190.621094 120.734375 190.851562 120.96875 C 191.085938 121.199219 191.292969 121.453125 191.476562 121.722656 C 191.660156 121.996094 191.8125 122.285156 191.9375 122.585938 C 192.066406 122.890625 192.160156 123.203125 192.222656 123.523438 C 192.289062 123.847656 192.320312 124.171875 192.320312 124.5 C 192.320312 124.824219 192.292969 125.148438 192.230469 125.46875 C 192.167969 125.789062 192.074219 126.097656 191.953125 126.402344 C 191.828125 126.703125 191.675781 126.988281 191.496094 127.261719 C 191.316406 127.53125 191.113281 127.785156 190.882812 128.015625 C 190.652344 128.246094 190.402344 128.453125 190.132812 128.636719 C 189.863281 128.820312 189.578125 128.972656 189.277344 129.101562 C 188.976562 129.226562 188.667969 129.320312 188.347656 129.386719 C 188.027344 129.453125 187.707031 129.484375 187.378906 129.488281 Z M 187.378906 129.488281 " fill-opacity="1" fill-rule="nonzero" style="fill: rgb(68, 84, 106);" clip-path="url(#162bf1f6df)"/><path d="M 187.378906 145.15625 C 187.050781 145.160156 186.726562 145.128906 186.40625 145.070312 C 186.082031 145.007812 185.769531 144.914062 185.464844 144.792969 C 185.160156 144.671875 184.871094 144.519531 184.597656 144.339844 C 184.324219 144.160156 184.070312 143.953125 183.835938 143.722656 C 183.601562 143.492188 183.390625 143.242188 183.207031 142.972656 C 183.023438 142.699219 182.867188 142.414062 182.738281 142.109375 C 182.609375 141.808594 182.515625 141.496094 182.449219 141.175781 C 182.382812 140.851562 182.347656 140.527344 182.34375 140.199219 C 182.34375 139.871094 182.375 139.546875 182.433594 139.226562 C 182.496094 138.902344 182.589844 138.589844 182.714844 138.285156 C 182.839844 137.980469 182.992188 137.691406 183.171875 137.417969 C 183.351562 137.144531 183.558594 136.890625 183.789062 136.660156 C 184.019531 136.425781 184.269531 136.21875 184.542969 136.035156 C 184.816406 135.851562 185.101562 135.695312 185.40625 135.570312 C 185.707031 135.441406 186.019531 135.347656 186.34375 135.28125 C 186.664062 135.214844 186.988281 135.183594 187.316406 135.179688 C 187.644531 135.179688 187.96875 135.210938 188.292969 135.273438 C 188.613281 135.335938 188.925781 135.429688 189.230469 135.554688 C 189.535156 135.679688 189.820312 135.835938 190.09375 136.015625 C 190.367188 136.199219 190.621094 136.40625 190.851562 136.636719 C 191.085938 136.867188 191.292969 137.121094 191.476562 137.390625 C 191.660156 137.664062 191.8125 137.953125 191.9375 138.257812 C 192.066406 138.558594 192.160156 138.871094 192.222656 139.191406 C 192.289062 139.515625 192.320312 139.839844 192.320312 140.167969 C 192.320312 140.496094 192.292969 140.816406 192.230469 141.136719 C 192.167969 141.457031 192.074219 141.769531 191.953125 142.070312 C 191.828125 142.371094 191.675781 142.65625 191.496094 142.929688 C 191.316406 143.203125 191.113281 143.453125 190.882812 143.683594 C 190.652344 143.917969 190.402344 144.125 190.132812 144.304688 C 189.863281 144.488281 189.578125 144.640625 189.277344 144.769531 C 188.976562 144.894531 188.667969 144.992188 188.347656 145.054688 C 188.027344 145.121094 187.707031 145.152344 187.378906 145.15625 Z M 187.378906 145.15625 " fill-opacity="1" fill-rule="nonzero" style="fill: rgb(68, 84, 106);" clip-path="url(#75e7ffeecc)"/><path d="M 134.722656 223.292969 C 134.582031 222.996094 134.472656 222.6875 134.394531 222.371094 C 134.3125 222.050781 134.265625 221.730469 134.25 221.402344 C 134.234375 221.074219 134.253906 220.746094 134.300781 220.421875 C 134.351562 220.097656 134.429688 219.78125 134.542969 219.472656 C 134.652344 219.164062 134.792969 218.871094 134.964844 218.589844 C 135.132812 218.308594 135.328125 218.046875 135.550781 217.804688 C 135.769531 217.5625 136.011719 217.34375 136.277344 217.148438 C 136.542969 216.953125 136.824219 216.789062 137.121094 216.648438 C 137.417969 216.511719 137.726562 216.402344 138.042969 216.324219 C 138.363281 216.246094 138.6875 216.199219 139.015625 216.183594 C 139.339844 216.171875 139.667969 216.1875 139.992188 216.238281 C 140.316406 216.289062 140.632812 216.367188 140.941406 216.480469 C 141.25 216.59375 141.542969 216.734375 141.824219 216.90625 C 142.105469 217.074219 142.363281 217.273438 142.605469 217.496094 C 142.847656 217.714844 143.066406 217.960938 143.257812 218.226562 C 143.453125 218.488281 143.617188 218.769531 143.757812 219.070312 C 143.894531 219.367188 144.003906 219.675781 144.078125 219.992188 C 144.15625 220.3125 144.203125 220.636719 144.214844 220.964844 C 144.230469 221.292969 144.210938 221.617188 144.160156 221.941406 C 144.109375 222.265625 144.027344 222.582031 143.914062 222.890625 C 143.800781 223.199219 143.65625 223.492188 143.488281 223.769531 C 143.316406 224.050781 143.117188 224.3125 142.894531 224.550781 C 142.671875 224.792969 142.429688 225.011719 142.164062 225.203125 C 141.898438 225.394531 141.617188 225.5625 141.316406 225.699219 C 141.023438 225.835938 140.714844 225.941406 140.398438 226.019531 C 140.082031 226.097656 139.761719 226.144531 139.4375 226.15625 C 139.109375 226.171875 138.785156 226.152344 138.464844 226.105469 C 138.140625 226.054688 137.828125 225.972656 137.519531 225.863281 C 137.214844 225.75 136.921875 225.609375 136.644531 225.441406 C 136.367188 225.273438 136.105469 225.078125 135.867188 224.855469 C 135.625 224.636719 135.410156 224.394531 135.214844 224.132812 C 135.023438 223.867188 134.859375 223.589844 134.722656 223.292969 " fill-opacity="1" fill-rule="nonzero" style="fill: rgb(68, 84, 106);" clip-path="url(#e7d715b675)"/><path d="M 158.003906 212.582031 C 158.144531 212.878906 158.253906 213.1875 158.332031 213.503906 C 158.410156 213.824219 158.457031 214.144531 158.472656 214.472656 C 158.488281 214.800781 158.472656 215.128906 158.425781 215.453125 C 158.375 215.777344 158.296875 216.09375 158.183594 216.402344 C 158.074219 216.710938 157.933594 217.003906 157.761719 217.285156 C 157.59375 217.566406 157.398438 217.828125 157.175781 218.070312 C 156.957031 218.3125 156.710938 218.53125 156.449219 218.726562 C 156.183594 218.921875 155.902344 219.089844 155.605469 219.226562 C 155.308594 219.367188 155 219.476562 154.683594 219.554688 C 154.363281 219.632812 154.039062 219.679688 153.710938 219.691406 C 153.382812 219.707031 153.058594 219.6875 152.734375 219.640625 C 152.410156 219.589844 152.09375 219.507812 151.785156 219.394531 C 151.476562 219.285156 151.183594 219.140625 150.902344 218.972656 C 150.621094 218.800781 150.359375 218.605469 150.117188 218.382812 C 149.878906 218.160156 149.660156 217.917969 149.464844 217.652344 C 149.273438 217.386719 149.105469 217.105469 148.96875 216.808594 C 148.832031 216.511719 148.722656 216.203125 148.644531 215.882812 C 148.566406 215.566406 148.523438 215.242188 148.507812 214.914062 C 148.496094 214.585938 148.515625 214.261719 148.566406 213.9375 C 148.617188 213.613281 148.699219 213.296875 148.8125 212.988281 C 148.925781 212.679688 149.066406 212.386719 149.238281 212.105469 C 149.410156 211.828125 149.605469 211.566406 149.828125 211.324219 C 150.050781 211.082031 150.296875 210.867188 150.5625 210.675781 C 150.828125 210.480469 151.109375 210.316406 151.40625 210.179688 C 151.703125 210.042969 152.007812 209.933594 152.324219 209.855469 C 152.640625 209.78125 152.964844 209.734375 153.289062 209.71875 C 153.613281 209.707031 153.9375 209.722656 154.261719 209.773438 C 154.582031 209.824219 154.898438 209.902344 155.203125 210.015625 C 155.507812 210.125 155.800781 210.265625 156.078125 210.4375 C 156.359375 210.605469 156.617188 210.800781 156.859375 211.019531 C 157.097656 211.238281 157.316406 211.480469 157.507812 211.746094 C 157.699219 212.007812 157.863281 212.285156 158.003906 212.582031 Z M 158.003906 212.582031 " fill-opacity="1" fill-rule="nonzero" style="fill: rgb(68, 84, 106);" clip-path="url(#7b5ad5ce81)"/><path d="M 172.238281 206.03125 C 172.378906 206.328125 172.488281 206.636719 172.566406 206.957031 C 172.644531 207.273438 172.691406 207.597656 172.707031 207.925781 C 172.722656 208.253906 172.707031 208.578125 172.660156 208.902344 C 172.609375 209.226562 172.53125 209.542969 172.417969 209.851562 C 172.308594 210.160156 172.167969 210.457031 171.996094 210.738281 C 171.828125 211.019531 171.632812 211.28125 171.410156 211.523438 C 171.191406 211.765625 170.945312 211.984375 170.683594 212.175781 C 170.417969 212.371094 170.136719 212.539062 169.839844 212.679688 C 169.542969 212.816406 169.234375 212.925781 168.917969 213.003906 C 168.597656 213.082031 168.273438 213.128906 167.945312 213.144531 C 167.617188 213.15625 167.292969 213.140625 166.96875 213.089844 C 166.644531 213.039062 166.328125 212.960938 166.019531 212.847656 C 165.710938 212.734375 165.417969 212.59375 165.136719 212.421875 C 164.855469 212.253906 164.59375 212.054688 164.351562 211.835938 C 164.113281 211.613281 163.894531 211.367188 163.699219 211.105469 C 163.507812 210.839844 163.339844 210.558594 163.203125 210.261719 C 163.066406 209.960938 162.957031 209.652344 162.878906 209.335938 C 162.800781 209.015625 162.757812 208.691406 162.742188 208.363281 C 162.730469 208.039062 162.75 207.710938 162.800781 207.386719 C 162.851562 207.0625 162.933594 206.746094 163.046875 206.4375 C 163.160156 206.128906 163.300781 205.835938 163.472656 205.558594 C 163.644531 205.277344 163.839844 205.015625 164.0625 204.777344 C 164.285156 204.535156 164.53125 204.316406 164.796875 204.125 C 165.0625 203.933594 165.34375 203.765625 165.640625 203.628906 C 165.9375 203.492188 166.242188 203.386719 166.558594 203.308594 C 166.875 203.230469 167.199219 203.183594 167.523438 203.171875 C 167.847656 203.15625 168.171875 203.175781 168.496094 203.222656 C 168.816406 203.273438 169.128906 203.355469 169.4375 203.464844 C 169.742188 203.578125 170.035156 203.71875 170.3125 203.886719 C 170.59375 204.054688 170.851562 204.25 171.09375 204.46875 C 171.332031 204.691406 171.550781 204.933594 171.742188 205.195312 C 171.933594 205.457031 172.097656 205.738281 172.238281 206.03125 Z M 172.238281 206.03125 " fill-opacity="1" fill-rule="nonzero" style="fill: rgb(68, 84, 106);" clip-path="url(#1b4b77d4ac)"/><path d="M 63.988 255.941 C 63.852 255.645 63.742 255.336 63.66 255.016 C 63.582 254.699 63.535 254.375 63.52 254.047 C 63.504 253.719 63.52 253.395 63.57 253.07 C 63.617 252.746 63.699 252.43 63.809 252.121 C 63.922 251.813 64.062 251.516 64.23 251.234 C 64.402 250.953 64.598 250.691 64.816 250.449 C 65.039 250.207 65.281 249.992 65.547 249.797 C 65.812 249.602 66.09 249.434 66.391 249.297 C 66.687 249.156 66.992 249.047 67.312 248.969 C 67.633 248.891 67.953 248.844 68.281 248.832 C 68.609 248.816 68.937 248.836 69.262 248.883 C 69.586 248.934 69.902 249.016 70.211 249.129 C 70.52 249.242 70.812 249.383 71.094 249.551 C 71.371 249.723 71.633 249.918 71.875 250.141 C 72.117 250.363 72.336 250.605 72.527 250.871 C 72.723 251.137 72.887 251.418 73.027 251.715 C 73.164 252.012 73.27 252.32 73.348 252.641 C 73.426 252.957 73.473 253.281 73.484 253.609 C 73.496 253.938 73.48 254.266 73.43 254.586 C 73.379 254.91 73.297 255.227 73.184 255.535 C 73.07 255.844 72.926 256.137 72.754 256.418 C 72.582 256.699 72.387 256.957 72.164 257.199 C 71.941 257.441 71.695 257.656 71.43 257.848 C 71.164 258.043 70.883 258.207 70.586 258.344 C 70.289 258.48 69.984 258.59 69.668 258.668 C 69.352 258.746 69.031 258.789 68.703 258.805 C 68.379 258.816 68.055 258.801 67.734 258.75 C 67.41 258.699 67.098 258.621 66.789 258.508 C 66.484 258.398 66.191 258.258 65.914 258.086 C 65.633 257.918 65.375 257.723 65.133 257.504 C 64.895 257.281 64.68 257.039 64.484 256.777 C 64.293 256.516 64.129 256.234 63.988 255.941" fill-opacity="1" fill-rule="nonzero" style="fill: rgb(68, 84, 106);" clip-path="url(#716a532f33)"/><path d="M 87.269531 245.226562 C 87.410156 245.523438 87.519531 245.832031 87.601562 246.152344 C 87.679688 246.46875 87.726562 246.792969 87.742188 247.121094 C 87.757812 247.449219 87.742188 247.773438 87.691406 248.097656 C 87.644531 248.421875 87.5625 248.738281 87.453125 249.046875 C 87.339844 249.355469 87.199219 249.652344 87.03125 249.933594 C 86.863281 250.214844 86.667969 250.476562 86.445312 250.71875 C 86.222656 250.960938 85.980469 251.179688 85.71875 251.375 C 85.453125 251.566406 85.171875 251.734375 84.875 251.875 C 84.578125 252.011719 84.269531 252.121094 83.949219 252.199219 C 83.632812 252.277344 83.308594 252.324219 82.980469 252.339844 C 82.652344 252.351562 82.328125 252.335938 82.003906 252.285156 C 81.679688 252.234375 81.363281 252.15625 81.054688 252.042969 C 80.746094 251.929688 80.449219 251.789062 80.171875 251.617188 C 79.890625 251.449219 79.628906 251.25 79.386719 251.03125 C 79.144531 250.808594 78.929688 250.5625 78.734375 250.300781 C 78.539062 250.035156 78.375 249.753906 78.238281 249.457031 C 78.097656 249.15625 77.992188 248.851562 77.914062 248.53125 C 77.835938 248.210938 77.792969 247.886719 77.777344 247.5625 C 77.765625 247.234375 77.78125 246.90625 77.832031 246.582031 C 77.886719 246.257812 77.96875 245.941406 78.082031 245.632812 C 78.195312 245.328125 78.335938 245.03125 78.507812 244.753906 C 78.679688 244.472656 78.875 244.210938 79.097656 243.972656 C 79.320312 243.730469 79.566406 243.511719 79.832031 243.320312 C 80.097656 243.128906 80.378906 242.964844 80.675781 242.824219 C 80.972656 242.6875 81.277344 242.582031 81.59375 242.503906 C 81.910156 242.425781 82.230469 242.378906 82.558594 242.367188 C 82.882812 242.351562 83.207031 242.371094 83.527344 242.417969 C 83.851562 242.46875 84.164062 242.550781 84.472656 242.660156 C 84.777344 242.773438 85.070312 242.914062 85.347656 243.082031 C 85.628906 243.25 85.886719 243.445312 86.125 243.667969 C 86.367188 243.886719 86.582031 244.128906 86.777344 244.390625 C 86.96875 244.652344 87.132812 244.933594 87.269531 245.226562 Z M 87.269531 245.226562 " fill-opacity="1" fill-rule="nonzero" style="fill: rgb(68, 84, 106);" clip-path="url(#402ee0d73a)"/><path d="M 101.503906 238.679688 C 101.644531 238.976562 101.753906 239.285156 101.835938 239.601562 C 101.914062 239.921875 101.960938 240.242188 101.976562 240.570312 C 101.992188 240.898438 101.976562 241.226562 101.925781 241.550781 C 101.878906 241.875 101.796875 242.191406 101.6875 242.5 C 101.574219 242.808594 101.433594 243.101562 101.265625 243.382812 C 101.097656 243.664062 100.902344 243.925781 100.679688 244.167969 C 100.457031 244.410156 100.214844 244.628906 99.949219 244.824219 C 99.6875 245.019531 99.40625 245.183594 99.109375 245.324219 C 98.8125 245.464844 98.503906 245.570312 98.183594 245.652344 C 97.867188 245.730469 97.542969 245.773438 97.214844 245.789062 C 96.886719 245.804688 96.5625 245.785156 96.238281 245.738281 C 95.914062 245.6875 95.597656 245.605469 95.289062 245.492188 C 94.980469 245.382812 94.683594 245.238281 94.40625 245.070312 C 94.125 244.898438 93.863281 244.703125 93.621094 244.480469 C 93.378906 244.257812 93.164062 244.015625 92.96875 243.75 C 92.773438 243.484375 92.609375 243.203125 92.472656 242.90625 C 92.332031 242.609375 92.226562 242.300781 92.148438 241.980469 C 92.070312 241.664062 92.027344 241.339844 92.011719 241.011719 C 92 240.683594 92.015625 240.359375 92.066406 240.035156 C 92.121094 239.710938 92.203125 239.394531 92.316406 239.085938 C 92.429688 238.777344 92.570312 238.484375 92.742188 238.203125 C 92.914062 237.921875 93.109375 237.664062 93.332031 237.421875 C 93.554688 237.179688 93.800781 236.964844 94.066406 236.769531 C 94.332031 236.578125 94.613281 236.414062 94.910156 236.277344 C 95.207031 236.140625 95.511719 236.03125 95.828125 235.953125 C 96.144531 235.875 96.464844 235.832031 96.792969 235.816406 C 97.117188 235.800781 97.441406 235.820312 97.761719 235.871094 C 98.085938 235.917969 98.398438 236 98.707031 236.113281 C 99.011719 236.222656 99.304688 236.363281 99.582031 236.53125 C 99.859375 236.703125 100.121094 236.898438 100.359375 237.117188 C 100.601562 237.335938 100.816406 237.578125 101.011719 237.839844 C 101.203125 238.105469 101.367188 238.382812 101.503906 238.679688 Z M 101.503906 238.679688 " fill-opacity="1" fill-rule="nonzero" style="fill: rgb(68, 84, 106);" clip-path="url(#825b62191c)"/><path d="M 115.734375 232.132812 C 115.875 232.429688 115.984375 232.738281 116.0625 233.054688 C 116.144531 233.375 116.191406 233.695312 116.207031 234.023438 C 116.222656 234.351562 116.203125 234.679688 116.15625 235.003906 C 116.105469 235.328125 116.027344 235.644531 115.914062 235.953125 C 115.804688 236.261719 115.664062 236.554688 115.496094 236.835938 C 115.324219 237.117188 115.128906 237.378906 114.910156 237.621094 C 114.6875 237.863281 114.445312 238.082031 114.179688 238.277344 C 113.914062 238.472656 113.636719 238.636719 113.335938 238.777344 C 113.039062 238.917969 112.734375 239.027344 112.414062 239.105469 C 112.09375 239.183594 111.773438 239.226562 111.445312 239.242188 C 111.117188 239.257812 110.789062 239.238281 110.464844 239.191406 C 110.140625 239.140625 109.824219 239.058594 109.515625 238.945312 C 109.207031 238.835938 108.914062 238.691406 108.632812 238.523438 C 108.351562 238.351562 108.09375 238.15625 107.851562 237.933594 C 107.609375 237.710938 107.390625 237.46875 107.199219 237.203125 C 107.003906 236.9375 106.839844 236.65625 106.699219 236.359375 C 106.5625 236.0625 106.453125 235.753906 106.378906 235.433594 C 106.300781 235.117188 106.253906 234.792969 106.242188 234.464844 C 106.226562 234.136719 106.246094 233.8125 106.296875 233.488281 C 106.347656 233.164062 106.429688 232.847656 106.542969 232.539062 C 106.65625 232.230469 106.800781 231.9375 106.96875 231.65625 C 107.140625 231.375 107.339844 231.117188 107.5625 230.875 C 107.785156 230.632812 108.027344 230.417969 108.292969 230.226562 C 108.558594 230.03125 108.839844 229.867188 109.140625 229.730469 C 109.433594 229.59375 109.742188 229.484375 110.058594 229.40625 C 110.375 229.332031 110.695312 229.285156 111.019531 229.269531 C 111.347656 229.257812 111.667969 229.273438 111.992188 229.324219 C 112.3125 229.375 112.628906 229.453125 112.933594 229.566406 C 113.242188 229.675781 113.53125 229.816406 113.8125 229.988281 C 114.089844 230.15625 114.347656 230.351562 114.589844 230.570312 C 114.828125 230.789062 115.046875 231.03125 115.238281 231.296875 C 115.429688 231.558594 115.597656 231.835938 115.734375 232.132812 Z M 115.734375 232.132812 " fill-opacity="1" fill-rule="nonzero" style="fill: rgb(68, 84, 106);" clip-path="url(#a150e640c0)"/><path d="M 129.960938 225.585938 C 130.101562 225.882812 130.210938 226.191406 130.289062 226.507812 C 130.371094 226.828125 130.417969 227.152344 130.433594 227.480469 C 130.449219 227.804688 130.433594 228.132812 130.382812 228.457031 C 130.335938 228.78125 130.253906 229.097656 130.140625 229.40625 C 130.03125 229.714844 129.890625 230.011719 129.722656 230.292969 C 129.550781 230.570312 129.355469 230.832031 129.136719 231.078125 C 128.914062 231.320312 128.671875 231.535156 128.40625 231.730469 C 128.144531 231.925781 127.863281 232.09375 127.566406 232.230469 C 127.265625 232.371094 126.960938 232.480469 126.640625 232.558594 C 126.324219 232.636719 126 232.683594 125.671875 232.695312 C 125.34375 232.710938 125.015625 232.695312 124.691406 232.644531 C 124.367188 232.59375 124.050781 232.511719 123.742188 232.402344 C 123.4375 232.289062 123.140625 232.148438 122.859375 231.976562 C 122.582031 231.804688 122.320312 231.609375 122.078125 231.386719 C 121.835938 231.167969 121.617188 230.921875 121.425781 230.65625 C 121.230469 230.394531 121.066406 230.113281 120.925781 229.8125 C 120.789062 229.515625 120.679688 229.207031 120.605469 228.890625 C 120.527344 228.570312 120.480469 228.246094 120.46875 227.917969 C 120.453125 227.589844 120.472656 227.265625 120.523438 226.941406 C 120.574219 226.617188 120.65625 226.300781 120.769531 225.992188 C 120.882812 225.683594 121.027344 225.390625 121.199219 225.109375 C 121.367188 224.832031 121.566406 224.570312 121.789062 224.328125 C 122.011719 224.089844 122.253906 223.871094 122.519531 223.679688 C 122.785156 223.484375 123.066406 223.320312 123.367188 223.183594 C 123.660156 223.046875 123.96875 222.9375 124.285156 222.863281 C 124.601562 222.785156 124.921875 222.738281 125.246094 222.722656 C 125.574219 222.710938 125.898438 222.726562 126.21875 222.777344 C 126.542969 222.828125 126.855469 222.90625 127.160156 223.019531 C 127.46875 223.128906 127.761719 223.269531 128.039062 223.441406 C 128.316406 223.609375 128.578125 223.804688 128.816406 224.023438 C 129.058594 224.246094 129.273438 224.484375 129.464844 224.75 C 129.660156 225.011719 129.824219 225.292969 129.960938 225.585938 Z M 129.960938 225.585938 " fill-opacity="1" fill-rule="nonzero" style="fill: rgb(68, 84, 106);" clip-path="url(#85ed1fb761)"/><path d="M 238.5 222.777344 C 238.367188 223.078125 238.207031 223.363281 238.019531 223.632812 C 237.832031 223.902344 237.621094 224.152344 237.382812 224.378906 C 237.148438 224.605469 236.890625 224.808594 236.613281 224.984375 C 236.339844 225.160156 236.046875 225.308594 235.742188 225.429688 C 235.4375 225.546875 235.121094 225.636719 234.796875 225.695312 C 234.476562 225.75 234.148438 225.777344 233.820312 225.769531 C 233.492188 225.761719 233.167969 225.722656 232.847656 225.652344 C 232.527344 225.582031 232.21875 225.480469 231.917969 225.347656 C 231.617188 225.214844 231.332031 225.054688 231.066406 224.867188 C 230.796875 224.675781 230.546875 224.464844 230.320312 224.226562 C 230.09375 223.992188 229.894531 223.734375 229.71875 223.457031 C 229.542969 223.179688 229.394531 222.886719 229.277344 222.582031 C 229.15625 222.277344 229.070312 221.960938 229.015625 221.636719 C 228.957031 221.316406 228.933594 220.988281 228.941406 220.660156 C 228.949219 220.332031 228.992188 220.007812 229.0625 219.6875 C 229.132812 219.367188 229.238281 219.058594 229.371094 218.757812 C 229.503906 218.457031 229.664062 218.175781 229.851562 217.90625 C 230.042969 217.636719 230.257812 217.390625 230.496094 217.164062 C 230.730469 216.941406 230.988281 216.738281 231.265625 216.5625 C 231.546875 216.390625 231.835938 216.242188 232.144531 216.125 C 232.449219 216.007812 232.765625 215.921875 233.089844 215.867188 C 233.410156 215.8125 233.738281 215.789062 234.066406 215.796875 C 234.394531 215.804688 234.71875 215.847656 235.035156 215.921875 C 235.355469 215.992188 235.667969 216.097656 235.964844 216.230469 C 236.265625 216.363281 236.546875 216.523438 236.8125 216.710938 C 237.082031 216.898438 237.324219 217.109375 237.550781 217.34375 C 237.777344 217.582031 237.976562 217.835938 238.152344 218.109375 C 238.324219 218.386719 238.472656 218.675781 238.589844 218.980469 C 238.707031 219.285156 238.792969 219.597656 238.847656 219.917969 C 238.90625 220.238281 238.929688 220.5625 238.921875 220.886719 C 238.914062 221.214844 238.875 221.535156 238.804688 221.855469 C 238.730469 222.171875 238.628906 222.480469 238.5 222.777344 " fill-opacity="1" fill-rule="nonzero" style="fill: rgb(68, 84, 106);" clip-path="url(#c86f16038f)"/><path d="M 215.109375 212.304688 C 215.238281 212.003906 215.398438 211.71875 215.585938 211.449219 C 215.773438 211.179688 215.988281 210.933594 216.222656 210.707031 C 216.460938 210.476562 216.714844 210.277344 216.992188 210.097656 C 217.269531 209.921875 217.558594 209.773438 217.867188 209.65625 C 218.171875 209.535156 218.484375 209.445312 218.808594 209.390625 C 219.132812 209.332031 219.457031 209.304688 219.785156 209.3125 C 220.113281 209.320312 220.4375 209.359375 220.757812 209.429688 C 221.078125 209.5 221.390625 209.601562 221.6875 209.734375 C 221.988281 209.867188 222.273438 210.027344 222.542969 210.214844 C 222.8125 210.402344 223.058594 210.617188 223.285156 210.855469 C 223.511719 211.089844 223.714844 211.347656 223.890625 211.625 C 224.066406 211.902344 224.214844 212.195312 224.332031 212.5 C 224.449219 212.804688 224.539062 213.121094 224.59375 213.445312 C 224.648438 213.765625 224.675781 214.09375 224.667969 214.421875 C 224.65625 214.75 224.617188 215.074219 224.546875 215.394531 C 224.472656 215.714844 224.371094 216.023438 224.238281 216.324219 C 224.105469 216.625 223.945312 216.90625 223.753906 217.175781 C 223.566406 217.441406 223.351562 217.691406 223.113281 217.917969 C 222.875 218.140625 222.617188 218.34375 222.339844 218.519531 C 222.0625 218.691406 221.773438 218.839844 221.464844 218.957031 C 221.160156 219.074219 220.84375 219.160156 220.519531 219.214844 C 220.195312 219.269531 219.871094 219.292969 219.542969 219.285156 C 219.214844 219.277344 218.890625 219.234375 218.570312 219.164062 C 218.25 219.089844 217.941406 218.984375 217.640625 218.851562 C 217.34375 218.71875 217.0625 218.558594 216.796875 218.371094 C 216.527344 218.1875 216.28125 217.972656 216.058594 217.738281 C 215.832031 217.503906 215.632812 217.246094 215.457031 216.972656 C 215.285156 216.695312 215.136719 216.40625 215.019531 216.101562 C 214.902344 215.800781 214.816406 215.488281 214.757812 215.164062 C 214.703125 214.84375 214.679688 214.519531 214.6875 214.195312 C 214.695312 213.871094 214.734375 213.546875 214.804688 213.230469 C 214.875 212.910156 214.976562 212.605469 215.109375 212.304688 Z M 215.109375 212.304688 " fill-opacity="1" fill-rule="nonzero" style="fill: rgb(68, 84, 106);" clip-path="url(#0673d1194b)"/><path d="M 200.808594 205.902344 C 200.941406 205.601562 201.097656 205.316406 201.285156 205.046875 C 201.472656 204.777344 201.6875 204.527344 201.921875 204.300781 C 202.160156 204.074219 202.414062 203.871094 202.691406 203.695312 C 202.96875 203.519531 203.257812 203.371094 203.566406 203.25 C 203.871094 203.132812 204.183594 203.042969 204.507812 202.984375 C 204.832031 202.929688 205.15625 202.902344 205.484375 202.910156 C 205.8125 202.917969 206.136719 202.957031 206.457031 203.027344 C 206.777344 203.097656 207.089844 203.199219 207.386719 203.332031 C 207.6875 203.464844 207.972656 203.625 208.242188 203.8125 C 208.511719 204 208.757812 204.214844 208.984375 204.449219 C 209.210938 204.6875 209.414062 204.945312 209.589844 205.222656 C 209.765625 205.5 209.914062 205.789062 210.03125 206.097656 C 210.148438 206.402344 210.238281 206.71875 210.292969 207.039062 C 210.347656 207.363281 210.375 207.6875 210.367188 208.015625 C 210.359375 208.34375 210.316406 208.667969 210.246094 208.988281 C 210.175781 209.308594 210.070312 209.621094 209.9375 209.917969 C 209.804688 210.21875 209.644531 210.503906 209.453125 210.773438 C 209.265625 211.039062 209.050781 211.285156 208.8125 211.511719 C 208.574219 211.738281 208.316406 211.9375 208.039062 212.113281 C 207.761719 212.289062 207.472656 212.4375 207.164062 212.554688 C 206.859375 212.671875 206.542969 212.757812 206.21875 212.8125 C 205.898438 212.867188 205.570312 212.890625 205.242188 212.882812 C 204.914062 212.871094 204.589844 212.832031 204.269531 212.757812 C 203.949219 212.6875 203.640625 212.582031 203.339844 212.449219 C 203.042969 212.316406 202.761719 212.15625 202.496094 211.96875 C 202.226562 211.78125 201.980469 211.570312 201.757812 211.335938 C 201.53125 211.097656 201.332031 210.84375 201.15625 210.570312 C 200.984375 210.292969 200.835938 210.003906 200.71875 209.699219 C 200.601562 209.394531 200.515625 209.082031 200.457031 208.761719 C 200.402344 208.441406 200.378906 208.117188 200.386719 207.792969 C 200.394531 207.464844 200.433594 207.144531 200.503906 206.828125 C 200.574219 206.507812 200.675781 206.199219 200.808594 205.902344 Z M 200.808594 205.902344 " fill-opacity="1" fill-rule="nonzero" style="fill: rgb(68, 84, 106);" clip-path="url(#a040188290)"/><path d="M 309.636719 254.53125 C 309.503906 254.832031 309.347656 255.117188 309.160156 255.386719 C 308.972656 255.65625 308.757812 255.902344 308.523438 256.132812 C 308.285156 256.359375 308.03125 256.5625 307.753906 256.738281 C 307.476562 256.914062 307.1875 257.0625 306.878906 257.179688 C 306.574219 257.300781 306.261719 257.390625 305.9375 257.445312 C 305.613281 257.503906 305.289062 257.527344 304.960938 257.523438 C 304.632812 257.515625 304.308594 257.476562 303.988281 257.40625 C 303.667969 257.332031 303.355469 257.230469 303.054688 257.101562 C 302.757812 256.96875 302.472656 256.808594 302.203125 256.617188 C 301.933594 256.429688 301.6875 256.21875 301.460938 255.980469 C 301.234375 255.742188 301.03125 255.484375 300.855469 255.210938 C 300.679688 254.933594 300.535156 254.640625 300.414062 254.335938 C 300.296875 254.027344 300.210938 253.714844 300.152344 253.390625 C 300.097656 253.066406 300.074219 252.742188 300.082031 252.414062 C 300.089844 252.085938 300.128906 251.761719 300.199219 251.441406 C 300.273438 251.121094 300.375 250.8125 300.507812 250.511719 C 300.640625 250.210938 300.804688 249.925781 300.992188 249.660156 C 301.179688 249.390625 301.394531 249.144531 301.632812 248.917969 C 301.871094 248.691406 302.128906 248.492188 302.40625 248.316406 C 302.683594 248.140625 302.976562 247.996094 303.28125 247.878906 C 303.589844 247.761719 303.902344 247.675781 304.226562 247.621094 C 304.550781 247.5625 304.875 247.542969 305.203125 247.550781 C 305.53125 247.558594 305.855469 247.601562 306.175781 247.671875 C 306.496094 247.746094 306.804688 247.847656 307.105469 247.984375 C 307.402344 248.117188 307.683594 248.273438 307.953125 248.460938 C 308.21875 248.648438 308.464844 248.863281 308.691406 249.097656 C 308.914062 249.332031 309.113281 249.589844 309.289062 249.863281 C 309.464844 250.140625 309.609375 250.429688 309.726562 250.734375 C 309.84375 251.035156 309.933594 251.347656 309.988281 251.671875 C 310.042969 251.992188 310.066406 252.316406 310.058594 252.640625 C 310.050781 252.96875 310.011719 253.289062 309.941406 253.605469 C 309.871094 253.925781 309.769531 254.234375 309.636719 254.53125 " fill-opacity="1" fill-rule="nonzero" style="fill: rgb(68, 84, 106);" clip-path="url(#e56f3f0df0)"/><path d="M 286.246094 244.058594 C 286.378906 243.757812 286.539062 243.472656 286.726562 243.203125 C 286.914062 242.933594 287.125 242.683594 287.363281 242.457031 C 287.597656 242.230469 287.855469 242.027344 288.132812 241.851562 C 288.40625 241.675781 288.699219 241.527344 289.003906 241.40625 C 289.308594 241.289062 289.625 241.199219 289.945312 241.140625 C 290.269531 241.085938 290.597656 241.058594 290.925781 241.066406 C 291.253906 241.074219 291.578125 241.113281 291.898438 241.183594 C 292.21875 241.253906 292.527344 241.355469 292.828125 241.488281 C 293.128906 241.621094 293.414062 241.78125 293.679688 241.96875 C 293.949219 242.15625 294.199219 242.371094 294.425781 242.605469 C 294.652344 242.84375 294.851562 243.101562 295.027344 243.378906 C 295.203125 243.65625 295.351562 243.945312 295.46875 244.253906 C 295.589844 244.558594 295.675781 244.875 295.730469 245.195312 C 295.789062 245.519531 295.8125 245.84375 295.804688 246.171875 C 295.796875 246.5 295.757812 246.824219 295.683594 247.144531 C 295.613281 247.464844 295.511719 247.777344 295.378906 248.074219 C 295.246094 248.375 295.082031 248.660156 294.894531 248.929688 C 294.703125 249.195312 294.492188 249.441406 294.253906 249.667969 C 294.015625 249.894531 293.757812 250.09375 293.480469 250.269531 C 293.203125 250.445312 292.910156 250.59375 292.605469 250.710938 C 292.296875 250.828125 291.984375 250.914062 291.660156 250.96875 C 291.335938 251.023438 291.011719 251.046875 290.683594 251.039062 C 290.355469 251.027344 290.03125 250.988281 289.710938 250.914062 C 289.390625 250.84375 289.082031 250.738281 288.78125 250.605469 C 288.484375 250.472656 288.199219 250.3125 287.933594 250.125 C 287.667969 249.9375 287.421875 249.726562 287.195312 249.492188 C 286.972656 249.253906 286.773438 249 286.597656 248.726562 C 286.421875 248.449219 286.277344 248.160156 286.160156 247.855469 C 286.039062 247.550781 285.953125 247.238281 285.898438 246.917969 C 285.84375 246.597656 285.816406 246.273438 285.824219 245.949219 C 285.832031 245.621094 285.871094 245.300781 285.945312 244.984375 C 286.015625 244.664062 286.117188 244.355469 286.246094 244.058594 Z M 286.246094 244.058594 " fill-opacity="1" fill-rule="nonzero" style="fill: rgb(68, 84, 106);" clip-path="url(#1c38687e91)"/><path d="M 271.945312 237.65625 C 272.078125 237.355469 272.238281 237.070312 272.425781 236.800781 C 272.613281 236.53125 272.824219 236.28125 273.0625 236.054688 C 273.296875 235.828125 273.554688 235.625 273.832031 235.449219 C 274.105469 235.269531 274.398438 235.125 274.703125 235.003906 C 275.007812 234.882812 275.324219 234.796875 275.648438 234.738281 C 275.96875 234.679688 276.296875 234.65625 276.625 234.664062 C 276.953125 234.667969 277.277344 234.707031 277.597656 234.78125 C 277.917969 234.851562 278.226562 234.953125 278.527344 235.085938 C 278.828125 235.214844 279.113281 235.375 279.378906 235.566406 C 279.648438 235.753906 279.898438 235.964844 280.125 236.203125 C 280.351562 236.441406 280.550781 236.699219 280.726562 236.976562 C 280.902344 237.25 281.050781 237.542969 281.167969 237.847656 C 281.289062 238.15625 281.375 238.46875 281.433594 238.792969 C 281.488281 239.117188 281.511719 239.441406 281.503906 239.769531 C 281.496094 240.097656 281.457031 240.421875 281.382812 240.742188 C 281.3125 241.0625 281.210938 241.371094 281.078125 241.671875 C 280.945312 241.972656 280.78125 242.257812 280.59375 242.523438 C 280.402344 242.792969 280.191406 243.039062 279.953125 243.265625 C 279.714844 243.492188 279.457031 243.691406 279.179688 243.867188 C 278.902344 244.042969 278.609375 244.1875 278.304688 244.304688 C 277.996094 244.421875 277.683594 244.511719 277.359375 244.566406 C 277.035156 244.621094 276.710938 244.644531 276.382812 244.632812 C 276.054688 244.625 275.730469 244.585938 275.410156 244.511719 C 275.089844 244.4375 274.78125 244.335938 274.480469 244.199219 C 274.183594 244.070312 273.898438 243.910156 273.632812 243.722656 C 273.367188 243.535156 273.121094 243.324219 272.894531 243.085938 C 272.671875 242.851562 272.472656 242.597656 272.296875 242.320312 C 272.121094 242.046875 271.976562 241.757812 271.859375 241.453125 C 271.742188 241.148438 271.652344 240.835938 271.597656 240.515625 C 271.542969 240.195312 271.515625 239.871094 271.523438 239.542969 C 271.53125 239.21875 271.570312 238.898438 271.644531 238.578125 C 271.714844 238.261719 271.816406 237.953125 271.945312 237.65625 Z M 271.945312 237.65625 " fill-opacity="1" fill-rule="nonzero" style="fill: rgb(68, 84, 106);" clip-path="url(#931dd4f06a)"/><path d="M 257.652344 231.253906 C 257.785156 230.953125 257.941406 230.667969 258.128906 230.398438 C 258.316406 230.128906 258.53125 229.882812 258.765625 229.652344 C 259.003906 229.425781 259.257812 229.222656 259.535156 229.046875 C 259.8125 228.871094 260.101562 228.722656 260.410156 228.601562 C 260.714844 228.484375 261.027344 228.394531 261.351562 228.335938 C 261.675781 228.28125 262 228.253906 262.328125 228.261719 C 262.65625 228.269531 262.980469 228.308594 263.300781 228.378906 C 263.621094 228.449219 263.933594 228.550781 264.230469 228.683594 C 264.53125 228.816406 264.816406 228.976562 265.085938 229.164062 C 265.355469 229.351562 265.601562 229.566406 265.828125 229.800781 C 266.054688 230.039062 266.257812 230.296875 266.433594 230.574219 C 266.609375 230.851562 266.757812 231.140625 266.875 231.449219 C 266.992188 231.753906 267.082031 232.070312 267.136719 232.390625 C 267.191406 232.714844 267.21875 233.042969 267.210938 233.367188 C 267.203125 233.695312 267.160156 234.019531 267.089844 234.339844 C 267.015625 234.660156 266.914062 234.972656 266.78125 235.273438 C 266.648438 235.570312 266.488281 235.855469 266.296875 236.125 C 266.109375 236.390625 265.894531 236.640625 265.65625 236.863281 C 265.417969 237.089844 265.160156 237.292969 264.882812 237.464844 C 264.605469 237.640625 264.316406 237.789062 264.007812 237.90625 C 263.703125 238.023438 263.386719 238.109375 263.0625 238.164062 C 262.738281 238.21875 262.414062 238.242188 262.085938 238.234375 C 261.757812 238.222656 261.433594 238.183594 261.113281 238.109375 C 260.792969 238.039062 260.484375 237.933594 260.183594 237.800781 C 259.886719 237.667969 259.605469 237.507812 259.339844 237.320312 C 259.070312 237.132812 258.828125 236.921875 258.601562 236.6875 C 258.375 236.449219 258.175781 236.195312 258.003906 235.917969 C 257.828125 235.644531 257.679688 235.355469 257.5625 235.050781 C 257.445312 234.746094 257.359375 234.433594 257.304688 234.113281 C 257.246094 233.792969 257.222656 233.46875 257.230469 233.144531 C 257.238281 232.816406 257.277344 232.496094 257.347656 232.179688 C 257.417969 231.859375 257.519531 231.550781 257.652344 231.253906 Z M 257.652344 231.253906 " fill-opacity="1" fill-rule="nonzero" style="fill: rgb(68, 84, 106);" clip-path="url(#ff2ee930ab)"/><path d="M 243.359375 224.855469 C 243.488281 224.554688 243.648438 224.269531 243.835938 224 C 244.023438 223.730469 244.238281 223.480469 244.472656 223.253906 C 244.710938 223.027344 244.964844 222.824219 245.242188 222.648438 C 245.519531 222.46875 245.808594 222.320312 246.117188 222.203125 C 246.421875 222.082031 246.734375 221.996094 247.058594 221.9375 C 247.382812 221.878906 247.707031 221.855469 248.035156 221.863281 C 248.363281 221.867188 248.6875 221.90625 249.007812 221.976562 C 249.328125 222.050781 249.640625 222.152344 249.9375 222.28125 C 250.238281 222.414062 250.523438 222.574219 250.792969 222.765625 C 251.0625 222.953125 251.308594 223.164062 251.535156 223.402344 C 251.761719 223.640625 251.964844 223.898438 252.140625 224.171875 C 252.316406 224.449219 252.464844 224.742188 252.582031 225.046875 C 252.699219 225.355469 252.789062 225.667969 252.84375 225.992188 C 252.898438 226.316406 252.925781 226.640625 252.917969 226.96875 C 252.90625 227.296875 252.867188 227.621094 252.796875 227.941406 C 252.722656 228.261719 252.621094 228.570312 252.488281 228.871094 C 252.355469 229.171875 252.195312 229.457031 252.003906 229.722656 C 251.816406 229.992188 251.601562 230.238281 251.363281 230.464844 C 251.125 230.691406 250.867188 230.890625 250.589844 231.066406 C 250.3125 231.242188 250.023438 231.386719 249.714844 231.503906 C 249.410156 231.621094 249.09375 231.707031 248.769531 231.765625 C 248.445312 231.820312 248.121094 231.84375 247.792969 231.832031 C 247.464844 231.824219 247.140625 231.785156 246.820312 231.710938 C 246.5 231.636719 246.191406 231.535156 245.890625 231.398438 C 245.59375 231.269531 245.3125 231.109375 245.046875 230.921875 C 244.777344 230.734375 244.53125 230.523438 244.308594 230.285156 C 244.082031 230.050781 243.882812 229.796875 243.707031 229.519531 C 243.535156 229.246094 243.386719 228.957031 243.269531 228.652344 C 243.152344 228.347656 243.066406 228.035156 243.007812 227.714844 C 242.953125 227.394531 242.929688 227.070312 242.9375 226.742188 C 242.945312 226.417969 242.984375 226.097656 243.054688 225.777344 C 243.125 225.460938 243.226562 225.152344 243.359375 224.855469 Z M 243.359375 224.855469 " fill-opacity="1" fill-rule="nonzero" style="fill: rgb(68, 84, 106);" clip-path="url(#986214cbf3)"/></g><g><path d="M 44.726562 86.109375 C 36.308594 86.109375 29.488281 92.933594 29.488281 101.347656 C 29.488281 109.761719 36.308594 116.582031 44.726562 116.582031 C 53.140625 116.582031 59.960938 109.761719 59.960938 101.347656 C 59.960938 92.933594 53.140625 86.109375 44.726562 86.109375 Z M 44.726562 108.78125 C 40.632812 108.78125 37.3125 105.464844 37.3125 101.371094 C 37.3125 97.28125 40.632812 93.964844 44.726562 93.964844 C 48.816406 93.964844 52.132812 97.28125 52.132812 101.371094 C 52.132812 105.464844 48.816406 108.78125 44.726562 108.78125 Z M 44.726562 108.78125 " fill-opacity="1" fill-rule="nonzero" style="fill: rgb(68, 84, 106);" clip-path="url(#8ff5e7a2e9)"/><path d="M 187.5 22.578125 C 179.257812 22.578125 172.582031 29.261719 172.582031 37.5 C 172.582031 45.734375 179.257812 52.414062 187.5 52.414062 C 195.738281 52.414062 202.414062 45.734375 202.414062 37.5 C 202.414062 29.261719 195.738281 22.578125 187.5 22.578125 Z M 187.5 44.773438 C 183.492188 44.773438 180.242188 41.527344 180.242188 37.523438 C 180.242188 33.515625 183.492188 30.269531 187.5 30.269531 C 191.503906 30.269531 194.75 33.515625 194.75 37.523438 C 194.75 41.527344 191.503906 44.773438 187.5 44.773438 Z M 187.5 44.773438 " fill-opacity="1" fill-rule="nonzero" style="fill: rgb(68, 84, 106);" clip-path="url(#f75d9249ac)"/><path d="M 187.5 149.28125 C 179.257812 149.28125 172.582031 155.964844 172.582031 164.203125 C 172.582031 172.4375 179.257812 179.117188 187.5 179.117188 C 195.738281 179.117188 202.414062 172.4375 202.414062 164.203125 C 202.414062 155.964844 195.738281 149.28125 187.5 149.28125 Z M 187.5 171.476562 C 183.492188 171.476562 180.242188 168.230469 180.242188 164.226562 C 180.242188 160.21875 183.492188 156.972656 187.5 156.972656 C 191.503906 156.972656 194.75 160.21875 194.75 164.226562 C 194.75 168.230469 191.503906 171.476562 187.5 171.476562 Z M 187.5 171.476562 " fill-opacity="1" fill-rule="nonzero" style="fill: rgb(68, 84, 106);" clip-path="url(#27679e8efc)"/><path d="M 330.417969 86.109375 C 322.003906 86.109375 315.179688 92.933594 315.179688 101.347656 C 315.179688 109.761719 322.003906 116.582031 330.417969 116.582031 C 338.832031 116.582031 345.652344 109.761719 345.652344 101.347656 C 345.652344 92.933594 338.832031 86.109375 330.417969 86.109375 Z M 330.417969 108.78125 C 326.324219 108.78125 323.007812 105.464844 323.007812 101.371094 C 323.007812 97.28125 326.324219 93.964844 330.417969 93.964844 C 334.507812 93.964844 337.824219 97.28125 337.824219 101.371094 C 337.824219 105.464844 334.507812 108.78125 330.417969 108.78125 Z M 330.417969 108.78125 " fill-opacity="1" fill-rule="nonzero" style="fill: rgb(68, 84, 106);" clip-path="url(#e5f93e8c86)"/><path d="M 44.726562 252.5 C 36.308594 252.5 29.488281 259.324219 29.488281 267.738281 C 29.488281 276.148438 36.308594 282.96875 44.726562 282.96875 C 53.140625 282.96875 59.960938 276.148438 59.960938 267.738281 C 59.960938 259.324219 53.140625 252.5 44.726562 252.5 Z M 44.726562 275.167969 C 40.632812 275.167969 37.3125 271.851562 37.3125 267.761719 C 37.3125 263.667969 40.632812 260.351562 44.726562 260.351562 C 48.816406 260.351562 52.132812 263.667969 52.132812 267.761719 C 52.132812 271.851562 48.816406 275.167969 44.726562 275.167969 Z M 44.726562 275.167969 " fill-opacity="1" fill-rule="nonzero" style="fill: rgb(68, 84, 106);" clip-path="url(#67d6f23fff)"/><path d="M 187.816406 316.070312 C 179.402344 316.070312 172.582031 322.894531 172.582031 331.3125 C 172.582031 339.722656 179.402344 346.542969 187.816406 346.542969 C 196.230469 346.542969 203.050781 339.722656 203.050781 331.3125 C 203.050781 322.894531 196.230469 316.070312 187.816406 316.070312 Z M 187.816406 338.742188 C 183.726562 338.742188 180.40625 335.425781 180.40625 331.332031 C 180.40625 327.242188 183.726562 323.925781 187.816406 323.925781 C 191.90625 323.925781 195.222656 327.242188 195.222656 331.332031 C 195.222656 335.425781 191.90625 338.742188 187.816406 338.742188 Z M 187.816406 338.742188 " fill-opacity="1" fill-rule="nonzero" style="fill: rgb(68, 84, 106);" clip-path="url(#b53a5a1f6c)"/><path d="M 330.417969 252.5 C 322.003906 252.5 315.179688 259.324219 315.179688 267.738281 C 315.179688 276.148438 322.003906 282.96875 330.417969 282.96875 C 338.832031 282.96875 345.652344 276.148438 345.652344 267.738281 C 345.652344 259.324219 338.832031 252.5 330.417969 252.5 Z M 330.417969 275.167969 C 326.324219 275.167969 323.007812 271.851562 323.007812 267.761719 C 323.007812 263.667969 326.324219 260.351562 330.417969 260.351562 C 334.507812 260.351562 337.824219 263.667969 337.824219 267.761719 C 337.824219 271.851562 334.507812 275.167969 330.417969 275.167969 Z M 330.417969 275.167969 " fill-opacity="1" fill-rule="nonzero" style="fill: rgb(68, 84, 106);" clip-path="url(#1c7486db8d)"/></g></g></svg>